<?xml version="1.0" encoding="UTF-8"?>
<svg xmlns="http://www.w3.org/2000/svg" width="1800" height="1150" viewBox="0 0 1800 1150">
<title>Broken Engine code-quality history</title>
<desc>seriesDigest=84e0032d5a48891460542df60af206e903f0eb654d44a98827a9c8aaecec7e89 generatorDigest=77cd70726265e1ca4e56f515a7c407030172a5fb96e8829a654900be19baeffb captureDigest=c83e40a544b2d84d200a6110f9d6314dc3345cf2d98ca56f918291253f73eacb identityDigest=747a594a4c7133ed988ea236e57d5424cde8c3a2252700eb7e426c54c6316680 scbDigest=6b4897517c1f720e33116ce3594c7a39816cd96945288331995f1de4c018d766</desc>
<rect width="1800" height="1150" fill="#10151c"/>
<g fill="none" stroke="#384555" stroke-width="1">
<line x1="110" y1="120" x2="1720" y2="120"/>
<line x1="110" y1="350" x2="1720" y2="350"/>
<line x1="110" y1="580" x2="1720" y2="580"/>
<line x1="110" y1="810" x2="1720" y2="810"/>
</g>
<polyline id="series-verbosity" fill="none" stroke="#65d6ff" stroke-width="3" points="110,342.38781418597 112.323232323232,342.3853090239 114.646464646465,342.38781418597 116.969696969697,342.38931649238 119.292929292929,342.40231168328 121.616161616162,342.61086656585 123.939393939394,342.44393442632 126.262626262626,342.53638389922 128.585858585859,342.53638389922 130.909090909091,342.52020235203 133.232323232323,342.52167630059 135.555555555556,342.52167630059 137.878787878788,342.44690613534 140.20202020202,342.61911011936 142.525252525253,342.50261301279 144.848484848485,342.16179513706 147.171717171717,342.16078127015 149.494949494949,342.19204655682 151.818181818182,342.34508751768 154.141414141414,341.75862506334 156.464646464646,341.75182481756 158.787878787879,342.39077978159 161.111111111111,342.48366013074 163.434343434343,342.27454211295 165.757575757576,342.09252354179 168.080808080808,342.10449927425 170.40404040404,342.10798536654 172.727272727273,342.0460261569 175.050505050505,342.13081761006 177.373737373737,342.13378599282 179.69696969697,342.02998991934 182.020202020202,342.02697592344 184.343434343434,342.15185091916 186.666666666667,342.14393748419 188.989898989899,341.87740430098 191.313131313131,341.66645625553 193.636363636364,341.72236503848 195.959595959596,341.70155258021 198.282828282828,341.60278527066 200.606060606061,341.60015060249 202.929292929293,341.67146974056 205.252525252525,341.54829545454 207.575757575758,341.54777345436 209.89898989899,341.45414146406 212.222222222222,341.37269418215 214.545454545455,341.46730757371 216.868686868687,341.491427518 219.191919191919,341.491427518 221.515151515152,341.45097554948 223.838383838384,341.45150336475 226.161616161616,341.47203744758 228.484848484848,341.72528899053 230.808080808081,341.454095827 233.131313131313,341.46570352542 235.454545454545,341.4514533087 237.777777777778,341.4514533087 240.10101010101,341.36343952978 242.424242424242,341.36343952978 244.747474747475,341.18161117598 247.070707070707,340.9372716199 249.393939393939,339.88404099558 251.717171717172,341.05302942206 254.040404040404,340.6829771385 256.363636363636,340.69949668265 258.686868686869,340.70321879818 261.010101010101,340.10794841196 263.333333333333,340.46665910641 265.656565656566,340.41666666659 267.979797979798,340.34593498233 270.30303030303,340.23951758344 272.626262626263,340.24116752133 274.949494949495,340.35408691741 277.272727272727,340.36818437319 279.59595959596,340.44253261356 281.919191919192,340.39194796445 284.242424242424,340.72894351112 286.565656565657,340.72423712554 288.888888888889,340.34683386994 291.212121212121,340.25060676181 293.535353535354,340.34301537061 295.858585858586,340.34574317843 298.181818181818,340.23762488009 300.50505050505,340.23762488009 302.828282828283,339.85067974145 305.151515151515,339.91362977821 307.474747474747,339.82823043896 309.79797979798,339.85070515645 312.121212121212,339.76904420684 314.444444444444,339.19718077204 316.767676767677,339.19718077204 319.090909090909,338.96678966785 321.414141414141,339.06334566747 323.737373737374,339.06817554511 326.060606060606,339.07300115878 328.383838383838,338.86667768055 330.707070707071,338.71374527118 333.030303030303,337.63927280458 335.353535353535,336.29370996536 337.676767676768,336.4684656416 340,336.26883633315 342.323232323232,336.10694022578 344.646464646465,336.31092868145 346.969696969697,336.25193420815 349.292929292929,336.42493565921 351.616161616162,336.37798393485 353.939393939394,335.66517607593 356.262626262626,335.62983301576 358.585858585859,335.83244426984 360.909090909091,335.52104938607 363.232323232323,335.61614691222 365.555555555556,335.69433538968 367.878787878788,335.9383580835 370.20202020202,335.94229691883 372.525252525253,334.51675977658 374.848484848485,334.52886010947 377.171717171717,334.2742748347 379.494949494949,334.31701605716 381.818181818182,334.4702699718 384.141414141414,334.89637027502 386.464646464646,334.70751331948 388.787878787879,335.81215532446 391.111111111111,336.19129757395 393.434343434343,335.50154151057 395.757575757576,335.50233966416 398.080808080808,335.50313772989 400.40404040404,335.7849042271 402.727272727273,335.96302502828 405.050505050505,336.21615779509 407.373737373737,337.41577273453 409.69696969697,336.9213519141 412.020202020202,336.36349339481 414.343434343434,336.61866359454 416.666666666667,336.70983512764 418.989898989899,336.65407112164 421.313131313131,336.55674052595 423.636363636364,336.55674052595 425.959595959596,336.57758709805 428.282828282828,336.42307493667 430.606060606061,336.44363859244 432.929292929293,336.62399838727 435.252525252525,336.69640619515 437.575757575758,336.70773237173 439.89898989899,336.71239048813 442.222222222222,336.71239048813 444.545454545455,336.75543942506 446.868686868687,337.14787208471 449.191919191919,337.15651881396 451.515151515152,337.20390020086 453.838383838384,337.50704023674 456.161616161616,337.16197552026 458.484848484848,336.25093843833 460.808080808081,336.64653971207 463.131313131313,336.44551519648 465.454545454545,336.33558163165 467.777777777778,336.49182750014 470.10101010101,336.49182750014 472.424242424242,336.39716703448 474.747474747475,335.4891577266 477.070707070707,335.5501233666 479.393939393939,335.5501233666 481.717171717172,335.46763570292 484.040404040404,335.46433439355 486.363636363636,335.46472261101 488.686868686869,334.24671474706 491.010101010101,334.03369498098 493.333333333333,334.06168435695 495.656565656566,334.06644605063 497.979797979798,333.52367926148 500.30303030303,333.52367926148 502.626262626263,333.8141412461 504.949494949495,333.7126911947 507.272727272727,333.68801056193 509.59595959596,333.50047303681 511.919191919192,333.50929123497 514.242424242424,333.52013147077 516.565656565657,332.61122968308 518.888888888889,332.65756691207 521.212121212121,332.49083054854 523.535353535354,331.88948715009 525.858585858586,332.00981502465 528.181818181818,332.14868574439 530.505050505051,332.22015550026 532.828282828283,331.40744027814 535.151515151515,331.27383455372 537.474747474747,331.46486701072 539.79797979798,331.49158528226 542.121212121212,330.77751657829 544.444444444444,330.77819100407 546.767676767677,330.75185328317 549.090909090909,330.76739450967 551.414141414141,330.85342839178 553.737373737374,330.80995364734 556.060606060606,330.83666585516 558.383838383838,330.83666585516 560.707070707071,330.85198054201 563.030303030303,333.33955158204 565.353535353535,333.03245543093 567.676767676768,333.42902263544 570,333.30893221656 572.323232323232,333.38378529888 574.646464646465,332.9365303243 576.969696969697,332.96175982493 579.292929292929,332.85332489364 581.616161616162,332.96834931665 583.939393939394,332.97341843178 586.262626262626,332.97341843178 588.585858585859,333.01488877222 590.909090909091,333.02083698116 593.232323232323,333.24126641367 595.555555555556,333.28086451938 597.878787878788,333.28086451938 600.20202020202,330.31848667229 602.525252525253,330.31510147916 604.848484848485,332.18949044597 607.171717171717,332.19318889726 609.494949494949,332.18887388796 611.818181818182,332.1901069612 614.141414141414,332.19996540382 616.464646464646,332.09964165184 618.787878787879,332.16788548843 621.111111111111,332.60550966082 623.434343434343,332.68561584838 625.757575757576,332.58882201197 628.080808080808,332.62348539454 630.40404040404,332.61041009464 632.727272727273,332.6169665809 635.050505050505,332.6169665809 637.373737373737,332.78847143599 639.69696969697,332.77526084572 642.020202020202,332.77526084572 644.343434343434,333.22990756973 646.666666666667,333.25005147918 648.989898989899,333.24947661051 651.313131313131,333.27416038393 653.636363636364,333.29133858276 655.959595959596,333.29133858276 658.282828282828,333.75296590061 660.606060606061,333.75794026218 662.929292929293,333.78259842786 665.252525252525,334.35711637615 667.575757575758,336.60512472435 669.89898989899,340.15878978293 672.222222222222,339.58244869065 674.545454545455,339.17710496352 676.868686868687,339.17710496352 679.191919191919,339.17710496352 681.515151515152,339.17710496352 683.838383838384,339.17782987269 686.161616161616,339.17637995706 688.484848484848,339.17637995706 690.808080808081,339.17637995706 693.131313131313,339.36434004623 695.454545454545,339.36719037896 697.777777777778,339.36719037896 700.10101010101,339.37217478647 702.424242424242,339.66950459202 704.747474747475,339.63575493804 707.070707070707,339.63575493804 709.393939393939,339.63748953985 711.717171717172,339.64442214419 714.040404040404,339.64418728383 716.363636363636,339.84466917836 718.686868686869,339.89161777863 721.010101010101,339.82795341109 723.333333333333,339.5589550014 725.656565656566,339.58928984124 727.979797979798,339.5944429779 730.30303030303,339.55786350144 732.626262626263,339.55648618347 734.949494949495,339.56921252852 737.272727272727,339.57539251513 739.59595959596,339.59628145323 741.919191919192,339.59833158169 744.242424242424,339.49819506328 746.565656565657,339.45481702763 748.888888888889,339.40126561749 751.212121212121,339.42631442621 753.535353535354,339.42186234818 755.858585858586,339.45323647683 758.181818181818,339.39275188643 760.50505050505,339.39961808586 762.828282828283,339.3985887227 765.151515151515,339.01744719936 767.474747474747,339.11371607319 769.79797979798,339.10666708471 772.121212121212,339.00267363052 774.444444444444,339.20921044502 776.767676767677,339.21020956134 779.090909090909,339.32942648714 781.414141414141,339.23365731062 783.737373737374,339.23626456785 786.060606060606,339.39921090398 788.383838383838,339.41597779703 790.707070707071,339.19003390821 793.030303030303,339.19704157696 795.353535353535,339.31280521675 797.676767676768,339.31686641323 800,339.24652502287 802.323232323232,339.24684102263 804.646464646465,339.20419186296 806.969696969697,339.21969808001 809.292929292929,339.30465887274 811.616161616162,339.24898100772 813.939393939394,339.25519313545 816.262626262626,339.26170814811 818.585858585859,339.26759587924 820.909090909091,339.27069209232 823.232323232323,339.27038255142 825.555555555556,339.2778066078 827.878787878788,339.29478138221 830.20202020202,339.29755395677 832.525252525253,339.31231679979 834.848484848485,339.27780150939 837.171717171717,339.30795946244 839.49494949495,339.30643737718 841.818181818182,339.31615432702 844.141414141414,339.27585816878 846.464646464646,339.25451828463 848.787878787879,339.36360326032 851.111111111111,339.3318217444 853.434343434343,339.3318217444 855.757575757576,339.26834047089 858.080808080808,338.86499833532 860.40404040404,338.9024152979 862.727272727273,338.86231038512 865.050505050505,338.86231038512 867.373737373737,338.8556108131 869.69696969697,338.86819126823 872.020202020202,338.86819126823 874.343434343434,338.88719681039 876.666666666667,338.92493638684 878.989898989899,338.913445355 881.313131313131,338.9158919754 883.636363636364,338.92780380259 885.959595959596,339.03835661275 888.282828282828,338.93253583363 890.606060606061,338.95307247544 892.929292929293,338.98240532143 895.252525252525,339.04966278347 897.575757575758,339.06450155478 899.89898989899,339.01228972835 902.222222222222,338.96617893988 904.545454545455,338.96441423429 906.868686868687,339.33957732945 909.191919191919,339.35519970156 911.515151515152,339.44802428376 913.838383838384,339.48924731187 916.161616161616,339.49232365686 918.484848484848,339.5734798418 920.808080808081,339.55018221467 923.131313131313,339.56504526386 925.454545454545,339.61610265313 927.777777777778,339.71344890377 930.10101010101,339.72483592938 932.424242424242,339.78376268539 934.747474747475,339.80551516401 937.070707070707,339.83691853693 939.393939393939,339.83849677761 941.717171717172,339.84270302428 944.040404040404,339.98151426786 946.363636363636,339.97942708341 948.686868686869,339.97968802899 951.010101010101,339.97472773698 953.333333333333,339.99974011117 955.656565656566,339.99948020887 957.979797979798,339.99948020887 960.30303030303,339.99948020887 962.626262626263,340.00259814499 964.949494949495,340.01349562687 967.272727272727,340.0347033383 969.59595959596,340.01479136384 971.919191919192,340.1230657388 974.242424242424,340.17702105539 976.565656565657,340.04924584247 978.888888888889,340.05027198425 981.212121212121,340.71476234477 983.535353535354,340.75321042587 985.858585858586,340.75186060095 988.181818181818,340.57662245969 990.50505050505,340.64443723979 992.828282828283,340.36376746722 995.151515151515,340.36376746722 997.474747474747,340.30103387863 999.79797979798,340.36213140201 1002.12121212121,340.36213140201 1004.44444444444,340.3808516915 1006.76767676768,340.492092261 1009.09090909091,340.49539599411 1011.41414141414,340.50655586804 1013.73737373737,340.50340979533 1016.06060606061,340.54395590745 1018.38383838384,340.44773902926 1020.70707070707,340.44821185498 1023.0303030303,340.83028113254 1025.35353535354,340.83005419844 1027.67676767677,340.9513427807 1030,340.94810132837 1032.32323232323,340.94340554832 1034.64646464646,340.85663428023 1036.9696969697,340.89547813199 1039.29292929293,341.28088941719 1041.61616161616,341.28714586178 1043.93939393939,341.20103729315 1046.26262626263,341.22594069702 1048.58585858586,341.28058687404 1050.90909090909,341.25623516887 1053.23232323232,341.3124022616 1055.55555555556,341.32179764476 1057.87878787879,341.32888291229 1060.20202020202,341.28350429179 1062.52525252525,341.22521008408 1064.84848484848,340.75822928485 1067.17171717172,340.76326178697 1069.49494949495,340.83671536805 1071.81818181818,340.84476583081 1074.14141414141,340.84476583081 1076.46464646465,340.89836803599 1078.78787878788,340.89775336536 1081.11111111111,340.90410096056 1083.43434343434,340.90410096056 1085.75757575758,340.90410096056 1088.08080808081,340.90410096056 1090.40404040404,340.90410096056 1092.72727272727,340.9268109209 1095.05050505051,340.9268109209 1097.37373737374,340.9268109209 1099.69696969697,340.87730755837 1102.0202020202,340.87730755837 1104.34343434343,340.87730755837 1106.66666666667,340.87730755837 1108.9898989899,340.8049999999 1111.31313131313,340.8049999999 1113.63636363636,340.8049999999 1115.9595959596,340.8049999999 1118.28282828283,340.8049999999 1120.60606060606,340.81079319551 1122.92929292929,340.81079319551 1125.25252525253,340.81079319551 1127.57575757576,340.81079319551 1129.89898989899,340.81079319551 1132.22222222222,340.82315419499 1134.54545454545,340.82395053687 1136.86868686869,340.78936462589 1139.19191919192,340.78936462589 1141.51515151515,340.79197557784 1143.83838383838,340.79197557784 1146.16161616162,340.73598686207 1148.48484848485,340.73598686207 1150.80808080808,340.73598686207 1153.13131313131,340.73718779718 1155.45454545455,340.73718779718 1157.77777777778,340.72345365814 1160.10101010101,340.72345365814 1162.42424242424,340.72345365814 1164.74747474747,340.49189419788 1167.07070707071,340.4851964907 1169.39393939394,340.4851964907 1171.71717171717,340.4851964907 1174.0404040404,340.4851964907 1176.36363636364,340.4851964907 1178.68686868687,340.4851964907 1181.0101010101,340.4851964907 1183.33333333333,340.52701288155 1185.65656565657,340.52701288155 1187.9797979798,340.5274175976 1190.30303030303,340.5274175976 1192.62626262626,340.53510063812 1194.94949494949,340.52061800755 1197.27272727273,340.52061800755 1199.59595959596,340.30634526909 1201.91919191919,340.30634526909 1204.24242424242,340.0110728347 1206.56565656566,339.69966652338 1208.88888888889,339.81185884277 1211.21212121212,339.74914644362 1213.53535353535,340.08507157466 1215.85858585859,340.08588254546 1218.18181818182,340.08588254546 1220.50505050505,340.08628798095 1222.82828282828,340.12480339892 1225.15151515152,340.08839260193 1227.47474747475,340.09162891307 1229.79797979798,340.09162891307 1232.12121212121,340.09162891307 1234.44444444444,340.10994839168 1236.76767676768,340.10994839168 1239.09090909091,340.10994839168 1241.41414141414,340.10994839168 1243.73737373737,340.04444716295 1246.06060606061,340.04404118673 1248.38383838384,340.04992460375 1250.70707070707,340.05073556374 1253.0303030303,340.0511409944 1255.35353535354,340.0511409944 1257.67676767677,340.11715089044 1260,340.11715089044 1262.32323232323,340.11493550169 1264.64646464646,340.1155787075 1266.9696969697,340.11577983514 1269.29292929293,340.11577983514 1271.61616161616,340.13036139193 1273.93939393939,340.13036139193 1276.26262626263,340.14879321197 1278.58585858586,340.1551881529 1280.90909090909,340.82611911947 1283.23232323232,341.52584966461 1285.55555555556,341.51330299832 1287.87878787879,341.45047379781 1290.20202020202,341.45047379781 1292.52525252525,341.45047379781 1294.84848484848,341.45081205122 1297.17171717172,341.50559191781 1299.49494949495,341.50559191781 1301.81818181818,341.50559191781 1304.14141414141,341.50559191781 1306.46464646465,341.50726118651 1308.78787878788,341.51193165069 1311.11111111111,341.51226505892 1313.43434343434,341.54906620064 1315.75757575758,341.66107217863 1318.08080808081,341.6653259824 1320.40404040404,341.68034311894 1322.72727272727,341.52983462299 1325.05050505051,341.52983462299 1327.37373737374,341.53083267878 1329.69696969697,341.53083267878 1332.0202020202,341.53083267878 1334.34343434343,341.53083267878 1336.66666666667,341.53083267878 1338.9898989899,341.53083267878 1341.31313131313,341.53083267878 1343.63636363636,341.53199677962 1345.9595959596,341.53199677962 1348.28282828283,341.53199677962 1350.60606060606,341.53166421204 1352.92929292929,341.53166421204 1355.25252525253,341.53166421204 1357.57575757576,341.53166421204 1359.89898989899,341.53166421204 1362.22222222222,341.53166421204 1364.54545454545,341.53365922606 1366.86868686869,341.53365922606 1369.19191919192,341.60854120466 1371.51515151515,341.61002315446 1373.83838383838,341.41062026583 1376.16161616162,341.41062026583 1378.48484848485,341.41062026583 1380.80808080808,341.41062026583 1383.13131313131,341.4109564911 1385.45454545455,341.4109564911 1387.77777777778,341.375450133 1390.10101010101,341.375450133 1392.42424242424,341.375450133 1394.74747474747,341.375450133 1397.07070707071,341.3746060951 1399.39393939394,341.3746060951 1401.71717171717,341.3746060951 1404.0404040404,341.3746060951 1406.36363636364,341.37696898538 1408.68686868687,341.37696898538 1411.0101010101,341.33761568201 1413.33333333333,341.44951798198 1415.65656565657,341.30113233566 1417.9797979798,341.18671620998 1420.30303030303,341.18671620998 1422.62626262626,341.18671620998 1424.94949494949,341.18671620998 1427.27272727273,341.18671620998 1429.59595959596,341.18671620998 1431.91919191919,341.18671620998 1434.24242424242,341.18654564451 1436.56565656566,341.18654564451 1438.88888888889,341.18910343219 1441.21212121212,341.16428419452 1443.53535353535,341.16428419452 1445.85858585859,341.16669571784 1448.18181818182,341.16669571784 1450.50505050505,341.16669571784 1452.82828282828,341.07948286861 1455.15151515152,341.07948286861 1457.47474747475,341.07948286861 1459.79797979798,341.07948286861 1462.12121212121,341.07982762941 1464.44444444444,341.08224021027 1466.76767676768,341.08620090365 1469.09090909091,341.08861003865 1471.41414141414,341.08861003865 1473.73737373737,341.08861003865 1476.06060606061,341.10200855847 1478.38383838384,341.10200855847 1480.70707070707,341.10320902001 1483.0303030303,341.10320902001 1485.35353535354,341.26795596082 1487.67676767677,341.26795596082 1490,341.26795596082 1492.32323232323,341.26526124954 1494.64646464646,341.25886524831 1496.9696969697,341.26021273321 1499.29292929293,341.1245233852 1501.61616161616,341.12911256646 1503.93939393939,341.13182984258 1506.26262626263,341.14217420413 1508.58585858586,341.14217420413 1510.90909090909,341.11887306651 1513.23232323232,341.12602592621 1515.55555555556,341.127269944 1517.87878787879,341.127269944 1520.20202020202,341.127269944 1522.52525252525,341.12811878154 1524.84848484848,341.12811878154 1527.17171717172,341.12811878154 1529.49494949495,341.1289674567 1531.81818181818,341.1289674567 1534.14141414141,341.1289674567 1536.46464646465,341.12828852959 1538.78787878788,341.12828852959 1541.11111111111,341.12828852959 1543.43434343434,341.13168212692 1545.75757575758,341.13524261087 1548.08080808081,341.13524261087 1550.40404040404,341.13524261087 1552.72727272727,341.13524261087 1555.05050505051,341.13524261087 1557.37373737374,341.14167812932 1559.69696969697,341.14590692956 1562.0202020202,341.14742830964 1564.34343434343,341.0844485463 1566.66666666667,341.08410568001 1568.9898989899,341.08410568001 1571.31313131313,341.08547698693 1573.63636363636,341.08736184521 1575.9595959596,341.08736184521 1578.28282828283,341.0889034094 1580.60606060606,341.08770446126 1582.92929292929,341.08856088558 1585.25252525253,341.0889034094 1587.57575757576,341.08924590677 1589.89898989899,340.90926449253 1592.22222222222,341.1303249995 1594.54545454545,341.1303249995 1596.86868686869,341.1303249995 1599.19191919192,341.1303249995 1601.51515151515,341.1303249995 1603.83838383838,341.1303249995 1606.16161616162,341.1514804202 1608.48484848485,341.16042974642 1610.80808080808,341.16042974642 1613.13131313131,341.28978192904 1615.45454545455,341.28978192904 1617.77777777778,341.28978192904 1620.10101010101,341.28978192904 1622.42424242424,341.28978192904 1624.74747474747,341.28978192904 1627.07070707071,341.28978192904 1629.39393939394,341.28978192904 1631.71717171717,341.28830542633 1634.0404040404,341.28830542633 1636.36363636364,341.28830542633 1638.68686868687,341.28830542633 1641.0101010101,341.28830542633 1643.33333333333,341.28830542633 1645.65656565657,341.28830542633 1647.9797979798,341.29240558757 1650.30303030303,341.29240558757 1652.62626262626,341.29240558757 1654.94949494949,341.29240558757 1657.27272727273,341.29240558757 1659.59595959596,341.2922416553 1661.91919191919,341.2922416553 1664.24242424242,341.29420843613 1666.56565656566,341.29273343371 1668.88888888889,341.29273343371 1671.21212121212,341.29240558757 1673.53535353535,341.29240558757 1675.85858585859,341.29240558757 1678.18181818182,341.2919137719 1680.50505050505,341.2919137719 1682.82828282828,341.2919137719 1685.15151515152,341.2919137719 1687.47474747475,341.2919137719 1689.79797979798,341.2919137719 1692.12121212121,341.31937427483 1694.44444444444,341.31937427483 1696.76767676768,341.31937427483 1699.09090909091,341.31937427483 1701.41414141414,341.32310857576 1703.73737373737,341.32310857576 1706.06060606061,341.32310857576 1708.38383838384,341.28677157703 1710.70707070707,341.28677157703 1713.0303030303,341.28726008714 1715.35353535354,341.28546861576 1717.67676767677,341.28546861576 1720,341.29604391088"/>
<polyline id="series-structural-erosion" fill="none" stroke="#ffb454" stroke-width="3" points="110,421.47611514667 112.323232323232,420.98864569674 114.646464646465,421.00153048074 116.969696969697,421.00153048074 119.292929292929,422.16490975669 121.616161616162,422.03591841808 123.939393939394,421.29224779733 126.262626262626,420.31145149368 128.585858585859,420.31145149368 130.909090909091,420.31145149368 133.232323232323,420.31145149368 135.555555555556,420.21318226592 137.878787878788,420.77420276242 140.20202020202,420.6563240056 142.525252525253,420.80079638063 144.848484848485,419.75271983321 147.171717171717,419.76320916836 149.494949494949,419.58883280053 151.818181818182,421.27977427035 154.141414141414,421.2672699742 156.464646464646,421.13429727027 158.787878787879,421.99844736387 161.111111111111,421.98187929317 163.434343434343,421.59773984863 165.757575757576,421.49022239102 168.080808080808,422.56473704951 170.40404040404,422.76344227247 172.727272727273,422.8813036521 175.050505050505,422.78010272474 177.373737373737,422.75194956301 179.69696969697,422.84998520921 182.020202020202,422.79263619087 184.343434343434,421.42409985524 186.666666666667,421.26261840521 188.989898989899,421.73224991281 191.313131313131,423.12328222759 193.636363636364,424.09465220089 195.959595959596,423.82239811567 198.282828282828,422.98026941485 200.606060606061,423.03750255896 202.929292929293,423.74992323864 205.252525252525,423.35789752972 207.575757575758,423.46506973065 209.89898989899,424.17591525671 212.222222222222,423.55875674661 214.545454545455,425.64962382712 216.868686868687,425.77565749591 219.191919191919,425.77565749591 221.515151515152,425.71157819963 223.838383838384,425.75893231267 226.161616161616,427.61919929374 228.484848484848,427.18383016187 230.808080808081,426.26420635539 233.131313131313,426.89027674633 235.454545454545,426.58756627409 237.777777777778,426.58756627409 240.10101010101,426.65215861435 242.424242424242,426.65215861435 244.747474747475,426.96232236401 247.070707070707,427.05090768074 249.393939393939,429.10463638916 251.717171717172,430.00850474415 254.040404040404,431.39692776919 256.363636363636,431.69058553458 258.686868686869,431.74480000528 261.010101010101,431.59240461831 263.333333333333,432.13924809858 265.656565656566,431.48115641787 267.979797979798,432.06216634547 270.30303030303,432.05000865242 272.626262626263,432.05000865242 274.949494949495,432.06724897586 277.272727272727,432.25793901162 279.59595959596,432.3471640469 281.919191919192,432.21402394851 284.242424242424,431.92605456175 286.565656565657,432.13487871199 288.888888888889,432.38940676966 291.212121212121,432.42818042542 293.535353535354,432.32093298091 295.858585858586,432.35451947427 298.181818181818,432.43343503233 300.50505050505,432.43343503233 302.828282828283,432.9967905438 305.151515151515,432.94929757631 307.474747474747,432.49807714275 309.79797979798,433.50472755389 312.121212121212,433.49488134152 314.444444444444,433.632292559 316.767676767677,433.61397830806 319.090909090909,433.8834580882 321.414141414141,433.68044878002 323.737373737374,433.68044878002 326.060606060606,433.7145745599 328.383838383838,433.38721692081 330.707070707071,433.55223563192 333.030303030303,437.79695961648 335.353535353535,440.69416693252 337.676767676768,440.637118417 340,440.8203101556 342.323232323232,439.31447127611 344.646464646465,439.51076880065 346.969696969697,439.10278203496 349.292929292929,438.14403061422 351.616161616162,440.70883613104 353.939393939394,441.56821673649 356.262626262626,441.64284459131 358.585858585859,441.28671768788 360.909090909091,441.38535663259 363.232323232323,440.95329628693 365.555555555556,440.7674973164 367.878787878788,440.71407536958 370.20202020202,440.82759183071 372.525252525253,441.04025233219 374.848484848485,441.09094416199 377.171717171717,440.81740567972 379.494949494949,440.23357401368 381.818181818182,440.70750670896 384.141414141414,442.30553219251 386.464646464646,439.71046049637 388.787878787879,441.63466854556 391.111111111111,442.38604055761 393.434343434343,439.57308470671 395.757575757576,439.63661886274 398.080808080808,439.63399455768 400.40404040404,438.38196447641 402.727272727273,439.06867350646 405.050505050505,439.66867477832 407.373737373737,437.41129292916 409.69696969697,435.68472798202 412.020202020202,431.86706145787 414.343434343434,431.66796150661 416.666666666667,428.91553466049 418.989898989899,429.12701496343 421.313131313131,429.5127244204 423.636363636364,429.5127244204 425.959595959596,429.81475374419 428.282828282828,429.86878216766 430.606060606061,429.58766691108 432.929292929293,430.52420499944 435.252525252525,430.78468002359 437.575757575758,430.61646452592 439.89898989899,430.16783346686 442.222222222222,430.16783346686 444.545454545455,430.71003680224 446.868686868687,431.86455798354 449.191919191919,431.91874938179 451.515151515152,432.21080582646 453.838383838384,431.92013463798 456.161616161616,431.84640735989 458.484848484848,436.55797435482 460.808080808081,436.2089776945 463.131313131313,436.43602560264 465.454545454545,436.48582561894 467.777777777778,435.85135396717 470.10101010101,435.84183947828 472.424242424242,437.13783735522 474.747474747475,436.98630918854 477.070707070707,436.54764830012 479.393939393939,436.54764830012 481.717171717172,434.33261918617 484.040404040404,434.59468552581 486.363636363636,434.98441034026 488.686868686869,431.94507165566 491.010101010101,432.35927838932 493.333333333333,430.98796592954 495.656565656566,430.21602087473 497.979797979798,431.23552971187 500.30303030303,431.23552971187 502.626262626263,432.51992917181 504.949494949495,432.12179277367 507.272727272727,431.86327468612 509.59595959596,431.18718920473 511.919191919192,431.1355366831 514.242424242424,431.06776429706 516.565656565657,433.69336446429 518.888888888889,433.46500740075 521.212121212121,434.23464433679 523.535353535354,436.90580800105 525.858585858586,436.24521030842 528.181818181818,436.7089623872 530.505050505051,435.07379829742 532.828282828283,433.25824732939 535.151515151515,431.61410875231 537.474747474747,432.15086270988 539.79797979798,432.52600119021 542.121212121212,426.07368180233 544.444444444444,425.91361163023 546.767676767677,426.05555742099 549.090909090909,426.0826451919 551.414141414141,426.16788313394 553.737373737374,426.05273227924 556.060606060606,425.68738000244 558.383838383838,425.68738000244 560.707070707071,425.75009231327 563.030303030303,435.47376453439 565.353535353535,434.23516601566 567.676767676768,445.71886320557 570,447.82267273154 572.323232323232,447.74228660638 574.646464646465,445.90893213116 576.969696969697,446.25919713545 579.292929292929,445.67667778915 581.616161616162,445.00211786165 583.939393939394,443.72159977062 586.262626262626,443.72159977062 588.585858585859,443.91422073964 590.909090909091,443.42624948468 593.232323232323,444.81949483577 595.555555555556,444.9655010141 597.878787878788,444.96586328365 600.20202020202,453.65619068436 602.525252525253,453.64759172036 604.848484848485,451.56855579477 607.171717171717,451.59955076382 609.494949494949,451.53276366811 611.818181818182,451.52616457458 614.141414141414,451.58201613307 616.464646464646,451.56050910677 618.787878787879,451.95219970247 621.111111111111,452.28644146213 623.434343434343,450.31673985868 625.757575757576,449.95410748023 628.080808080808,449.92526536983 630.40404040404,449.67821407971 632.727272727273,449.64930034455 635.050505050505,449.65036600194 637.373737373737,449.80901922684 639.69696969697,449.74917968593 642.020202020202,449.71085541682 644.343434343434,449.51429430193 646.666666666667,448.81662522816 648.989898989899,448.76846292594 651.313131313131,448.28137836468 653.636363636364,448.31163100528 655.959595959596,448.31163100528 658.282828282828,448.80443108494 660.606060606061,448.87652641275 662.929292929293,448.83248928956 665.252525252525,448.83571546506 667.575757575758,447.91085058694 669.89898989899,461.89258894082 672.222222222222,462.52481920441 674.545454545455,461.16092444404 676.868686868687,461.16092444404 679.191919191919,461.16092444404 681.515151515152,461.16092444404 683.838383838384,461.18352123081 686.161616161616,461.6059899258 688.484848484848,461.6059899258 690.808080808081,461.6059899258 693.131313131313,459.8968524416 695.454545454545,459.89862376889 697.777777777778,459.89862376889 700.10101010101,459.22410147353 702.424242424242,459.25546929259 704.747474747475,459.27026896321 707.070707070707,459.27026896321 709.393939393939,459.322057574 711.717171717172,459.17871196069 714.040404040404,459.37390623871 716.363636363636,459.12572204817 718.686868686869,459.36893897195 721.010101010101,460.09372759941 723.333333333333,460.10616589729 725.656565656566,460.01145566676 727.979797979798,460.11770743161 730.30303030303,460.0667230793 732.626262626263,460.06505939109 734.949494949495,459.44402930939 737.272727272727,459.46204057098 739.59595959596,458.83110566992 741.919191919192,458.88985817563 744.242424242424,455.51149537426 746.565656565657,455.62798762668 748.888888888889,455.74931084556 751.212121212121,455.86722035683 753.535353535354,456.03378837163 755.858585858586,455.97049609372 758.181818181818,455.32702225391 760.50505050505,455.49582819769 762.828282828283,455.55942692852 765.151515151515,455.22834925356 767.474747474747,455.57724091244 769.79797979798,455.41697111874 772.121212121212,453.35013121708 774.444444444444,453.9787099687 776.767676767677,453.96594470282 779.090909090909,453.67530522536 781.414141414141,451.02858486124 783.737373737374,451.01204316303 786.060606060606,453.90366621592 788.383838383838,454.48047292204 790.707070707071,453.50512019353 793.030303030303,453.1849176134 795.353535353535,453.50630522207 797.676767676768,453.1337433816 800,452.82387785799 802.323232323232,452.76188750635 804.646464646465,452.63552877557 806.969696969697,452.24679709721 809.292929292929,452.447120835 811.616161616162,450.71416183289 813.939393939394,450.62857464413 816.262626262626,450.17806442803 818.585858585859,449.90912878971 820.909090909091,449.88499089852 823.232323232323,449.89236693688 825.555555555556,449.88306526515 827.878787878788,450.00779059918 830.20202020202,450.00960961444 832.525252525253,449.04561774398 834.848484848485,448.56106402153 837.171717171717,448.51501155301 839.49494949495,448.38328038034 841.818181818182,448.23668217557 844.141414141414,448.09444284386 846.464646464646,447.90597865771 848.787878787879,444.97492925713 851.111111111111,447.46397353502 853.434343434343,447.46397353502 855.757575757576,447.27947487731 858.080808080808,446.72139031494 860.40404040404,446.70471549641 862.727272727273,446.42535921014 865.050505050505,446.42535921014 867.373737373737,444.76452284397 869.69696969697,444.71399467021 872.020202020202,444.71399467021 874.343434343434,444.80211525055 876.666666666667,445.11945947946 878.989898989899,445.24881165863 881.313131313131,445.24913258476 883.636363636364,445.08119901902 885.959595959596,444.52079723862 888.282828282828,443.54476300424 890.606060606061,443.56857337083 892.929292929293,443.34742722635 895.252525252525,443.4438144959 897.575757575758,442.11265323318 899.89898989899,442.10394679317 902.222222222222,442.09657579917 904.545454545455,442.09657579917 906.868686868687,443.38323532191 909.191919191919,443.2971659048 911.515151515152,443.31284132066 913.838383838384,443.28299100986 916.161616161616,443.29477858829 918.484848484848,443.59113749737 920.808080808081,443.59670924208 923.131313131313,443.54620195761 925.454545454545,442.97772122458 927.777777777778,444.55386358836 930.10101010101,444.60849445382 932.424242424242,440.97488221197 934.747474747475,440.16362059192 937.070707070707,440.17881930311 939.393939393939,440.11922918064 941.717171717172,440.11265803257 944.040404040404,440.23872173568 946.363636363636,440.8760709784 948.686868686869,440.87736586943 951.010101010101,440.95071972274 953.333333333333,440.92839738922 955.656565656566,440.60231874563 957.979797979798,440.60231874563 960.30303030303,440.60231874563 962.626262626263,440.60390579554 964.949494949495,440.16999425394 967.272727272727,440.17096530198 969.59595959596,440.41208564696 971.919191919192,441.23228899863 974.242424242424,441.58875336381 976.565656565657,441.58782468982 978.888888888889,441.58876229793 981.212121212121,445.52561272011 983.535353535354,444.90736358244 985.858585858586,444.80692370438 988.181818181818,442.8135292924 990.50505050505,448.39415710587 992.828282828283,448.31649740807 995.151515151515,448.31649740807 997.474747474747,449.18652462681 999.79797979798,448.6361595227 1002.12121212121,448.6361595227 1004.44444444444,448.29852749933 1006.76767676768,449.06601199394 1009.09090909091,449.47086538499 1011.41414141414,449.68394222833 1013.73737373737,449.54954275091 1016.06060606061,449.48778076121 1018.38383838384,449.75683690941 1020.70707070707,449.70238831688 1023.0303030303,450.16912544721 1025.35353535354,450.1722950411 1027.67676767677,458.01252211004 1030,461.68326269299 1032.32323232323,467.69600672809 1034.64646464646,467.58272438534 1036.9696969697,469.25396122524 1039.29292929293,470.07657466595 1041.61616161616,470.48896484167 1043.93939393939,472.84980693602 1046.26262626263,472.65473175154 1048.58585858586,472.8580548892 1050.90909090909,469.74005944691 1053.23232323232,469.89516306985 1055.55555555556,469.55965483313 1057.87878787879,469.38405842294 1060.20202020202,468.40760498159 1062.52525252525,469.27944348069 1064.84848484848,464.8576815039 1067.17171717172,464.82778381379 1069.49494949495,464.16079801146 1071.81818181818,463.81694936225 1074.14141414141,463.81694936225 1076.46464646465,464.39409974955 1078.78787878788,464.3486411615 1081.11111111111,464.7086495447 1083.43434343434,464.7086495447 1085.75757575758,464.7086495447 1088.08080808081,464.7086495447 1090.40404040404,464.7086495447 1092.72727272727,463.77370491106 1095.05050505051,463.77370491106 1097.37373737374,463.77370491106 1099.69696969697,462.81670257339 1102.0202020202,462.81670257339 1104.34343434343,462.81670257339 1106.66666666667,462.81670257339 1108.9898989899,462.45288373097 1111.31313131313,462.45288373097 1113.63636363636,462.45288373097 1115.9595959596,462.45288373097 1118.28282828283,462.45288373097 1120.60606060606,462.27577929887 1122.92929292929,462.27577929887 1125.25252525253,462.27577929887 1127.57575757576,462.27577929887 1129.89898989899,462.27577929887 1132.22222222222,462.35861543463 1134.54545454545,462.39317287161 1136.86868686869,462.08154270727 1139.19191919192,462.08154270727 1141.51515151515,462.12382883862 1143.83838383838,462.12382883862 1146.16161616162,460.47669240382 1148.48484848485,460.47669240382 1150.80808080808,460.47669240382 1153.13131313131,460.49029941174 1155.45454545455,460.49029941174 1157.77777777778,458.46920870175 1160.10101010101,458.46920870175 1162.42424242424,458.46920870175 1164.74747474747,457.62773189246 1167.07070707071,457.57009448011 1169.39393939394,457.57009448011 1171.71717171717,457.57009448011 1174.0404040404,457.57009448011 1176.36363636364,457.57009448011 1178.68686868687,457.57009448011 1181.0101010101,457.57009448011 1183.33333333333,457.42932715162 1185.65656565657,457.42932715162 1187.9797979798,457.43579680621 1190.30303030303,457.43579680621 1192.62626262626,457.20605320423 1194.94949494949,456.99789294002 1197.27272727273,456.99789294002 1199.59595959596,455.76301105316 1201.91919191919,455.76301105316 1204.24242424242,451.68608132426 1206.56565656566,451.24981778334 1208.88888888889,452.3213724037 1211.21212121212,451.80078755561 1213.53535353535,453.71320653551 1215.85858585859,453.72734607186 1218.18181818182,453.72734607186 1220.50505050505,453.7602066866 1222.82828282828,453.65825916199 1225.15151515152,453.75499094348 1227.47474747475,453.75647015628 1229.79797979798,453.75650023223 1232.12121212121,453.75650023223 1234.44444444444,453.72821983841 1236.76767676768,453.72821983841 1239.09090909091,453.72821983841 1241.41414141414,453.72821983841 1243.73737373737,453.34032176745 1246.06060606061,453.34462857081 1248.38383838384,453.29906820431 1250.70707070707,453.30169753579 1253.0303030303,453.31479687046 1255.35353535354,453.31479687046 1257.67676767677,453.34326157685 1260,453.34326157685 1262.32323232323,453.43182439107 1264.64646464646,453.1601590817 1266.9696969697,453.1601590817 1269.29292929293,453.1601590817 1271.61616161616,453.13006899176 1273.93939393939,453.13006899176 1276.26262626263,452.84625368629 1278.58585858586,452.82907845722 1280.90909090909,452.80183237524 1283.23232323232,453.73266269528 1285.55555555556,454.52789551344 1287.87878787879,453.63787244522 1290.20202020202,453.63787244522 1292.52525252525,453.63787244522 1294.84848484848,453.63344121416 1297.17171717172,453.38358772318 1299.49494949495,453.38358772318 1301.81818181818,453.38358772318 1304.14141414141,453.38358772318 1306.46464646465,453.34973079237 1308.78787878788,453.34179668914 1311.11111111111,453.34486214248 1313.43434343434,453.00009984035 1315.75757575758,452.98765830085 1318.08080808081,453.02272545095 1320.40404040404,453.11594363261 1322.72727272727,452.98750630719 1325.05050505051,452.98750630719 1327.37373737374,453.41446990966 1329.69696969697,453.41446990966 1332.0202020202,453.41446990966 1334.34343434343,453.41446990966 1336.66666666667,453.41446990966 1338.9898989899,453.41446990966 1341.31313131313,453.41446990966 1343.63636363636,453.43360110634 1345.9595959596,453.43360110634 1348.28282828283,453.43360110634 1350.60606060606,453.42983077315 1352.92929292929,453.42983077315 1355.25252525253,453.42983077315 1357.57575757576,453.42983077315 1359.89898989899,453.42983077315 1362.22222222222,453.42983077315 1364.54545454545,453.13733127442 1366.86868686869,453.13733127442 1369.19191919192,453.83280652861 1371.51515151515,453.78449797468 1373.83838383838,453.48938507151 1376.16161616162,453.48938507151 1378.48484848485,453.48938507151 1380.80808080808,453.48938507151 1383.13131313131,453.86951476712 1385.45454545455,453.86951476712 1387.77777777778,453.72076343621 1390.10101010101,453.72076343621 1392.42424242424,453.72076343621 1394.74747474747,453.72076343621 1397.07070707071,453.80285395475 1399.39393939394,453.80285395475 1401.71717171717,453.80285395475 1404.0404040404,453.80285395475 1406.36363636364,453.81985129906 1408.68686868687,453.81985129906 1411.0101010101,454.4825041284 1413.33333333333,452.08929578499 1415.65656565657,451.1543744561 1417.9797979798,455.43169808475 1420.30303030303,455.43169808475 1422.62626262626,455.43169808475 1424.94949494949,455.43169808475 1427.27272727273,455.43169808475 1429.59595959596,455.43169808475 1431.91919191919,455.43169808475 1434.24242424242,455.43429666247 1436.56565656566,455.43429666247 1438.88888888889,455.44846992487 1441.21212121212,455.38067901233 1443.53535353535,455.38067901233 1445.85858585859,455.29161709926 1448.18181818182,455.29161709926 1450.50505050505,455.29161709926 1452.82828282828,454.61294745908 1455.15151515152,454.61294745908 1457.47474747475,454.61294745908 1459.79797979798,454.61294745908 1462.12121212121,454.62582516207 1464.44444444444,454.65697954688 1466.76767676768,454.50543122622 1469.09090909091,454.46678469675 1471.41414141414,454.46678469675 1473.73737373737,454.46678469675 1476.06060606061,453.54182067736 1478.38383838384,453.54182067736 1480.70707070707,453.56099402407 1483.0303030303,453.56099402407 1485.35353535354,453.51954741733 1487.67676767677,453.51954741733 1490,453.51954741733 1492.32323232323,453.66126086278 1494.64646464646,453.59499476353 1496.9696969697,453.55626053161 1499.29292929293,452.46884575778 1501.61616161616,452.49838925433 1503.93939393939,452.33740077227 1506.26262626263,452.32256352908 1508.58585858586,452.32256352908 1510.90909090909,452.91861169411 1513.23232323232,452.83726708903 1515.55555555556,452.53054900709 1517.87878787879,452.53054900709 1520.20202020202,452.53054900709 1522.52525252525,452.53285465589 1524.84848484848,452.53285465589 1527.17171717172,452.53285465589 1529.49494949495,452.5293483949 1531.81818181818,452.5293483949 1534.14141414141,452.5293483949 1536.46464646465,452.52570666483 1538.78787878788,452.52570666483 1541.11111111111,452.52570666483 1543.43434343434,452.47674819714 1545.75757575758,452.30474046154 1548.08080808081,452.30474046154 1550.40404040404,452.30474046154 1552.72727272727,452.30474046154 1555.05050505051,452.30474046154 1557.37373737374,452.44702478148 1559.69696969697,452.41265487891 1562.0202020202,452.34792790401 1564.34343434343,452.34792790401 1566.66666666667,452.33673500461 1568.9898989899,452.33673500461 1571.31313131313,452.38937734665 1573.63636363636,452.31227883919 1575.9595959596,452.31227883919 1578.28282828283,452.7187535007 1580.60606060606,452.76728238957 1582.92929292929,452.78869366158 1585.25252525253,452.79946080338 1587.57575757576,452.79946080338 1589.89898989899,451.44047541187 1592.22222222222,452.18518742363 1594.54545454545,452.18518742363 1596.86868686869,452.18518742363 1599.19191919192,452.18518742363 1601.51515151515,452.18518742363 1603.83838383838,452.18518742363 1606.16161616162,451.78543543833 1608.48484848485,451.68698833777 1610.80808080808,451.68698833777 1613.13131313131,459.68072022651 1615.45454545455,459.68072022651 1617.77777777778,459.68072022651 1620.10101010101,459.68072022651 1622.42424242424,459.67954351638 1624.74747474747,459.67954351638 1627.07070707071,459.67954351638 1629.39393939394,459.67954351638 1631.71717171717,459.67394646201 1634.0404040404,459.67394646201 1636.36363636364,459.67394646201 1638.68686868687,459.67394646201 1641.0101010101,459.67394646201 1643.33333333333,459.67394646201 1645.65656565657,459.67394646201 1647.9797979798,459.80954883529 1650.30303030303,459.80954883529 1652.62626262626,459.80954883529 1654.94949494949,459.80954883529 1657.27272727273,459.80954883529 1659.59595959596,459.7878215603 1661.91919191919,459.7878215603 1664.24242424242,459.70184838876 1666.56565656566,459.69628823789 1668.88888888889,459.69628823789 1671.21212121212,459.68721048404 1673.53535353535,459.68721048404 1675.85858585859,459.68721048404 1678.18181818182,459.48014362488 1680.50505050505,459.48014362488 1682.82828282828,459.48014362488 1685.15151515152,459.48014362488 1687.47474747475,459.48014362488 1689.79797979798,459.48014362488 1692.12121212121,458.26612302713 1694.44444444444,458.26612302713 1696.76767676768,458.26612302713 1699.09090909091,458.26612302713 1701.41414141414,458.24279834211 1703.73737373737,458.24279834211 1706.06060606061,458.24279834211 1708.38383838384,458.22777915144 1710.70707070707,458.22777915144 1713.0303030303,458.22905283946 1715.35353535354,458.22114042845 1717.67676767677,458.21728181321 1720,457.91754002204"/>
<polyline id="series-supported" fill="none" stroke="#9cf28a" stroke-width="3" points="110,734.933586337761 112.323232323232,734.933586337761 114.646464646465,734.933586337761 116.969696969697,734.933586337761 119.292929292929,734.933586337761 121.616161616162,734.933586337761 123.939393939394,734.933586337761 126.262626262626,734.933586337761 128.585858585859,734.933586337761 130.909090909091,734.933586337761 133.232323232323,734.933586337761 135.555555555556,734.933586337761 137.878787878788,734.933586337761 140.20202020202,734.933586337761 142.525252525253,734.933586337761 144.848484848485,734.933586337761 147.171717171717,734.933586337761 149.494949494949,734.933586337761 151.818181818182,734.933586337761 154.141414141414,734.933586337761 156.464646464646,734.933586337761 158.787878787879,734.933586337761 161.111111111111,734.933586337761 163.434343434343,734.933586337761 165.757575757576,734.060721062619 168.080808080808,733.187855787476 170.40404040404,733.187855787476 172.727272727273,733.187855787476 175.050505050505,733.187855787476 177.373737373737,733.187855787476 179.69696969697,733.187855787476 182.020202020202,733.187855787476 184.343434343434,733.187855787476 186.666666666667,733.187855787476 188.989898989899,733.187855787476 191.313131313131,733.187855787476 193.636363636364,733.187855787476 195.959595959596,733.187855787476 198.282828282828,733.187855787476 200.606060606061,732.314990512334 202.929292929293,732.314990512334 205.252525252525,732.751423149905 207.575757575758,732.751423149905 209.89898989899,732.751423149905 212.222222222222,732.751423149905 214.545454545455,731.878557874763 216.868686868687,731.878557874763 219.191919191919,731.878557874763 221.515151515152,731.878557874763 223.838383838384,731.878557874763 226.161616161616,732.314990512334 228.484848484848,732.314990512334 230.808080808081,731.442125237192 233.131313131313,731.00569259962 235.454545454545,731.00569259962 237.777777777778,731.00569259962 240.10101010101,731.878557874763 242.424242424242,731.878557874763 244.747474747475,731.878557874763 247.070707070707,731.878557874763 249.393939393939,731.00569259962 251.717171717172,731.00569259962 254.040404040404,731.00569259962 256.363636363636,731.00569259962 258.686868686869,731.00569259962 261.010101010101,731.00569259962 263.333333333333,731.00569259962 265.656565656566,731.00569259962 267.979797979798,731.00569259962 270.30303030303,731.00569259962 272.626262626263,731.00569259962 274.949494949495,731.00569259962 277.272727272727,731.00569259962 279.59595959596,731.00569259962 281.919191919192,731.00569259962 284.242424242424,731.00569259962 286.565656565657,731.00569259962 288.888888888889,731.00569259962 291.212121212121,731.00569259962 293.535353535354,731.00569259962 295.858585858586,731.00569259962 298.181818181818,731.00569259962 300.50505050505,731.00569259962 302.828282828283,730.132827324478 305.151515151515,730.132827324478 307.474747474747,729.259962049336 309.79797979798,728.387096774194 312.121212121212,728.387096774194 314.444444444444,728.387096774194 316.767676767677,728.387096774194 319.090909090909,728.387096774194 321.414141414141,729.259962049336 323.737373737374,728.823529411765 326.060606060606,728.823529411765 328.383838383838,728.823529411765 330.707070707071,728.823529411765 333.030303030303,726.204933586338 335.353535353535,725.768500948767 337.676767676768,725.768500948767 340,725.768500948767 342.323232323232,732.751423149905 344.646464646465,732.751423149905 346.969696969697,732.751423149905 349.292929292929,732.751423149905 351.616161616162,732.751423149905 353.939393939394,733.187855787476 356.262626262626,733.187855787476 358.585858585859,733.187855787476 360.909090909091,733.187855787476 363.232323232323,733.187855787476 365.555555555556,733.187855787476 367.878787878788,733.187855787476 370.20202020202,733.187855787476 372.525252525253,733.187855787476 374.848484848485,733.187855787476 377.171717171717,734.060721062619 379.494949494949,734.060721062619 381.818181818182,732.751423149905 384.141414141414,731.00569259962 386.464646464646,730.569259962049 388.787878787879,726.641366223909 391.111111111111,726.204933586338 393.434343434343,722.713472485769 395.757575757576,722.713472485769 398.080808080808,722.713472485769 400.40404040404,721.840607210626 402.727272727273,721.840607210626 405.050505050505,721.840607210626 407.373737373737,721.404174573055 409.69696969697,721.404174573055 412.020202020202,720.967741935484 414.343434343434,720.967741935484 416.666666666667,720.967741935484 418.989898989899,720.967741935484 421.313131313131,720.967741935484 423.636363636364,720.967741935484 425.959595959596,720.967741935484 428.282828282828,720.967741935484 430.606060606061,720.967741935484 432.929292929293,720.967741935484 435.252525252525,720.094876660342 437.575757575758,720.094876660342 439.89898989899,720.094876660342 442.222222222222,720.094876660342 444.545454545455,720.094876660342 446.868686868687,718.349146110057 449.191919191919,726.641366223909 451.515151515152,725.332068311195 453.838383838384,725.332068311195 456.161616161616,725.332068311195 458.484848484848,724.895635673624 460.808080808081,724.895635673624 463.131313131313,724.895635673624 465.454545454545,724.895635673624 467.777777777778,724.895635673624 470.10101010101,724.895635673624 472.424242424242,724.895635673624 474.747474747475,724.022770398482 477.070707070707,724.022770398482 479.393939393939,724.022770398482 481.717171717172,724.022770398482 484.040404040404,723.586337760911 486.363636363636,723.586337760911 488.686868686869,723.586337760911 491.010101010101,722.713472485769 493.333333333333,722.713472485769 495.656565656566,722.713472485769 497.979797979798,723.14990512334 500.30303030303,723.14990512334 502.626262626263,721.840607210626 504.949494949495,721.404174573055 507.272727272727,721.404174573055 509.59595959596,721.404174573055 511.919191919192,721.404174573055 514.242424242424,721.404174573055 516.565656565657,722.277039848197 518.888888888889,722.277039848197 521.212121212121,723.14990512334 523.535353535354,718.349146110057 525.858585858586,718.349146110057 528.181818181818,717.476280834915 530.505050505051,713.111954459203 532.828282828283,713.111954459203 535.151515151515,713.111954459203 537.474747474747,713.111954459203 539.79797979798,713.111954459203 542.121212121212,712.239089184061 544.444444444444,712.239089184061 546.767676767677,712.239089184061 549.090909090909,712.239089184061 551.414141414141,711.366223908918 553.737373737374,711.366223908918 556.060606060606,711.366223908918 558.383838383838,711.366223908918 560.707070707071,711.366223908918 563.030303030303,710.929791271347 565.353535353535,710.929791271347 567.676767676768,678.633776091082 570,677.760910815939 572.323232323232,677.760910815939 574.646464646465,677.760910815939 576.969696969697,677.760910815939 579.292929292929,677.760910815939 581.616161616162,677.760910815939 583.939393939394,677.760910815939 586.262626262626,677.760910815939 588.585858585859,677.760910815939 590.909090909091,677.760910815939 593.232323232323,676.888045540797 595.555555555556,675.142314990512 597.878787878788,675.142314990512 600.20202020202,671.214421252372 602.525252525253,671.214421252372 604.848484848485,669.905123339658 607.171717171717,669.905123339658 609.494949494949,669.905123339658 611.818181818182,669.905123339658 614.141414141414,669.905123339658 616.464646464646,669.905123339658 618.787878787879,669.905123339658 621.111111111111,669.905123339658 623.434343434343,669.905123339658 625.757575757576,669.905123339658 628.080808080808,669.905123339658 630.40404040404,669.905123339658 632.727272727273,669.905123339658 635.050505050505,669.905123339658 637.373737373737,669.905123339658 639.69696969697,669.905123339658 642.020202020202,669.905123339658 644.343434343434,669.905123339658 646.666666666667,669.905123339658 648.989898989899,669.905123339658 651.313131313131,669.905123339658 653.636363636364,669.905123339658 655.959595959596,669.905123339658 658.282828282828,669.032258064516 660.606060606061,669.032258064516 662.929292929293,669.032258064516 665.252525252525,667.722960151803 667.575757575758,668.159392789374 669.89898989899,664.667931688805 672.222222222222,664.667931688805 674.545454545455,664.667931688805 676.868686868687,664.667931688805 679.191919191919,664.667931688805 681.515151515152,664.667931688805 683.838383838384,664.667931688805 686.161616161616,664.667931688805 688.484848484848,664.667931688805 690.808080808081,664.667931688805 693.131313131313,663.358633776091 695.454545454545,663.358633776091 697.777777777778,663.358633776091 700.10101010101,663.358633776091 702.424242424242,662.92220113852 704.747474747475,662.92220113852 707.070707070707,662.92220113852 709.393939393939,662.92220113852 711.717171717172,662.92220113852 714.040404040404,662.485768500949 716.363636363636,662.485768500949 718.686868686869,662.485768500949 721.010101010101,662.485768500949 723.333333333333,662.485768500949 725.656565656566,662.485768500949 727.979797979798,662.92220113852 730.30303030303,662.92220113852 732.626262626263,662.92220113852 734.949494949495,662.92220113852 737.272727272727,662.92220113852 739.59595959596,662.92220113852 741.919191919192,662.92220113852 744.242424242424,662.92220113852 746.565656565657,662.92220113852 748.888888888889,662.92220113852 751.212121212121,662.92220113852 753.535353535354,662.92220113852 755.858585858586,663.795066413662 758.181818181818,663.795066413662 760.50505050505,663.795066413662 762.828282828283,663.795066413662 765.151515151515,661.176470588235 767.474747474747,661.176470588235 769.79797979798,660.303605313093 772.121212121212,660.303605313093 774.444444444444,660.303605313093 776.767676767677,660.303605313093 779.090909090909,659.867172675522 781.414141414141,659.867172675522 783.737373737374,659.867172675522 786.060606060606,653.757115749526 788.383838383838,652.011385199241 790.707070707071,652.011385199241 793.030303030303,652.011385199241 795.353535353535,651.138519924099 797.676767676768,651.138519924099 800,651.138519924099 802.323232323232,651.138519924099 804.646464646465,651.138519924099 806.969696969697,651.138519924099 809.292929292929,649.829222011385 811.616161616162,649.829222011385 813.939393939394,649.829222011385 816.262626262626,649.829222011385 818.585858585859,649.829222011385 820.909090909091,649.829222011385 823.232323232323,649.829222011385 825.555555555556,649.829222011385 827.878787878788,649.829222011385 830.20202020202,649.829222011385 832.525252525253,648.956356736243 834.848484848485,647.647058823529 837.171717171717,647.647058823529 839.49494949495,647.647058823529 841.818181818182,647.647058823529 844.141414141414,647.210626185958 846.464646464646,647.210626185958 848.787878787879,647.210626185958 851.111111111111,646.337760910816 853.434343434343,646.337760910816 855.757575757576,646.337760910816 858.080808080808,643.282732447818 860.40404040404,643.282732447818 862.727272727273,643.282732447818 865.050505050505,643.282732447818 867.373737373737,644.592030360531 869.69696969697,644.592030360531 872.020202020202,644.592030360531 874.343434343434,644.592030360531 876.666666666667,644.592030360531 878.989898989899,644.592030360531 881.313131313131,644.592030360531 883.636363636364,644.592030360531 885.959595959596,644.15559772296 888.282828282828,644.15559772296 890.606060606061,644.15559772296 892.929292929293,644.592030360531 895.252525252525,644.592030360531 897.575757575758,644.592030360531 899.89898989899,644.592030360531 902.222222222222,644.592030360531 904.545454545455,644.592030360531 906.868686868687,640.664136622391 909.191919191919,629.753320683112 911.515151515152,629.753320683112 913.838383838384,629.753320683112 916.161616161616,629.753320683112 918.484848484848,628.007590132827 920.808080808081,628.007590132827 923.131313131313,627.134724857685 925.454545454545,627.134724857685 927.777777777778,627.134724857685 930.10101010101,627.134724857685 932.424242424242,627.134724857685 934.747474747475,627.134724857685 937.070707070707,627.134724857685 939.393939393939,627.134724857685 941.717171717172,627.134724857685 944.040404040404,627.134724857685 946.363636363636,627.134724857685 948.686868686869,627.134724857685 951.010101010101,627.134724857685 953.333333333333,627.134724857685 955.656565656566,627.134724857685 957.979797979798,627.134724857685 960.30303030303,627.134724857685 962.626262626263,627.134724857685 964.949494949495,627.134724857685 967.272727272727,627.134724857685 969.59595959596,627.134724857685 971.919191919192,627.134724857685 974.242424242424,626.261859582543 976.565656565657,625.825426944971 978.888888888889,625.825426944971 981.212121212121,623.206831119545 983.535353535354,623.206831119545 985.858585858586,619.715370018975 988.181818181818,619.715370018975 990.50505050505,615.351043643264 992.828282828283,614.04174573055 995.151515151515,614.04174573055 997.474747474747,614.04174573055 999.79797979798,613.605313092979 1002.12121212121,613.605313092979 1004.44444444444,613.605313092979 1006.76767676768,614.04174573055 1009.09090909091,614.04174573055 1011.41414141414,614.04174573055 1013.73737373737,614.04174573055 1016.06060606061,614.04174573055 1018.38383838384,613.605313092979 1020.70707070707,613.605313092979 1023.0303030303,613.605313092979 1025.35353535354,613.605313092979 1027.67676767677,613.605313092979 1030,612.732447817837 1032.32323232323,612.732447817837 1034.64646464646,612.732447817837 1036.9696969697,611.859582542695 1039.29292929293,611.859582542695 1041.61616161616,610.986717267552 1043.93939393939,610.550284629981 1046.26262626263,610.986717267552 1048.58585858586,610.986717267552 1050.90909090909,610.11385199241 1053.23232323232,610.11385199241 1055.55555555556,610.11385199241 1057.87878787879,610.11385199241 1060.20202020202,610.11385199241 1062.52525252525,610.11385199241 1064.84848484848,602.258064516129 1067.17171717172,602.258064516129 1069.49494949495,602.258064516129 1071.81818181818,602.258064516129 1074.14141414141,602.258064516129 1076.46464646465,602.258064516129 1078.78787878788,602.258064516129 1081.11111111111,602.258064516129 1083.43434343434,602.258064516129 1085.75757575758,602.258064516129 1088.08080808081,602.258064516129 1090.40404040404,602.258064516129 1092.72727272727,601.385199240987 1095.05050505051,601.385199240987 1097.37373737374,601.385199240987 1099.69696969697,597.893738140417 1102.0202020202,597.893738140417 1104.34343434343,597.893738140417 1106.66666666667,597.893738140417 1108.9898989899,597.893738140417 1111.31313131313,597.893738140417 1113.63636363636,597.893738140417 1115.9595959596,597.893738140417 1118.28282828283,597.893738140417 1120.60606060606,597.893738140417 1122.92929292929,597.893738140417 1125.25252525253,597.893738140417 1127.57575757576,597.893738140417 1129.89898989899,597.893738140417 1132.22222222222,597.020872865275 1134.54545454545,597.020872865275 1136.86868686869,598.76660341556 1139.19191919192,598.76660341556 1141.51515151515,598.76660341556 1143.83838383838,598.76660341556 1146.16161616162,598.76660341556 1148.48484848485,598.76660341556 1150.80808080808,598.76660341556 1153.13131313131,598.76660341556 1155.45454545455,598.76660341556 1157.77777777778,598.76660341556 1160.10101010101,598.76660341556 1162.42424242424,598.76660341556 1164.74747474747,598.76660341556 1167.07070707071,598.76660341556 1169.39393939394,598.76660341556 1171.71717171717,598.76660341556 1174.0404040404,598.76660341556 1176.36363636364,598.76660341556 1178.68686868687,598.76660341556 1181.0101010101,598.76660341556 1183.33333333333,598.76660341556 1185.65656565657,598.76660341556 1187.9797979798,598.76660341556 1190.30303030303,598.76660341556 1192.62626262626,598.76660341556 1194.94949494949,598.76660341556 1197.27272727273,598.76660341556 1199.59595959596,597.020872865275 1201.91919191919,597.020872865275 1204.24242424242,595.27514231499 1206.56565656566,593.965844402277 1208.88888888889,593.965844402277 1211.21212121212,593.965844402277 1213.53535353535,593.965844402277 1215.85858585859,593.965844402277 1218.18181818182,593.965844402277 1220.50505050505,593.965844402277 1222.82828282828,593.965844402277 1225.15151515152,593.965844402277 1227.47474747475,593.965844402277 1229.79797979798,593.965844402277 1232.12121212121,593.965844402277 1234.44444444444,593.965844402277 1236.76767676768,593.965844402277 1239.09090909091,593.965844402277 1241.41414141414,593.965844402277 1243.73737373737,593.965844402277 1246.06060606061,593.965844402277 1248.38383838384,593.965844402277 1250.70707070707,593.965844402277 1253.0303030303,593.965844402277 1255.35353535354,593.965844402277 1257.67676767677,593.965844402277 1260,593.965844402277 1262.32323232323,593.965844402277 1264.64646464646,593.965844402277 1266.9696969697,593.529411764706 1269.29292929293,593.529411764706 1271.61616161616,593.529411764706 1273.93939393939,593.529411764706 1276.26262626263,593.529411764706 1278.58585858586,593.529411764706 1280.90909090909,592.656546489564 1283.23232323232,592.656546489564 1285.55555555556,591.34724857685 1287.87878787879,591.34724857685 1290.20202020202,591.34724857685 1292.52525252525,591.34724857685 1294.84848484848,591.34724857685 1297.17171717172,591.34724857685 1299.49494949495,591.34724857685 1301.81818181818,591.34724857685 1304.14141414141,591.34724857685 1306.46464646465,591.34724857685 1308.78787878788,591.34724857685 1311.11111111111,591.34724857685 1313.43434343434,591.34724857685 1315.75757575758,590.474383301708 1318.08080808081,590.037950664137 1320.40404040404,589.601518026565 1322.72727272727,589.601518026565 1325.05050505051,589.601518026565 1327.37373737374,589.601518026565 1329.69696969697,589.601518026565 1332.0202020202,589.601518026565 1334.34343434343,589.601518026565 1336.66666666667,589.601518026565 1338.9898989899,589.601518026565 1341.31313131313,589.601518026565 1343.63636363636,589.601518026565 1345.9595959596,589.601518026565 1348.28282828283,589.601518026565 1350.60606060606,589.601518026565 1352.92929292929,589.601518026565 1355.25252525253,589.601518026565 1357.57575757576,589.601518026565 1359.89898989899,589.601518026565 1362.22222222222,589.601518026565 1364.54545454545,589.601518026565 1366.86868686869,589.601518026565 1369.19191919192,589.601518026565 1371.51515151515,589.601518026565 1373.83838383838,589.601518026565 1376.16161616162,589.601518026565 1378.48484848485,589.601518026565 1380.80808080808,589.601518026565 1383.13131313131,589.601518026565 1385.45454545455,589.601518026565 1387.77777777778,589.601518026565 1390.10101010101,589.601518026565 1392.42424242424,589.601518026565 1394.74747474747,589.601518026565 1397.07070707071,589.601518026565 1399.39393939394,589.601518026565 1401.71717171717,589.601518026565 1404.0404040404,589.601518026565 1406.36363636364,589.601518026565 1408.68686868687,589.601518026565 1411.0101010101,589.601518026565 1413.33333333333,589.601518026565 1415.65656565657,588.728652751423 1417.9797979798,589.601518026565 1420.30303030303,589.601518026565 1422.62626262626,589.601518026565 1424.94949494949,589.601518026565 1427.27272727273,589.601518026565 1429.59595959596,589.601518026565 1431.91919191919,589.601518026565 1434.24242424242,589.601518026565 1436.56565656566,589.601518026565 1438.88888888889,589.601518026565 1441.21212121212,589.601518026565 1443.53535353535,589.601518026565 1445.85858585859,589.601518026565 1448.18181818182,589.601518026565 1450.50505050505,589.601518026565 1452.82828282828,589.601518026565 1455.15151515152,589.601518026565 1457.47474747475,589.601518026565 1459.79797979798,589.601518026565 1462.12121212121,589.601518026565 1464.44444444444,589.601518026565 1466.76767676768,589.601518026565 1469.09090909091,589.601518026565 1471.41414141414,589.601518026565 1473.73737373737,589.601518026565 1476.06060606061,589.601518026565 1478.38383838384,589.601518026565 1480.70707070707,589.601518026565 1483.0303030303,589.601518026565 1485.35353535354,589.601518026565 1487.67676767677,589.601518026565 1490,589.601518026565 1492.32323232323,589.601518026565 1494.64646464646,589.601518026565 1496.9696969697,589.601518026565 1499.29292929293,589.601518026565 1501.61616161616,589.601518026565 1503.93939393939,589.601518026565 1506.26262626263,588.728652751423 1508.58585858586,588.728652751423 1510.90909090909,587.855787476281 1513.23232323232,587.855787476281 1515.55555555556,586.982922201139 1517.87878787879,586.982922201139 1520.20202020202,586.982922201139 1522.52525252525,586.982922201139 1524.84848484848,586.982922201139 1527.17171717172,586.982922201139 1529.49494949495,586.982922201139 1531.81818181818,586.982922201139 1534.14141414141,586.982922201139 1536.46464646465,586.982922201139 1538.78787878788,586.982922201139 1541.11111111111,586.982922201139 1543.43434343434,586.982922201139 1545.75757575758,586.982922201139 1548.08080808081,586.982922201139 1550.40404040404,586.982922201139 1552.72727272727,586.982922201139 1555.05050505051,586.982922201139 1557.37373737374,586.982922201139 1559.69696969697,586.982922201139 1562.0202020202,586.982922201139 1564.34343434343,586.982922201139 1566.66666666667,586.982922201139 1568.9898989899,586.982922201139 1571.31313131313,586.982922201139 1573.63636363636,586.982922201139 1575.9595959596,586.982922201139 1578.28282828283,586.982922201139 1580.60606060606,586.982922201139 1582.92929292929,586.982922201139 1585.25252525253,586.982922201139 1587.57575757576,586.546489563567 1589.89898989899,586.546489563567 1592.22222222222,586.110056925996 1594.54545454545,586.110056925996 1596.86868686869,586.110056925996 1599.19191919192,586.110056925996 1601.51515151515,586.110056925996 1603.83838383838,586.110056925996 1606.16161616162,586.110056925996 1608.48484848485,586.110056925996 1610.80808080808,586.110056925996 1613.13131313131,580.872865275142 1615.45454545455,580.872865275142 1617.77777777778,580.872865275142 1620.10101010101,580.872865275142 1622.42424242424,580.872865275142 1624.74747474747,580.872865275142 1627.07070707071,580.872865275142 1629.39393939394,580.872865275142 1631.71717171717,580.872865275142 1634.0404040404,580.872865275142 1636.36363636364,580.872865275142 1638.68686868687,580.872865275142 1641.0101010101,580.872865275142 1643.33333333333,580.872865275142 1645.65656565657,580.872865275142 1647.9797979798,580.872865275142 1650.30303030303,580.872865275142 1652.62626262626,580.872865275142 1654.94949494949,580.872865275142 1657.27272727273,580.872865275142 1659.59595959596,580.872865275142 1661.91919191919,580.872865275142 1664.24242424242,580.872865275142 1666.56565656566,580.872865275142 1668.88888888889,580.872865275142 1671.21212121212,580.872865275142 1673.53535353535,580.872865275142 1675.85858585859,580.872865275142 1678.18181818182,580.436432637571 1680.50505050505,580.436432637571 1682.82828282828,580.436432637571 1685.15151515152,580.436432637571 1687.47474747475,580.436432637571 1689.79797979798,580.436432637571 1692.12121212121,580.872865275142 1694.44444444444,580.872865275142 1696.76767676768,580.872865275142 1699.09090909091,580.872865275142 1701.41414141414,580.872865275142 1703.73737373737,580.872865275142 1706.06060606061,580.872865275142 1708.38383838384,580 1710.70707070707,580 1713.0303030303,580 1715.35353535354,580 1717.67676767677,580 1720,580"/>
<g font-family="Segoe UI, sans-serif" font-size="18" fill="#d7e0ea">
<text x="110" y="80">Code-quality history</text>
<text x="110" y="115">verbosity</text><text x="110" y="345">structural erosion</text><text x="110" y="575">supported files</text>
<text x="110" y="850" text-anchor="middle">2024-10-02</text>
<text x="244.747474747475" y="850" text-anchor="middle">2025-11-16</text>
<text x="379.494949494949" y="850" text-anchor="middle">2026-01-18</text>
<text x="514.242424242424" y="850" text-anchor="middle">2026-02-22</text>
<text x="648.989898989899" y="850" text-anchor="middle">2026-03-16</text>
<text x="783.737373737374" y="850" text-anchor="middle">2026-04-06</text>
<text x="918.484848484848" y="850" text-anchor="middle">2026-05-10</text>
<text x="1053.23232323232" y="850" text-anchor="middle">2026-07-03</text>
<text x="1187.9797979798" y="850" text-anchor="middle">2026-07-12</text>
<text x="1322.72727272727" y="850" text-anchor="middle">2026-07-25</text>
<text x="1457.47474747475" y="850" text-anchor="middle">2026-08-02</text>
<text x="1592.22222222222" y="850" text-anchor="middle">2026-08-10</text>
<text x="1720" y="850" text-anchor="middle">2026-08-25</text>
</g>
</svg>
