<?xml version="1.0" encoding="UTF-8"?>
<svg xmlns="http://www.w3.org/2000/svg" width="1800" height="1150" viewBox="0 0 1800 1150">
<title>Broken Engine code-quality history</title>
<desc>seriesDigest=63c2701f7e8dbf86d6033671a6f3c49b96a2de6d332aeac152242dc80d89dd2b generatorDigest=0d7aa8062977b6c58b0806bd9b67d70eafdf2b9b88b114953a683fc229af5840 captureDigest= identityDigest= scbDigest=</desc>
<rect width="1800" height="1150" fill="#10151c"/>
<g fill="none" stroke="#384555" stroke-width="1">
<line x1="110" y1="120" x2="1720" y2="120"/>
<line x1="110" y1="350" x2="1720" y2="350"/>
<line x1="110" y1="580" x2="1720" y2="580"/>
<line x1="110" y1="810" x2="1720" y2="810"/>
</g>
<polyline id="series-verbosity" fill="none" stroke="#65d6ff" stroke-width="3" points="110,342.38781418597 111.744312026002,342.3853090239 113.488624052004,342.38781418597 115.232936078007,342.38931649238 116.977248104009,342.40231168328 118.721560130011,342.61086656585 120.465872156013,342.44393442632 122.210184182015,342.53638389922 123.954496208017,342.53638389922 125.69880823402,342.52020235203 127.443120260022,342.52167630059 129.187432286024,342.52167630059 130.931744312026,342.44690613534 132.676056338028,342.61911011936 134.42036836403,342.50261301279 136.164680390033,342.16179513706 137.908992416035,342.16078127015 139.653304442037,342.19204655682 141.397616468039,342.34508751768 143.141928494041,341.75862506334 144.886240520043,341.75182481756 146.630552546046,342.39077978159 148.374864572048,342.48366013074 150.11917659805,342.27454211295 151.863488624052,342.09252354179 153.607800650054,342.10449927425 155.352112676056,342.10798536654 157.096424702058,342.0460261569 158.840736728061,342.13081761006 160.585048754063,342.13378599282 162.329360780065,342.02998991934 164.073672806067,342.02697592344 165.817984832069,342.15185091916 167.562296858072,342.14393748419 169.306608884074,341.87740430098 171.050920910076,341.66645625553 172.795232936078,341.72236503848 174.53954496208,341.70155258021 176.283856988082,341.60278527066 178.028169014085,341.60015060249 179.772481040087,341.67146974056 181.516793066089,341.54829545454 183.261105092091,341.54777345436 185.005417118093,341.45414146406 186.749729144095,341.37269418215 188.494041170097,341.46730757371 190.2383531961,341.491427518 191.982665222102,341.491427518 193.726977248104,341.45097554948 195.471289274106,341.45150336475 197.215601300108,341.47203744758 198.95991332611,341.72528899053 200.704225352113,341.454095827 202.448537378115,341.46570352542 204.192849404117,341.4514533087 205.937161430119,341.4514533087 207.681473456121,341.36343952978 209.425785482124,341.36343952978 211.170097508126,341.18161117598 212.914409534128,340.9372716199 214.65872156013,339.88404099558 216.403033586132,341.05302942206 218.147345612134,340.6829771385 219.891657638137,340.69949668265 221.635969664139,340.70321879818 223.380281690141,340.10794841196 225.124593716143,340.46665910641 226.868905742145,340.41666666659 228.613217768147,340.34593498233 230.35752979415,340.23951758344 232.101841820152,340.24116752133 233.846153846154,340.35408691741 235.590465872156,340.36818437319 237.334777898158,340.44253261356 239.07908992416,340.39194796445 240.823401950163,340.72894351112 242.567713976165,340.72423712554 244.312026002167,340.34683386994 246.056338028169,340.25060676181 247.800650054171,340.34301537061 249.544962080173,340.34574317843 251.289274106176,340.23762488009 253.033586132178,340.23762488009 254.77789815818,339.85067974145 256.522210184182,339.91362977821 258.266522210184,339.82823043896 260.010834236186,339.85070515645 261.755146262189,339.76904420684 263.499458288191,339.19718077204 265.243770314193,339.19718077204 266.988082340195,338.96678966785 268.732394366197,339.06334566747 270.476706392199,339.06817554511 272.221018418202,339.07300115878 273.965330444204,338.86667768055 275.709642470206,338.71374527118 277.453954496208,337.63927280458 279.19826652221,336.29370996536 280.942578548212,336.4684656416 282.686890574215,336.26883633315 284.431202600217,336.10694022578 286.175514626219,336.31092868145 287.919826652221,336.25193420815 289.664138678223,336.42493565921 291.408450704225,336.37798393485 293.152762730228,335.66517607593 294.89707475623,335.62983301576 296.641386782232,335.83244426984 298.385698808234,335.52104938607 300.130010834236,335.61614691222 301.874322860238,335.69433538968 303.618634886241,335.9383580835 305.362946912243,335.94229691883 307.107258938245,334.51675977658 308.851570964247,334.52886010947 310.595882990249,334.2742748347 312.340195016251,334.31701605716 314.084507042254,334.4702699718 315.828819068256,334.89637027502 317.573131094258,334.70751331948 319.31744312026,335.81215532446 321.061755146262,336.19129757395 322.806067172264,335.50154151057 324.550379198267,335.50233966416 326.294691224269,335.50313772989 328.039003250271,335.7849042271 329.783315276273,335.96302502828 331.527627302275,336.21615779509 333.271939328277,337.41577273453 335.01625135428,336.9213519141 336.760563380282,336.36349339481 338.504875406284,336.61866359454 340.249187432286,336.70983512764 341.993499458288,336.65407112164 343.73781148429,336.55674052595 345.482123510293,336.55674052595 347.226435536295,336.57758709805 348.970747562297,336.42307493667 350.715059588299,336.44363859244 352.459371614301,336.62399838727 354.203683640303,336.69640619515 355.947995666306,336.70773237173 357.692307692308,336.71239048813 359.43661971831,336.71239048813 361.180931744312,336.75543942506 362.925243770314,337.14787208471 364.669555796316,337.15651881396 366.413867822319,337.20390020086 368.158179848321,337.50704023674 369.902491874323,337.16197552026 371.646803900325,336.25093843833 373.391115926327,336.64653971207 375.135427952329,336.44551519648 376.879739978332,336.33558163165 378.624052004334,336.49182750014 380.368364030336,336.49182750014 382.112676056338,336.39716703448 383.85698808234,335.4891577266 385.601300108342,335.5501233666 387.345612134345,335.5501233666 389.089924160347,335.46763570292 390.834236186349,335.46433439355 392.578548212351,335.46472261101 394.322860238353,334.24671474706 396.067172264355,334.03369498098 397.811484290358,334.06168435695 399.55579631636,334.06644605063 401.300108342362,333.52367926148 403.044420368364,333.52367926148 404.788732394366,333.8141412461 406.533044420368,333.7126911947 408.277356446371,333.68801056193 410.021668472373,333.50047303681 411.765980498375,333.50929123497 413.510292524377,333.52013147077 415.254604550379,332.61122968308 416.998916576381,332.65756691207 418.743228602384,332.49083054854 420.487540628386,331.88948715009 422.231852654388,332.00981502465 423.97616468039,332.14868574439 425.720476706392,332.22015550026 427.464788732394,331.40744027814 429.209100758397,331.27383455372 430.953412784399,331.46486701072 432.697724810401,331.49158528226 434.442036836403,330.77751657829 436.186348862405,330.77819100407 437.930660888407,330.75185328317 439.67497291441,330.76739450967 441.419284940412,330.85342839178 443.163596966414,330.80995364734 444.907908992416,330.83666585516 446.652221018418,330.83666585516 448.39653304442,330.85198054201 450.140845070423,333.33955158204 451.885157096425,333.03245543093 453.629469122427,333.42902263544 455.373781148429,333.30893221656 457.118093174431,333.38378529888 458.862405200433,332.9365303243 460.606717226436,332.96175982493 462.351029252438,332.85332489364 464.09534127844,332.96834931665 465.839653304442,332.97341843178 467.583965330444,332.97341843178 469.328277356446,333.01488877222 471.072589382449,333.02083698116 472.816901408451,333.24126641367 474.561213434453,333.28086451938 476.305525460455,333.28086451938 478.049837486457,330.31848667229 479.794149512459,330.31510147916 481.538461538462,332.18949044597 483.282773564464,332.19318889726 485.027085590466,332.18887388796 486.771397616468,332.1901069612 488.51570964247,332.19996540382 490.260021668472,332.09964165184 492.004333694475,332.16788548843 493.748645720477,332.60550966082 495.492957746479,332.68561584838 497.237269772481,332.58882201197 498.981581798483,332.62348539454 500.725893824485,332.61041009464 502.470205850488,332.6169665809 504.21451787649,332.6169665809 505.958829902492,332.78847143599 507.703141928494,332.77526084572 509.447453954496,332.77526084572 511.191765980498,333.22990756973 512.936078006501,333.25005147918 514.680390032503,333.24947661051 516.424702058505,333.27416038393 518.169014084507,333.29133858276 519.913326110509,333.29133858276 521.657638136511,333.75296590061 523.401950162513,333.75794026218 525.146262188516,333.78259842786 526.890574214518,334.35711637615 528.63488624052,336.60512472435 530.379198266522,340.15878978293 532.123510292524,339.58244869065 533.867822318527,339.17710496352 535.612134344529,339.17710496352 537.356446370531,339.17710496352 539.100758396533,339.17710496352 540.845070422535,339.17782987269 542.589382448537,339.17637995706 544.333694474539,339.17637995706 546.078006500542,339.17637995706 547.822318526544,339.36434004623 549.566630552546,339.36719037896 551.310942578548,339.36719037896 553.05525460455,339.37217478647 554.799566630553,339.66950459202 556.543878656555,339.63575493804 558.288190682557,339.63575493804 560.032502708559,339.63748953985 561.776814734561,339.64442214419 563.521126760563,339.64418728383 565.265438786565,339.84466917836 567.009750812568,339.89161777863 568.75406283857,339.82795341109 570.498374864572,339.5589550014 572.242686890574,339.58928984124 573.986998916576,339.5944429779 575.731310942579,339.55786350144 577.475622968581,339.55648618347 579.219934994583,339.56921252852 580.964247020585,339.57539251513 582.708559046587,339.59628145323 584.452871072589,339.59833158169 586.197183098591,339.49819506328 587.941495124594,339.45481702763 589.685807150596,339.40126561749 591.430119176598,339.42631442621 593.1744312026,339.42186234818 594.918743228602,339.45323647683 596.663055254605,339.39275188643 598.407367280607,339.39961808586 600.151679306609,339.3985887227 601.895991332611,339.01744719936 603.640303358613,339.11371607319 605.384615384615,339.10666708471 607.128927410618,339.00267363052 608.87323943662,339.20921044502 610.617551462622,339.21020956134 612.361863488624,339.32942648714 614.106175514626,339.23365731062 615.850487540628,339.23626456785 617.594799566631,339.39921090398 619.339111592633,339.41597779703 621.083423618635,339.19003390821 622.827735644637,339.19704157696 624.572047670639,339.31280521675 626.316359696641,339.31686641323 628.060671722644,339.24652502287 629.804983748646,339.24684102263 631.549295774648,339.20419186296 633.29360780065,339.21969808001 635.037919826652,339.30465887274 636.782231852654,339.24898100772 638.526543878657,339.25519313545 640.270855904659,339.26170814811 642.015167930661,339.26759587924 643.759479956663,339.27069209232 645.503791982665,339.27038255142 647.248104008667,339.2778066078 648.99241603467,339.29478138221 650.736728060672,339.29755395677 652.481040086674,339.31231679979 654.225352112676,339.27780150939 655.969664138678,339.30795946244 657.71397616468,339.30643737718 659.458288190683,339.31615432702 661.202600216685,339.27585816878 662.946912242687,339.25451828463 664.691224268689,339.36360326032 666.435536294691,339.3318217444 668.179848320693,339.3318217444 669.924160346696,339.26834047089 671.668472372698,338.86499833532 673.4127843987,338.9024152979 675.157096424702,338.86231038512 676.901408450704,338.86231038512 678.645720476706,338.8556108131 680.390032502709,338.86819126823 682.134344528711,338.86819126823 683.878656554713,338.88719681039 685.622968580715,338.92493638684 687.367280606717,338.913445355 689.111592632719,338.9158919754 690.855904658722,338.92780380259 692.600216684724,339.03835661275 694.344528710726,338.93253583363 696.088840736728,338.95307247544 697.83315276273,338.98240532143 699.577464788732,339.04966278347 701.321776814735,339.06450155478 703.066088840737,339.01228972835 704.810400866739,338.96617893988 706.554712892741,338.96441423429 708.299024918743,339.33957732945 710.043336944745,339.35519970156 711.787648970748,339.44802428376 713.53196099675,339.48924731187 715.276273022752,339.49232365686 717.020585048754,339.5734798418 718.764897074756,339.55018221467 720.509209100758,339.56504526386 722.253521126761,339.61610265313 723.997833152763,339.71344890377 725.742145178765,339.72483592938 727.486457204767,339.78376268539 729.230769230769,339.80551516401 730.975081256771,339.83691853693 732.719393282774,339.83849677761 734.463705308776,339.84270302428 736.208017334778,339.98151426786 737.95232936078,339.97942708341 739.696641386782,339.97968802899 741.440953412784,339.97472773698 743.185265438787,339.99974011117 744.929577464789,339.99948020887 746.673889490791,339.99948020887 748.418201516793,339.99948020887 750.162513542795,340.00259814499 751.906825568797,340.01349562687 753.6511375948,340.0347033383 755.395449620802,340.01479136384 757.139761646804,340.1230657388 758.884073672806,340.17702105539 760.628385698808,340.04924584247 762.37269772481,340.05027198425 764.117009750813,340.71476234477 765.861321776815,340.75321042587 767.605633802817,340.75186060095 769.349945828819,340.57662245969 771.094257854821,340.64443723979 772.838569880823,340.36376746722 774.582881906826,340.36376746722 776.327193932828,340.30103387863 778.07150595883,340.36213140201 779.815817984832,340.36213140201 781.560130010834,340.3808516915 783.304442036836,340.492092261 785.048754062839,340.49539599411 786.793066088841,340.50655586804 788.537378114843,340.50340979533 790.281690140845,340.54395590745 792.026002166847,340.44773902926 793.770314192849,340.44821185498 795.514626218852,340.83028113254 797.258938244854,340.83005419844 799.003250270856,340.9513427807 800.747562296858,340.94810132837 802.49187432286,340.94340554832 804.236186348862,340.85663428023 805.980498374865,340.89547813199 807.724810400867,341.28088941719 809.469122426869,341.28714586178 811.213434452871,341.20103729315 812.957746478873,341.22594069702 814.702058504875,341.28058687404 816.446370530878,341.25623516887 818.19068255688,341.3124022616 819.934994582882,341.32179764476 821.679306608884,341.32888291229 823.423618634886,341.28350429179 825.167930660888,341.22521008408 826.912242686891,340.75822928485 828.656554712893,340.76326178697 830.400866738895,340.83671536805 832.145178764897,340.84476583081 833.889490790899,340.84476583081 835.633802816901,340.89836803599 837.378114842904,340.89775336536 839.122426868906,340.90410096056 840.866738894908,340.90410096056 842.61105092091,340.90410096056 844.355362946912,340.90410096056 846.099674972914,340.90410096056 847.843986998917,340.9268109209 849.588299024919,340.9268109209 851.332611050921,340.9268109209 853.076923076923,340.87730755837 854.821235102925,340.87730755837 856.565547128927,340.87730755837 858.30985915493,340.87730755837 860.054171180932,340.8049999999 861.798483206934,340.8049999999 863.542795232936,340.8049999999 865.287107258938,340.8049999999 867.03141928494,340.8049999999 868.775731310943,340.81079319551 870.520043336945,340.81079319551 872.264355362947,340.81079319551 874.008667388949,340.81079319551 875.752979414951,340.81079319551 877.497291440953,340.82315419499 879.241603466956,340.82395053687 880.985915492958,340.78936462589 882.73022751896,340.78936462589 884.474539544962,340.79197557784 886.218851570964,340.79197557784 887.963163596966,340.73598686207 889.707475622969,340.73598686207 891.451787648971,340.73598686207 893.196099674973,340.73718779718 894.940411700975,340.73718779718 896.684723726977,340.72345365814 898.429035752979,340.72345365814 900.173347778982,340.72345365814 901.917659804984,340.49189419788 903.661971830986,340.4851964907 905.406283856988,340.4851964907 907.15059588299,340.4851964907 908.894907908992,340.4851964907 910.639219934995,340.4851964907 912.383531960997,340.4851964907 914.127843986999,340.4851964907 915.872156013001,340.52701288155 917.616468039003,340.52701288155 919.360780065005,340.5274175976 921.105092091008,340.5274175976 922.84940411701,340.53510063812 924.593716143012,340.52061800755 926.338028169014,340.52061800755 928.082340195016,340.30634526909 929.826652221018,340.30634526909 931.570964247021,340.0110728347 933.315276273023,339.69966652338 935.059588299025,339.81185884277 936.803900325027,339.74914644362 938.548212351029,340.08507157466 940.292524377031,340.08588254546 942.036836403034,340.08588254546 943.781148429036,340.08628798095 945.525460455038,340.12480339892 947.26977248104,340.08839260193 949.014084507042,340.09162891307 950.758396533044,340.09162891307 952.502708559047,340.09162891307 954.247020585049,340.10994839168 955.991332611051,340.10994839168 957.735644637053,340.10994839168 959.479956663055,340.10994839168 961.224268689057,340.04444716295 962.96858071506,340.04404118673 964.712892741062,340.04992460375 966.457204767064,340.05073556374 968.201516793066,340.0511409944 969.945828819068,340.0511409944 971.69014084507,340.11715089044 973.434452871073,340.11715089044 975.178764897075,340.11493550169 976.923076923077,340.1155787075 978.667388949079,340.11577983514 980.411700975081,340.11577983514 982.156013001083,340.13036139193 983.900325027086,340.13036139193 985.644637053088,340.14879321197 987.38894907909,340.1551881529 989.133261105092,340.82611911947 990.877573131094,341.52584966461 992.621885157096,341.51330299832 994.366197183099,341.45047379781 996.110509209101,341.45047379781 997.854821235103,341.45047379781 999.599133261105,341.45081205122 1001.34344528711,341.50559191781 1003.08775731311,341.50559191781 1004.83206933911,341.50559191781 1006.57638136511,341.50559191781 1008.32069339112,341.50726118651 1010.06500541712,341.51193165069 1011.80931744312,341.51226505892 1013.55362946912,341.54906620064 1015.29794149512,341.66107217863 1017.04225352113,341.6653259824 1018.78656554713,341.68034311894 1020.53087757313,341.52983462299 1022.27518959913,341.52983462299 1024.01950162514,341.53083267878 1025.76381365114,341.53083267878 1027.50812567714,341.53083267878 1029.25243770314,341.53083267878 1030.99674972914,341.53083267878 1032.74106175515,341.53083267878 1034.48537378115,341.53083267878 1036.22968580715,341.53199677962 1037.97399783315,341.53199677962 1039.71830985915,341.53199677962 1041.46262188516,341.53166421204 1043.20693391116,341.53166421204 1044.95124593716,341.53166421204 1046.69555796316,341.53166421204 1048.43986998917,341.53166421204 1050.18418201517,341.53166421204 1051.92849404117,341.53365922606 1053.67280606717,341.53365922606 1055.41711809317,341.60854120466 1057.16143011918,341.61002315446 1058.90574214518,341.41062026583 1060.65005417118,341.41062026583 1062.39436619718,341.41062026583 1064.13867822319,341.41062026583 1065.88299024919,341.4109564911 1067.62730227519,341.4109564911 1069.37161430119,341.375450133 1071.11592632719,341.375450133 1072.8602383532,341.375450133 1074.6045503792,341.375450133 1076.3488624052,341.3746060951 1078.0931744312,341.3746060951 1079.8374864572,341.3746060951 1081.58179848321,341.3746060951 1083.32611050921,341.37696898538 1085.07042253521,341.37696898538 1086.81473456121,341.33761568201 1088.55904658722,341.44951798198 1090.30335861322,341.30113233566 1092.04767063922,341.18671620998 1093.79198266522,341.18671620998 1095.53629469122,341.18671620998 1097.28060671723,341.18671620998 1099.02491874323,341.18671620998 1100.76923076923,341.18671620998 1102.51354279523,341.18671620998 1104.25785482124,341.18654564451 1106.00216684724,341.18654564451 1107.74647887324,341.18910343219 1109.49079089924,341.16428419452 1111.23510292524,341.16428419452 1112.97941495125,341.16669571784 1114.72372697725,341.16669571784 1116.46803900325,341.16669571784 1118.21235102925,341.07948286861 1119.95666305525,341.07948286861 1121.70097508126,341.07948286861 1123.44528710726,341.07948286861 1125.18959913326,341.07982762941 1126.93391115926,341.08224021027 1128.67822318527,341.08620090365 1130.42253521127,341.08861003865 1132.16684723727,341.08861003865 1133.91115926327,341.08861003865 1135.65547128927,341.10200855847 1137.39978331528,341.10200855847 1139.14409534128,341.10320902001 1140.88840736728,341.10320902001 1142.63271939328,341.26795596082 1144.37703141929,341.26795596082 1146.12134344529,341.26795596082 1147.86565547129,341.26526124954 1149.60996749729,341.25886524831 1151.35427952329,341.26021273321 1153.0985915493,341.1245233852 1154.8429035753,341.12911256646 1156.5872156013,341.13182984258 1158.3315276273,341.14217420413 1160.0758396533,341.14217420413 1161.82015167931,341.11887306651 1163.56446370531,341.12602592621 1165.30877573131,341.127269944 1167.05308775731,341.127269944 1168.79739978332,341.127269944 1170.54171180932,341.12811878154 1172.28602383532,341.12811878154 1174.03033586132,341.12811878154 1175.77464788732,341.1289674567 1177.51895991333,341.1289674567 1179.26327193933,341.1289674567 1181.00758396533,341.12828852959 1182.75189599133,341.12828852959 1184.49620801733,341.12828852959 1186.24052004334,341.13168212692 1187.98483206934,341.13524261087 1189.72914409534,341.13524261087 1191.47345612134,341.13524261087 1193.21776814735,341.13524261087 1194.96208017335,341.13524261087 1196.70639219935,341.14167812932 1198.45070422535,341.14590692956 1200.19501625135,341.14742830964 1201.93932827736,341.0844485463 1203.68364030336,341.08410568001 1205.42795232936,341.08410568001 1207.17226435536,341.08547698693 1208.91657638137,341.08736184521 1210.66088840737,341.08736184521 1212.40520043337,341.0889034094 1214.14951245937,341.08770446126 1215.89382448537,341.08856088558 1217.63813651138,341.0889034094 1219.38244853738,341.08924590677 1221.12676056338,340.90926449253 1222.87107258938,341.1303249995 1224.61538461538,341.1303249995 1226.35969664139,341.1303249995 1228.10400866739,341.1303249995 1229.84832069339,341.1303249995 1231.59263271939,341.1303249995 1233.3369447454,341.1514804202 1235.0812567714,341.16042974642 1236.8255687974,341.16042974642 1238.5698808234,341.28978192904 1240.3141928494,341.28978192904 1242.05850487541,341.28978192904 1243.80281690141,341.28978192904 1245.54712892741,341.28978192904 1247.29144095341,341.28978192904 1249.03575297941,341.28978192904 1250.78006500542,341.28978192904 1252.52437703142,341.28830542633 1254.26868905742,341.28830542633 1256.01300108342,341.28830542633 1257.75731310943,341.28830542633 1259.50162513543,341.28830542633 1261.24593716143,341.28830542633 1262.99024918743,341.28830542633 1264.73456121343,341.29240558757 1266.47887323944,341.29240558757 1268.22318526544,341.29240558757 1269.96749729144,341.29240558757 1271.71180931744,341.29240558757 1273.45612134345,341.2922416553 1275.20043336945,341.2922416553 1276.94474539545,341.29420843613 1278.68905742145,341.29273343371 1280.43336944745,341.29273343371 1282.17768147346,341.29240558757 1283.92199349946,341.29240558757 1285.66630552546,341.29240558757 1287.41061755146,341.2919137719 1289.15492957746,341.2919137719 1290.89924160347,341.2919137719 1292.64355362947,341.2919137719 1294.38786565547,341.2919137719 1296.13217768147,341.2919137719 1297.87648970748,341.31937427483 1299.62080173348,341.31937427483 1301.36511375948,341.31937427483 1303.10942578548,341.31937427483 1304.85373781148,341.32310857576 1306.59804983749,341.32310857576 1308.34236186349,341.32310857576 1310.08667388949,341.28677157703 1311.83098591549,341.28677157703 1313.5752979415,341.28726008714 1315.3196099675,341.28546861576 1317.0639219935,341.28546861576 1318.8082340195,341.29604391088 1320.5525460455,341.29588140852 1322.29685807151,341.29425605027 1324.04117009751,341.29441861335 1325.78548212351,341.29051542158 1327.52979414951,341.293605737 1329.27410617551,341.29393090571 1331.01841820152,341.29409348098 1332.76273022752,341.28787878783 1334.50704225352,341.28804134861 1336.25135427952,341.28852899461 1337.99566630553,341.28917910456 1339.73997833153,341.28950412308 1341.48429035753,341.29031656312 1343.22860238353,341.29064149677 1344.97291440953,341.30497221073 1346.71722643554,341.31015843427 1348.46153846154,341.31032040418 1350.20585048754,341.31032040418 1351.95016251354,341.31032040418 1353.69447453954,341.31032040418 1355.43878656555,341.30870043437 1357.18309859155,341.3517393088 1358.92741061755,341.35206174028 1360.67172264355,341.35351238524 1362.41603466956,341.35544582136 1364.16034669556,341.35914915808 1365.90465872156,341.36124094529 1367.64897074756,341.36172352163 1369.39328277356,341.3623668728 1371.13759479957,341.36510004652 1372.88190682557,341.37136373772 1374.62621885157,341.35933344489 1376.37053087757,341.35949414175 1378.11484290358,341.35949414175 1379.85915492958,341.36254624543 1381.60346695558,341.36383069699 1383.34777898158,341.36415175008 1385.09209100758,341.36415175008 1386.83640303359,341.36623801384 1388.58071505959,341.36623801384 1390.32502708559,341.36623801384 1392.06933911159,341.37104862369 1393.81365113759,341.37297136711 1395.5579631636,341.37281117119 1397.3022751896,341.37313155705 1399.0465872156,341.40123009447 1400.7908992416,341.40123009447 1402.53521126761,341.42846526847 1404.27952329361,341.42766898294 1406.02383531961,341.42766898294 1407.76814734561,341.42766898294 1409.51245937161,341.43021657564 1411.25677139762,341.43021657564 1413.00108342362,341.3889303019 1414.74539544962,341.39069516136 1416.48970747562,341.39133674889 1418.23401950163,341.39197824097 1419.97833152763,341.39197824097 1421.72264355363,341.39149713088 1423.46695557963,341.39213859904 1425.21126760563,341.39213859904 1426.95557963164,341.3955047392 1428.69989165764,341.3988682477 1430.44420368364,341.3988682477 1432.18851570964,341.3988682477 1433.93282773564,341.3988682477 1435.67713976165,341.39982876703 1437.42145178765,341.39982876703 1439.16576381365,341.39982876703 1440.91007583965,341.39982876703 1442.65438786566,341.3977473703 1444.39869989166,341.3977473703 1446.14301191766,341.3977473703 1447.88732394366,341.39822778211 1449.63163596966,341.40350877186 1451.37594799567,341.40350877186 1453.12026002167,341.40350877186 1454.86457204767,341.40350877186 1456.60888407367,341.40350877186 1458.35319609967,341.40350877186 1460.09750812568,341.40350877186 1461.84182015168,341.40350877186 1463.58613217768,341.40350877186 1465.33044420368,341.40350877186 1467.07475622969,341.40350877186 1468.81906825569,341.40350877186 1470.56338028169,341.40350877186 1472.30769230769,341.40350877186 1474.05200433369,341.40350877186 1475.7963163597,341.40350877186 1477.5406283857,341.40350877186 1479.2849404117,341.40350877186 1481.0292524377,341.40350877186 1482.77356446371,341.40350877186 1484.51787648971,341.40350877186 1486.26218851571,341.40350877186 1488.00650054171,341.40350877186 1489.75081256771,341.40510779189 1491.49512459372,341.40574723329 1493.23943661972,341.40574723329 1494.98374864572,341.40766498686 1496.72806067172,341.40766498686 1498.47237269772,341.40814429145 1500.21668472373,341.40862354268 1501.96099674973,341.40862354268 1503.70530877573,341.40862354268 1505.44962080173,341.40862354268 1507.19393282774,341.40862354268 1508.93824485374,341.40862354268 1510.68255687974,341.40862354268 1512.42686890574,341.40862354268 1514.17118093174,341.40862354268 1515.91549295775,341.40862354268 1517.65980498375,341.40862354268 1519.40411700975,341.40862354268 1521.14842903575,341.40862354268 1522.89274106176,341.40862354268 1524.63705308776,341.40862354268 1526.38136511376,341.40862354268 1528.12567713976,341.40862354268 1529.86998916576,341.40862354268 1531.61430119177,341.40862354268 1533.35861321777,341.40862354268 1535.10292524377,341.40862354268 1536.84723726977,341.40862354268 1538.59154929577,341.40862354268 1540.33586132178,341.40862354268 1542.08017334778,341.40862354268 1543.82448537378,341.40862354268 1545.56879739978,341.40862354268 1547.31310942579,341.40862354268 1549.05742145179,341.40862354268 1550.80173347779,341.40862354268 1552.54604550379,341.40862354268 1554.29035752979,341.40862354268 1556.0346695558,341.40862354268 1557.7789815818,341.40862354268 1559.5232936078,341.40862354268 1561.2676056338,341.40862354268 1563.01191765981,341.40862354268 1564.75622968581,341.40862354268 1566.50054171181,341.40862354268 1568.24485373781,341.40862354268 1569.98916576381,341.40862354268 1571.73347778982,341.40862354268 1573.47778981582,341.40862354268 1575.22210184182,341.40862354268 1576.96641386782,341.40862354268 1578.71072589382,341.40862354268 1580.45503791983,341.40862354268 1582.19934994583,341.40862354268 1583.94366197183,341.40862354268 1585.68797399783,341.40862354268 1587.43228602384,341.40862354268 1589.17659804984,341.40862354268 1590.92091007584,341.40862354268 1592.66522210184,341.40862354268 1594.40953412784,341.40862354268 1596.15384615385,341.40862354268 1597.89815817985,341.40862354268 1599.64247020585,341.40862354268 1601.38678223185,341.40862354268 1603.13109425785,341.40862354268 1604.87540628386,341.40862354268 1606.61971830986,341.40862354268 1608.36403033586,341.40862354268 1610.10834236186,341.40862354268 1611.85265438787,341.40862354268 1613.59696641387,341.40862354268 1615.34127843987,341.40862354268 1617.08559046587,341.40862354268 1618.82990249187,341.40862354268 1620.57421451788,341.40862354268 1622.31852654388,341.40862354268 1624.06283856988,341.40862354268 1625.80715059588,341.40862354268 1627.55146262189,341.40862354268 1629.29577464789,341.40862354268 1631.04008667389,341.40862354268 1632.78439869989,341.40862354268 1634.52871072589,341.40862354268 1636.2730227519,341.40862354268 1638.0173347779,341.40862354268 1639.7616468039,341.40862354268 1641.5059588299,341.40862354268 1643.2502708559,341.40862354268 1644.99458288191,341.40862354268 1646.73889490791,341.40862354268 1648.48320693391,341.40862354268 1650.22751895991,341.38456676513 1651.97183098592,341.38456676513 1653.71614301192,341.38456676513 1655.46045503792,341.38456676513 1657.20476706392,341.38456676513 1658.94907908992,341.38456676513 1660.69339111593,341.38456676513 1662.43770314193,341.38456676513 1664.18201516793,341.38456676513 1665.92632719393,341.38456676513 1667.67063921994,341.38456676513 1669.41495124594,341.38456676513 1671.15926327194,341.38456676513 1672.90357529794,341.38728860813 1674.64788732394,341.38728860813 1676.39219934995,341.38728860813 1678.13651137595,341.38728860813 1679.88082340195,341.38728860813 1681.62513542795,341.38728860813 1683.36944745395,341.38728860813 1685.11375947996,341.38728860813 1686.85807150596,341.38728860813 1688.60238353196,341.38728860813 1690.34669555796,341.38728860813 1692.09100758397,341.38728860813 1693.83531960997,341.38728860813 1695.57963163597,341.38728860813 1697.32394366197,341.38728860813 1699.06825568797,341.38728860813 1700.81256771398,341.38728860813 1702.55687973998,341.38728860813 1704.30119176598,341.38728860813 1706.04550379198,341.38728860813 1707.78981581798,341.38728860813 1709.53412784399,341.38728860813 1711.27843986999,341.38728860813 1713.02275189599,341.38728860813 1714.76706392199,341.38728860813 1716.511375948,341.38728860813 1718.255687974,341.38728860813 1720,341.38728860813"/>
<polyline id="series-structural-erosion" fill="none" stroke="#ffb454" stroke-width="3" points="110,421.47611514667 111.744312026002,420.98864569674 113.488624052004,421.00153048074 115.232936078007,421.00153048074 116.977248104009,422.16490975669 118.721560130011,422.03591841808 120.465872156013,421.29224779733 122.210184182015,420.31145149368 123.954496208017,420.31145149368 125.69880823402,420.31145149368 127.443120260022,420.31145149368 129.187432286024,420.21318226592 130.931744312026,420.77420276242 132.676056338028,420.6563240056 134.42036836403,420.80079638063 136.164680390033,419.75271983321 137.908992416035,419.76320916836 139.653304442037,419.58883280053 141.397616468039,421.27977427035 143.141928494041,421.2672699742 144.886240520043,421.13429727027 146.630552546046,421.99844736387 148.374864572048,421.98187929317 150.11917659805,421.59773984863 151.863488624052,421.49022239102 153.607800650054,422.56473704951 155.352112676056,422.76344227247 157.096424702058,422.8813036521 158.840736728061,422.78010272474 160.585048754063,422.75194956301 162.329360780065,422.84998520921 164.073672806067,422.79263619087 165.817984832069,421.42409985524 167.562296858072,421.26261840521 169.306608884074,421.73224991281 171.050920910076,423.12328222759 172.795232936078,424.09465220089 174.53954496208,423.82239811567 176.283856988082,422.98026941485 178.028169014085,423.03750255896 179.772481040087,423.74992323864 181.516793066089,423.35789752972 183.261105092091,423.46506973065 185.005417118093,424.17591525671 186.749729144095,423.55875674661 188.494041170097,425.64962382712 190.2383531961,425.77565749591 191.982665222102,425.77565749591 193.726977248104,425.71157819963 195.471289274106,425.75893231267 197.215601300108,427.61919929374 198.95991332611,427.18383016187 200.704225352113,426.26420635539 202.448537378115,426.89027674633 204.192849404117,426.58756627409 205.937161430119,426.58756627409 207.681473456121,426.65215861435 209.425785482124,426.65215861435 211.170097508126,426.96232236401 212.914409534128,427.05090768074 214.65872156013,429.10463638916 216.403033586132,430.00850474415 218.147345612134,431.39692776919 219.891657638137,431.69058553458 221.635969664139,431.74480000528 223.380281690141,431.59240461831 225.124593716143,432.13924809858 226.868905742145,431.48115641787 228.613217768147,432.06216634547 230.35752979415,432.05000865242 232.101841820152,432.05000865242 233.846153846154,432.06724897586 235.590465872156,432.25793901162 237.334777898158,432.3471640469 239.07908992416,432.21402394851 240.823401950163,431.92605456175 242.567713976165,432.13487871199 244.312026002167,432.38940676966 246.056338028169,432.42818042542 247.800650054171,432.32093298091 249.544962080173,432.35451947427 251.289274106176,432.43343503233 253.033586132178,432.43343503233 254.77789815818,432.9967905438 256.522210184182,432.94929757631 258.266522210184,432.49807714275 260.010834236186,433.50472755389 261.755146262189,433.49488134152 263.499458288191,433.632292559 265.243770314193,433.61397830806 266.988082340195,433.8834580882 268.732394366197,433.68044878002 270.476706392199,433.68044878002 272.221018418202,433.7145745599 273.965330444204,433.38721692081 275.709642470206,433.55223563192 277.453954496208,437.79695961648 279.19826652221,440.69416693252 280.942578548212,440.637118417 282.686890574215,440.8203101556 284.431202600217,439.31447127611 286.175514626219,439.51076880065 287.919826652221,439.10278203496 289.664138678223,438.14403061422 291.408450704225,440.70883613104 293.152762730228,441.56821673649 294.89707475623,441.64284459131 296.641386782232,441.28671768788 298.385698808234,441.38535663259 300.130010834236,440.95329628693 301.874322860238,440.7674973164 303.618634886241,440.71407536958 305.362946912243,440.82759183071 307.107258938245,441.04025233219 308.851570964247,441.09094416199 310.595882990249,440.81740567972 312.340195016251,440.23357401368 314.084507042254,440.70750670896 315.828819068256,442.30553219251 317.573131094258,439.71046049637 319.31744312026,441.63466854556 321.061755146262,442.38604055761 322.806067172264,439.57308470671 324.550379198267,439.63661886274 326.294691224269,439.63399455768 328.039003250271,438.38196447641 329.783315276273,439.06867350646 331.527627302275,439.66867477832 333.271939328277,437.41129292916 335.01625135428,435.68472798202 336.760563380282,431.86706145787 338.504875406284,431.66796150661 340.249187432286,428.91553466049 341.993499458288,429.12701496343 343.73781148429,429.5127244204 345.482123510293,429.5127244204 347.226435536295,429.81475374419 348.970747562297,429.86878216766 350.715059588299,429.58766691108 352.459371614301,430.52420499944 354.203683640303,430.78468002359 355.947995666306,430.61646452592 357.692307692308,430.16783346686 359.43661971831,430.16783346686 361.180931744312,430.71003680224 362.925243770314,431.86455798354 364.669555796316,431.91874938179 366.413867822319,432.21080582646 368.158179848321,431.92013463798 369.902491874323,431.84640735989 371.646803900325,436.55797435482 373.391115926327,436.2089776945 375.135427952329,436.43602560264 376.879739978332,436.48582561894 378.624052004334,435.85135396717 380.368364030336,435.84183947828 382.112676056338,437.13783735522 383.85698808234,436.98630918854 385.601300108342,436.54764830012 387.345612134345,436.54764830012 389.089924160347,434.33261918617 390.834236186349,434.59468552581 392.578548212351,434.98441034026 394.322860238353,431.94507165566 396.067172264355,432.35927838932 397.811484290358,430.98796592954 399.55579631636,430.21602087473 401.300108342362,431.23552971187 403.044420368364,431.23552971187 404.788732394366,432.51992917181 406.533044420368,432.12179277367 408.277356446371,431.86327468612 410.021668472373,431.18718920473 411.765980498375,431.1355366831 413.510292524377,431.06776429706 415.254604550379,433.69336446429 416.998916576381,433.46500740075 418.743228602384,434.23464433679 420.487540628386,436.90580800105 422.231852654388,436.24521030842 423.97616468039,436.7089623872 425.720476706392,435.07379829742 427.464788732394,433.25824732939 429.209100758397,431.61410875231 430.953412784399,432.15086270988 432.697724810401,432.52600119021 434.442036836403,426.07368180233 436.186348862405,425.91361163023 437.930660888407,426.05555742099 439.67497291441,426.0826451919 441.419284940412,426.16788313394 443.163596966414,426.05273227924 444.907908992416,425.68738000244 446.652221018418,425.68738000244 448.39653304442,425.75009231327 450.140845070423,435.47376453439 451.885157096425,434.23516601566 453.629469122427,445.71886320557 455.373781148429,447.82267273154 457.118093174431,447.74228660638 458.862405200433,445.90893213116 460.606717226436,446.25919713545 462.351029252438,445.67667778915 464.09534127844,445.00211786165 465.839653304442,443.72159977062 467.583965330444,443.72159977062 469.328277356446,443.91422073964 471.072589382449,443.42624948468 472.816901408451,444.81949483577 474.561213434453,444.9655010141 476.305525460455,444.96586328365 478.049837486457,453.65619068436 479.794149512459,453.64759172036 481.538461538462,451.56855579477 483.282773564464,451.59955076382 485.027085590466,451.53276366811 486.771397616468,451.52616457458 488.51570964247,451.58201613307 490.260021668472,451.56050910677 492.004333694475,451.95219970247 493.748645720477,452.28644146213 495.492957746479,450.31673985868 497.237269772481,449.95410748023 498.981581798483,449.92526536983 500.725893824485,449.67821407971 502.470205850488,449.64930034455 504.21451787649,449.65036600194 505.958829902492,449.80901922684 507.703141928494,449.74917968593 509.447453954496,449.71085541682 511.191765980498,449.51429430193 512.936078006501,448.81662522816 514.680390032503,448.76846292594 516.424702058505,448.28137836468 518.169014084507,448.31163100528 519.913326110509,448.31163100528 521.657638136511,448.80443108494 523.401950162513,448.87652641275 525.146262188516,448.83248928956 526.890574214518,448.83571546506 528.63488624052,447.91085058694 530.379198266522,461.89258894082 532.123510292524,462.52481920441 533.867822318527,461.16092444404 535.612134344529,461.16092444404 537.356446370531,461.16092444404 539.100758396533,461.16092444404 540.845070422535,461.18352123081 542.589382448537,461.6059899258 544.333694474539,461.6059899258 546.078006500542,461.6059899258 547.822318526544,459.8968524416 549.566630552546,459.89862376889 551.310942578548,459.89862376889 553.05525460455,459.22410147353 554.799566630553,459.25546929259 556.543878656555,459.27026896321 558.288190682557,459.27026896321 560.032502708559,459.322057574 561.776814734561,459.17871196069 563.521126760563,459.37390623871 565.265438786565,459.12572204817 567.009750812568,459.36893897195 568.75406283857,460.09372759941 570.498374864572,460.10616589729 572.242686890574,460.01145566676 573.986998916576,460.11770743161 575.731310942579,460.0667230793 577.475622968581,460.06505939109 579.219934994583,459.44402930939 580.964247020585,459.46204057098 582.708559046587,458.83110566992 584.452871072589,458.88985817563 586.197183098591,455.51149537426 587.941495124594,455.62798762668 589.685807150596,455.74931084556 591.430119176598,455.86722035683 593.1744312026,456.03378837163 594.918743228602,455.97049609372 596.663055254605,455.32702225391 598.407367280607,455.49582819769 600.151679306609,455.55942692852 601.895991332611,455.22834925356 603.640303358613,455.57724091244 605.384615384615,455.41697111874 607.128927410618,453.35013121708 608.87323943662,453.9787099687 610.617551462622,453.96594470282 612.361863488624,453.67530522536 614.106175514626,451.02858486124 615.850487540628,451.01204316303 617.594799566631,453.90366621592 619.339111592633,454.48047292204 621.083423618635,453.50512019353 622.827735644637,453.1849176134 624.572047670639,453.50630522207 626.316359696641,453.1337433816 628.060671722644,452.82387785799 629.804983748646,452.76188750635 631.549295774648,452.63552877557 633.29360780065,452.24679709721 635.037919826652,452.447120835 636.782231852654,450.71416183289 638.526543878657,450.62857464413 640.270855904659,450.17806442803 642.015167930661,449.90912878971 643.759479956663,449.88499089852 645.503791982665,449.89236693688 647.248104008667,449.88306526515 648.99241603467,450.00779059918 650.736728060672,450.00960961444 652.481040086674,449.04561774398 654.225352112676,448.56106402153 655.969664138678,448.51501155301 657.71397616468,448.38328038034 659.458288190683,448.23668217557 661.202600216685,448.09444284386 662.946912242687,447.90597865771 664.691224268689,444.97492925713 666.435536294691,447.46397353502 668.179848320693,447.46397353502 669.924160346696,447.27947487731 671.668472372698,446.72139031494 673.4127843987,446.70471549641 675.157096424702,446.42535921014 676.901408450704,446.42535921014 678.645720476706,444.76452284397 680.390032502709,444.71399467021 682.134344528711,444.71399467021 683.878656554713,444.80211525055 685.622968580715,445.11945947946 687.367280606717,445.24881165863 689.111592632719,445.24913258476 690.855904658722,445.08119901902 692.600216684724,444.52079723862 694.344528710726,443.54476300424 696.088840736728,443.56857337083 697.83315276273,443.34742722635 699.577464788732,443.4438144959 701.321776814735,442.11265323318 703.066088840737,442.10394679317 704.810400866739,442.09657579917 706.554712892741,442.09657579917 708.299024918743,443.38323532191 710.043336944745,443.2971659048 711.787648970748,443.31284132066 713.53196099675,443.28299100986 715.276273022752,443.29477858829 717.020585048754,443.59113749737 718.764897074756,443.59670924208 720.509209100758,443.54620195761 722.253521126761,442.97772122458 723.997833152763,444.55386358836 725.742145178765,444.60849445382 727.486457204767,440.97488221197 729.230769230769,440.16362059192 730.975081256771,440.17881930311 732.719393282774,440.11922918064 734.463705308776,440.11265803257 736.208017334778,440.23872173568 737.95232936078,440.8760709784 739.696641386782,440.87736586943 741.440953412784,440.95071972274 743.185265438787,440.92839738922 744.929577464789,440.60231874563 746.673889490791,440.60231874563 748.418201516793,440.60231874563 750.162513542795,440.60390579554 751.906825568797,440.16999425394 753.6511375948,440.17096530198 755.395449620802,440.41208564696 757.139761646804,441.23228899863 758.884073672806,441.58875336381 760.628385698808,441.58782468982 762.37269772481,441.58876229793 764.117009750813,445.52561272011 765.861321776815,444.90736358244 767.605633802817,444.80692370438 769.349945828819,442.8135292924 771.094257854821,448.39415710587 772.838569880823,448.31649740807 774.582881906826,448.31649740807 776.327193932828,449.18652462681 778.07150595883,448.6361595227 779.815817984832,448.6361595227 781.560130010834,448.29852749933 783.304442036836,449.06601199394 785.048754062839,449.47086538499 786.793066088841,449.68394222833 788.537378114843,449.54954275091 790.281690140845,449.48778076121 792.026002166847,449.75683690941 793.770314192849,449.70238831688 795.514626218852,450.16912544721 797.258938244854,450.1722950411 799.003250270856,458.01252211004 800.747562296858,461.68326269299 802.49187432286,467.69600672809 804.236186348862,467.58272438534 805.980498374865,469.25396122524 807.724810400867,470.07657466595 809.469122426869,470.48896484167 811.213434452871,472.84980693602 812.957746478873,472.65473175154 814.702058504875,472.8580548892 816.446370530878,469.74005944691 818.19068255688,469.89516306985 819.934994582882,469.55965483313 821.679306608884,469.38405842294 823.423618634886,468.40760498159 825.167930660888,469.27944348069 826.912242686891,464.8576815039 828.656554712893,464.82778381379 830.400866738895,464.16079801146 832.145178764897,463.81694936225 833.889490790899,463.81694936225 835.633802816901,464.39409974955 837.378114842904,464.3486411615 839.122426868906,464.7086495447 840.866738894908,464.7086495447 842.61105092091,464.7086495447 844.355362946912,464.7086495447 846.099674972914,464.7086495447 847.843986998917,463.77370491106 849.588299024919,463.77370491106 851.332611050921,463.77370491106 853.076923076923,462.81670257339 854.821235102925,462.81670257339 856.565547128927,462.81670257339 858.30985915493,462.81670257339 860.054171180932,462.45288373097 861.798483206934,462.45288373097 863.542795232936,462.45288373097 865.287107258938,462.45288373097 867.03141928494,462.45288373097 868.775731310943,462.27577929887 870.520043336945,462.27577929887 872.264355362947,462.27577929887 874.008667388949,462.27577929887 875.752979414951,462.27577929887 877.497291440953,462.35861543463 879.241603466956,462.39317287161 880.985915492958,462.08154270727 882.73022751896,462.08154270727 884.474539544962,462.12382883862 886.218851570964,462.12382883862 887.963163596966,460.47669240382 889.707475622969,460.47669240382 891.451787648971,460.47669240382 893.196099674973,460.49029941174 894.940411700975,460.49029941174 896.684723726977,458.46920870175 898.429035752979,458.46920870175 900.173347778982,458.46920870175 901.917659804984,457.62773189246 903.661971830986,457.57009448011 905.406283856988,457.57009448011 907.15059588299,457.57009448011 908.894907908992,457.57009448011 910.639219934995,457.57009448011 912.383531960997,457.57009448011 914.127843986999,457.57009448011 915.872156013001,457.42932715162 917.616468039003,457.42932715162 919.360780065005,457.43579680621 921.105092091008,457.43579680621 922.84940411701,457.20605320423 924.593716143012,456.99789294002 926.338028169014,456.99789294002 928.082340195016,455.76301105316 929.826652221018,455.76301105316 931.570964247021,451.68608132426 933.315276273023,451.24981778334 935.059588299025,452.3213724037 936.803900325027,451.80078755561 938.548212351029,453.71320653551 940.292524377031,453.72734607186 942.036836403034,453.72734607186 943.781148429036,453.7602066866 945.525460455038,453.65825916199 947.26977248104,453.75499094348 949.014084507042,453.75647015628 950.758396533044,453.75650023223 952.502708559047,453.75650023223 954.247020585049,453.72821983841 955.991332611051,453.72821983841 957.735644637053,453.72821983841 959.479956663055,453.72821983841 961.224268689057,453.34032176745 962.96858071506,453.34462857081 964.712892741062,453.29906820431 966.457204767064,453.30169753579 968.201516793066,453.31479687046 969.945828819068,453.31479687046 971.69014084507,453.34326157685 973.434452871073,453.34326157685 975.178764897075,453.43182439107 976.923076923077,453.1601590817 978.667388949079,453.1601590817 980.411700975081,453.1601590817 982.156013001083,453.13006899176 983.900325027086,453.13006899176 985.644637053088,452.84625368629 987.38894907909,452.82907845722 989.133261105092,452.80183237524 990.877573131094,453.73266269528 992.621885157096,454.52789551344 994.366197183099,453.63787244522 996.110509209101,453.63787244522 997.854821235103,453.63787244522 999.599133261105,453.63344121416 1001.34344528711,453.38358772318 1003.08775731311,453.38358772318 1004.83206933911,453.38358772318 1006.57638136511,453.38358772318 1008.32069339112,453.34973079237 1010.06500541712,453.34179668914 1011.80931744312,453.34486214248 1013.55362946912,453.00009984035 1015.29794149512,452.98765830085 1017.04225352113,453.02272545095 1018.78656554713,453.11594363261 1020.53087757313,452.98750630719 1022.27518959913,452.98750630719 1024.01950162514,453.41446990966 1025.76381365114,453.41446990966 1027.50812567714,453.41446990966 1029.25243770314,453.41446990966 1030.99674972914,453.41446990966 1032.74106175515,453.41446990966 1034.48537378115,453.41446990966 1036.22968580715,453.43360110634 1037.97399783315,453.43360110634 1039.71830985915,453.43360110634 1041.46262188516,453.42983077315 1043.20693391116,453.42983077315 1044.95124593716,453.42983077315 1046.69555796316,453.42983077315 1048.43986998917,453.42983077315 1050.18418201517,453.42983077315 1051.92849404117,453.13733127442 1053.67280606717,453.13733127442 1055.41711809317,453.83280652861 1057.16143011918,453.78449797468 1058.90574214518,453.48938507151 1060.65005417118,453.48938507151 1062.39436619718,453.48938507151 1064.13867822319,453.48938507151 1065.88299024919,453.86951476712 1067.62730227519,453.86951476712 1069.37161430119,453.72076343621 1071.11592632719,453.72076343621 1072.8602383532,453.72076343621 1074.6045503792,453.72076343621 1076.3488624052,453.80285395475 1078.0931744312,453.80285395475 1079.8374864572,453.80285395475 1081.58179848321,453.80285395475 1083.32611050921,453.81985129906 1085.07042253521,453.81985129906 1086.81473456121,454.4825041284 1088.55904658722,452.08929578499 1090.30335861322,451.1543744561 1092.04767063922,455.43169808475 1093.79198266522,455.43169808475 1095.53629469122,455.43169808475 1097.28060671723,455.43169808475 1099.02491874323,455.43169808475 1100.76923076923,455.43169808475 1102.51354279523,455.43169808475 1104.25785482124,455.43429666247 1106.00216684724,455.43429666247 1107.74647887324,455.44846992487 1109.49079089924,455.38067901233 1111.23510292524,455.38067901233 1112.97941495125,455.29161709926 1114.72372697725,455.29161709926 1116.46803900325,455.29161709926 1118.21235102925,454.61294745908 1119.95666305525,454.61294745908 1121.70097508126,454.61294745908 1123.44528710726,454.61294745908 1125.18959913326,454.62582516207 1126.93391115926,454.65697954688 1128.67822318527,454.50543122622 1130.42253521127,454.46678469675 1132.16684723727,454.46678469675 1133.91115926327,454.46678469675 1135.65547128927,453.54182067736 1137.39978331528,453.54182067736 1139.14409534128,453.56099402407 1140.88840736728,453.56099402407 1142.63271939328,453.51954741733 1144.37703141929,453.51954741733 1146.12134344529,453.51954741733 1147.86565547129,453.66126086278 1149.60996749729,453.59499476353 1151.35427952329,453.55626053161 1153.0985915493,452.46884575778 1154.8429035753,452.49838925433 1156.5872156013,452.33740077227 1158.3315276273,452.32256352908 1160.0758396533,452.32256352908 1161.82015167931,452.91861169411 1163.56446370531,452.83726708903 1165.30877573131,452.53054900709 1167.05308775731,452.53054900709 1168.79739978332,452.53054900709 1170.54171180932,452.53285465589 1172.28602383532,452.53285465589 1174.03033586132,452.53285465589 1175.77464788732,452.5293483949 1177.51895991333,452.5293483949 1179.26327193933,452.5293483949 1181.00758396533,452.52570666483 1182.75189599133,452.52570666483 1184.49620801733,452.52570666483 1186.24052004334,452.47674819714 1187.98483206934,452.30474046154 1189.72914409534,452.30474046154 1191.47345612134,452.30474046154 1193.21776814735,452.30474046154 1194.96208017335,452.30474046154 1196.70639219935,452.44702478148 1198.45070422535,452.41265487891 1200.19501625135,452.34792790401 1201.93932827736,452.34792790401 1203.68364030336,452.33673500461 1205.42795232936,452.33673500461 1207.17226435536,452.38937734665 1208.91657638137,452.31227883919 1210.66088840737,452.31227883919 1212.40520043337,452.7187535007 1214.14951245937,452.76728238957 1215.89382448537,452.78869366158 1217.63813651138,452.79946080338 1219.38244853738,452.79946080338 1221.12676056338,451.44047541187 1222.87107258938,452.18518742363 1224.61538461538,452.18518742363 1226.35969664139,452.18518742363 1228.10400866739,452.18518742363 1229.84832069339,452.18518742363 1231.59263271939,452.18518742363 1233.3369447454,451.78543543833 1235.0812567714,451.68698833777 1236.8255687974,451.68698833777 1238.5698808234,459.68072022651 1240.3141928494,459.68072022651 1242.05850487541,459.68072022651 1243.80281690141,459.68072022651 1245.54712892741,459.67954351638 1247.29144095341,459.67954351638 1249.03575297941,459.67954351638 1250.78006500542,459.67954351638 1252.52437703142,459.67394646201 1254.26868905742,459.67394646201 1256.01300108342,459.67394646201 1257.75731310943,459.67394646201 1259.50162513543,459.67394646201 1261.24593716143,459.67394646201 1262.99024918743,459.67394646201 1264.73456121343,459.80954883529 1266.47887323944,459.80954883529 1268.22318526544,459.80954883529 1269.96749729144,459.80954883529 1271.71180931744,459.80954883529 1273.45612134345,459.7878215603 1275.20043336945,459.7878215603 1276.94474539545,459.70184838876 1278.68905742145,459.69628823789 1280.43336944745,459.69628823789 1282.17768147346,459.68721048404 1283.92199349946,459.68721048404 1285.66630552546,459.68721048404 1287.41061755146,459.48014362488 1289.15492957746,459.48014362488 1290.89924160347,459.48014362488 1292.64355362947,459.48014362488 1294.38786565547,459.48014362488 1296.13217768147,459.48014362488 1297.87648970748,458.26612302713 1299.62080173348,458.26612302713 1301.36511375948,458.26612302713 1303.10942578548,458.26612302713 1304.85373781148,458.24279834211 1306.59804983749,458.24279834211 1308.34236186349,458.24279834211 1310.08667388949,458.22777915144 1311.83098591549,458.22777915144 1313.5752979415,458.22905283946 1315.3196099675,458.22114042845 1317.0639219935,458.21728181321 1318.8082340195,457.91754002204 1320.5525460455,457.9163554926 1322.29685807151,458.34284154354 1324.04117009751,458.32303074838 1325.78548212351,458.31512334033 1327.52979414951,458.37445358626 1329.27410617551,458.36275968016 1331.01841820152,458.36379214395 1332.76273022752,458.01668702778 1334.50704225352,458.01885941941 1336.25135427952,457.83487752156 1337.99566630553,457.63027395964 1339.73997833153,457.64449546822 1341.48429035753,457.57731808551 1343.22860238353,457.57013998193 1344.97291440953,457.49274429906 1346.71722643554,457.29209664859 1348.46153846154,457.28893773429 1350.20585048754,457.28893773429 1351.95016251354,457.28893773429 1353.69447453954,457.28893773429 1355.43878656555,457.26837565793 1357.18309859155,457.27722166148 1358.92741061755,457.27598440914 1360.67172264355,457.19748369426 1362.41603466956,457.21185903443 1364.16034669556,457.23806282725 1365.90465872156,457.27327258011 1367.64897074756,457.25621573779 1369.39328277356,457.27228867162 1371.13759479957,457.01662566423 1372.88190682557,456.91135116156 1374.62621885157,456.89728629402 1376.37053087757,457.22052219396 1378.11484290358,457.22052219396 1379.85915492958,457.07867554838 1381.60346695558,457.0842317904 1383.34777898158,457.1018504942 1385.09209100758,457.1018504942 1386.83640303359,456.8951199001 1388.58071505959,456.8951199001 1390.32502708559,456.8951199001 1392.06933911159,456.82889591247 1393.81365113759,456.85186477507 1395.5579631636,456.85346093551 1397.3022751896,456.83768413128 1399.0465872156,456.90943049665 1400.7908992416,456.90943049665 1402.53521126761,456.94265237285 1404.27952329361,456.91738174753 1406.02383531961,456.92981582882 1407.76814734561,456.92981582882 1409.51245937161,456.84786165681 1411.25677139762,456.84786165681 1413.00108342362,456.62465921573 1414.74539544962,456.41567632593 1416.48970747562,456.4441407623 1418.23401950163,456.39234328593 1419.97833152763,456.39234328593 1421.72264355363,456.41490629099 1423.46695557963,456.38486138639 1425.21126760563,456.38486138639 1426.95557963164,456.47560459141 1428.69989165764,456.57167025656 1430.44420368364,456.57167025656 1432.18851570964,456.57167025656 1433.93282773564,456.57167025656 1435.67713976165,456.75377138852 1437.42145178765,456.75377138852 1439.16576381365,456.75377138852 1440.91007583965,456.75377138852 1442.65438786566,456.97061478592 1444.39869989166,456.97061478592 1446.14301191766,456.97061478592 1447.88732394366,456.98827495205 1449.63163596966,456.58586603573 1451.37594799567,456.58586603573 1453.12026002167,456.58586603573 1454.86457204767,456.58586603573 1456.60888407367,456.58586603573 1458.35319609967,456.58586603573 1460.09750812568,456.58586603573 1461.84182015168,456.58586603573 1463.58613217768,456.58586603573 1465.33044420368,456.58586603573 1467.07475622969,456.58586603573 1468.81906825569,456.58586603573 1470.56338028169,456.58586603573 1472.30769230769,456.58586603573 1474.05200433369,456.58586603573 1475.7963163597,456.58586603573 1477.5406283857,456.58586603573 1479.2849404117,456.58586603573 1481.0292524377,456.58586603573 1482.77356446371,456.58586603573 1484.51787648971,456.58586603573 1486.26218851571,456.58586603573 1488.00650054171,456.58586603573 1489.75081256771,456.62740816975 1491.49512459372,456.53527340884 1493.23943661972,456.53527340884 1494.98374864572,456.31812667157 1496.72806067172,456.31812667157 1498.47237269772,456.31657390155 1500.21668472373,456.14851061696 1501.96099674973,456.14851061696 1503.70530877573,456.14851061696 1505.44962080173,456.14851061696 1507.19393282774,456.14851061696 1508.93824485374,456.14851061696 1510.68255687974,456.14851061696 1512.42686890574,456.14851061696 1514.17118093174,456.14851061696 1515.91549295775,456.14851061696 1517.65980498375,456.14851061696 1519.40411700975,456.14851061696 1521.14842903575,456.14851061696 1522.89274106176,456.14851061696 1524.63705308776,456.14851061696 1526.38136511376,456.14851061696 1528.12567713976,456.14851061696 1529.86998916576,456.14851061696 1531.61430119177,456.14851061696 1533.35861321777,456.14851061696 1535.10292524377,456.14851061696 1536.84723726977,456.14851061696 1538.59154929577,456.14851061696 1540.33586132178,456.14851061696 1542.08017334778,456.14851061696 1543.82448537378,456.14851061696 1545.56879739978,456.14851061696 1547.31310942579,456.14851061696 1549.05742145179,456.14851061696 1550.80173347779,456.14851061696 1552.54604550379,456.14851061696 1554.29035752979,456.14851061696 1556.0346695558,456.14851061696 1557.7789815818,456.14851061696 1559.5232936078,456.14851061696 1561.2676056338,456.14851061696 1563.01191765981,456.14851061696 1564.75622968581,456.14851061696 1566.50054171181,456.14851061696 1568.24485373781,456.14851061696 1569.98916576381,456.14851061696 1571.73347778982,456.14851061696 1573.47778981582,456.14851061696 1575.22210184182,456.14851061696 1576.96641386782,456.14851061696 1578.71072589382,456.14851061696 1580.45503791983,456.14851061696 1582.19934994583,456.14851061696 1583.94366197183,456.14851061696 1585.68797399783,456.14851061696 1587.43228602384,456.14851061696 1589.17659804984,456.14851061696 1590.92091007584,456.14851061696 1592.66522210184,456.14851061696 1594.40953412784,456.14851061696 1596.15384615385,456.14851061696 1597.89815817985,456.14851061696 1599.64247020585,456.14851061696 1601.38678223185,456.14851061696 1603.13109425785,456.14851061696 1604.87540628386,456.14851061696 1606.61971830986,456.14851061696 1608.36403033586,456.14851061696 1610.10834236186,456.14851061696 1611.85265438787,456.14851061696 1613.59696641387,456.14851061696 1615.34127843987,456.14851061696 1617.08559046587,456.14851061696 1618.82990249187,456.14851061696 1620.57421451788,456.14851061696 1622.31852654388,456.14851061696 1624.06283856988,456.14851061696 1625.80715059588,456.14851061696 1627.55146262189,456.14851061696 1629.29577464789,456.14851061696 1631.04008667389,456.14851061696 1632.78439869989,456.14851061696 1634.52871072589,456.14851061696 1636.2730227519,456.14851061696 1638.0173347779,456.14851061696 1639.7616468039,456.14851061696 1641.5059588299,456.14851061696 1643.2502708559,456.14851061696 1644.99458288191,456.14851061696 1646.73889490791,456.14851061696 1648.48320693391,456.14851061696 1650.22751895991,455.88229154958 1651.97183098592,455.88229154958 1653.71614301192,455.88229154958 1655.46045503792,455.88229154958 1657.20476706392,455.88229154958 1658.94907908992,455.88229154958 1660.69339111593,455.88229154958 1662.43770314193,455.88229154958 1664.18201516793,455.88229154958 1665.92632719393,455.88229154958 1667.67063921994,455.88229154958 1669.41495124594,455.88229154958 1671.15926327194,455.88229154958 1672.90357529794,455.89549929383 1674.64788732394,455.89549929383 1676.39219934995,455.89549929383 1678.13651137595,455.89549929383 1679.88082340195,455.89549929383 1681.62513542795,455.89549929383 1683.36944745395,455.89549929383 1685.11375947996,455.89549929383 1686.85807150596,455.89549929383 1688.60238353196,455.89549929383 1690.34669555796,455.89549929383 1692.09100758397,455.89549929383 1693.83531960997,455.89549929383 1695.57963163597,455.89549929383 1697.32394366197,455.89549929383 1699.06825568797,455.89549929383 1700.81256771398,455.89549929383 1702.55687973998,455.89549929383 1704.30119176598,455.89549929383 1706.04550379198,455.89549929383 1707.78981581798,455.89549929383 1709.53412784399,455.89549929383 1711.27843986999,455.89549929383 1713.02275189599,455.89549929383 1714.76706392199,455.89549929383 1716.511375948,455.89549929383 1718.255687974,455.89549929383 1720,455.89549929383"/>
<polyline id="series-supported" fill="none" stroke="#9cf28a" stroke-width="3" points="110,734.933586337761 111.744312026002,734.933586337761 113.488624052004,734.933586337761 115.232936078007,734.933586337761 116.977248104009,734.933586337761 118.721560130011,734.933586337761 120.465872156013,734.933586337761 122.210184182015,734.933586337761 123.954496208017,734.933586337761 125.69880823402,734.933586337761 127.443120260022,734.933586337761 129.187432286024,734.933586337761 130.931744312026,734.933586337761 132.676056338028,734.933586337761 134.42036836403,734.933586337761 136.164680390033,734.933586337761 137.908992416035,734.933586337761 139.653304442037,734.933586337761 141.397616468039,734.933586337761 143.141928494041,734.933586337761 144.886240520043,734.933586337761 146.630552546046,734.933586337761 148.374864572048,734.933586337761 150.11917659805,734.933586337761 151.863488624052,734.060721062619 153.607800650054,733.187855787476 155.352112676056,733.187855787476 157.096424702058,733.187855787476 158.840736728061,733.187855787476 160.585048754063,733.187855787476 162.329360780065,733.187855787476 164.073672806067,733.187855787476 165.817984832069,733.187855787476 167.562296858072,733.187855787476 169.306608884074,733.187855787476 171.050920910076,733.187855787476 172.795232936078,733.187855787476 174.53954496208,733.187855787476 176.283856988082,733.187855787476 178.028169014085,732.314990512334 179.772481040087,732.314990512334 181.516793066089,732.751423149905 183.261105092091,732.751423149905 185.005417118093,732.751423149905 186.749729144095,732.751423149905 188.494041170097,731.878557874763 190.2383531961,731.878557874763 191.982665222102,731.878557874763 193.726977248104,731.878557874763 195.471289274106,731.878557874763 197.215601300108,732.314990512334 198.95991332611,732.314990512334 200.704225352113,731.442125237192 202.448537378115,731.00569259962 204.192849404117,731.00569259962 205.937161430119,731.00569259962 207.681473456121,731.878557874763 209.425785482124,731.878557874763 211.170097508126,731.878557874763 212.914409534128,731.878557874763 214.65872156013,731.00569259962 216.403033586132,731.00569259962 218.147345612134,731.00569259962 219.891657638137,731.00569259962 221.635969664139,731.00569259962 223.380281690141,731.00569259962 225.124593716143,731.00569259962 226.868905742145,731.00569259962 228.613217768147,731.00569259962 230.35752979415,731.00569259962 232.101841820152,731.00569259962 233.846153846154,731.00569259962 235.590465872156,731.00569259962 237.334777898158,731.00569259962 239.07908992416,731.00569259962 240.823401950163,731.00569259962 242.567713976165,731.00569259962 244.312026002167,731.00569259962 246.056338028169,731.00569259962 247.800650054171,731.00569259962 249.544962080173,731.00569259962 251.289274106176,731.00569259962 253.033586132178,731.00569259962 254.77789815818,730.132827324478 256.522210184182,730.132827324478 258.266522210184,729.259962049336 260.010834236186,728.387096774194 261.755146262189,728.387096774194 263.499458288191,728.387096774194 265.243770314193,728.387096774194 266.988082340195,728.387096774194 268.732394366197,729.259962049336 270.476706392199,728.823529411765 272.221018418202,728.823529411765 273.965330444204,728.823529411765 275.709642470206,728.823529411765 277.453954496208,726.204933586338 279.19826652221,725.768500948767 280.942578548212,725.768500948767 282.686890574215,725.768500948767 284.431202600217,732.751423149905 286.175514626219,732.751423149905 287.919826652221,732.751423149905 289.664138678223,732.751423149905 291.408450704225,732.751423149905 293.152762730228,733.187855787476 294.89707475623,733.187855787476 296.641386782232,733.187855787476 298.385698808234,733.187855787476 300.130010834236,733.187855787476 301.874322860238,733.187855787476 303.618634886241,733.187855787476 305.362946912243,733.187855787476 307.107258938245,733.187855787476 308.851570964247,733.187855787476 310.595882990249,734.060721062619 312.340195016251,734.060721062619 314.084507042254,732.751423149905 315.828819068256,731.00569259962 317.573131094258,730.569259962049 319.31744312026,726.641366223909 321.061755146262,726.204933586338 322.806067172264,722.713472485769 324.550379198267,722.713472485769 326.294691224269,722.713472485769 328.039003250271,721.840607210626 329.783315276273,721.840607210626 331.527627302275,721.840607210626 333.271939328277,721.404174573055 335.01625135428,721.404174573055 336.760563380282,720.967741935484 338.504875406284,720.967741935484 340.249187432286,720.967741935484 341.993499458288,720.967741935484 343.73781148429,720.967741935484 345.482123510293,720.967741935484 347.226435536295,720.967741935484 348.970747562297,720.967741935484 350.715059588299,720.967741935484 352.459371614301,720.967741935484 354.203683640303,720.094876660342 355.947995666306,720.094876660342 357.692307692308,720.094876660342 359.43661971831,720.094876660342 361.180931744312,720.094876660342 362.925243770314,718.349146110057 364.669555796316,726.641366223909 366.413867822319,725.332068311195 368.158179848321,725.332068311195 369.902491874323,725.332068311195 371.646803900325,724.895635673624 373.391115926327,724.895635673624 375.135427952329,724.895635673624 376.879739978332,724.895635673624 378.624052004334,724.895635673624 380.368364030336,724.895635673624 382.112676056338,724.895635673624 383.85698808234,724.022770398482 385.601300108342,724.022770398482 387.345612134345,724.022770398482 389.089924160347,724.022770398482 390.834236186349,723.586337760911 392.578548212351,723.586337760911 394.322860238353,723.586337760911 396.067172264355,722.713472485769 397.811484290358,722.713472485769 399.55579631636,722.713472485769 401.300108342362,723.14990512334 403.044420368364,723.14990512334 404.788732394366,721.840607210626 406.533044420368,721.404174573055 408.277356446371,721.404174573055 410.021668472373,721.404174573055 411.765980498375,721.404174573055 413.510292524377,721.404174573055 415.254604550379,722.277039848197 416.998916576381,722.277039848197 418.743228602384,723.14990512334 420.487540628386,718.349146110057 422.231852654388,718.349146110057 423.97616468039,717.476280834915 425.720476706392,713.111954459203 427.464788732394,713.111954459203 429.209100758397,713.111954459203 430.953412784399,713.111954459203 432.697724810401,713.111954459203 434.442036836403,712.239089184061 436.186348862405,712.239089184061 437.930660888407,712.239089184061 439.67497291441,712.239089184061 441.419284940412,711.366223908918 443.163596966414,711.366223908918 444.907908992416,711.366223908918 446.652221018418,711.366223908918 448.39653304442,711.366223908918 450.140845070423,710.929791271347 451.885157096425,710.929791271347 453.629469122427,678.633776091082 455.373781148429,677.760910815939 457.118093174431,677.760910815939 458.862405200433,677.760910815939 460.606717226436,677.760910815939 462.351029252438,677.760910815939 464.09534127844,677.760910815939 465.839653304442,677.760910815939 467.583965330444,677.760910815939 469.328277356446,677.760910815939 471.072589382449,677.760910815939 472.816901408451,676.888045540797 474.561213434453,675.142314990512 476.305525460455,675.142314990512 478.049837486457,671.214421252372 479.794149512459,671.214421252372 481.538461538462,669.905123339658 483.282773564464,669.905123339658 485.027085590466,669.905123339658 486.771397616468,669.905123339658 488.51570964247,669.905123339658 490.260021668472,669.905123339658 492.004333694475,669.905123339658 493.748645720477,669.905123339658 495.492957746479,669.905123339658 497.237269772481,669.905123339658 498.981581798483,669.905123339658 500.725893824485,669.905123339658 502.470205850488,669.905123339658 504.21451787649,669.905123339658 505.958829902492,669.905123339658 507.703141928494,669.905123339658 509.447453954496,669.905123339658 511.191765980498,669.905123339658 512.936078006501,669.905123339658 514.680390032503,669.905123339658 516.424702058505,669.905123339658 518.169014084507,669.905123339658 519.913326110509,669.905123339658 521.657638136511,669.032258064516 523.401950162513,669.032258064516 525.146262188516,669.032258064516 526.890574214518,667.722960151803 528.63488624052,668.159392789374 530.379198266522,664.667931688805 532.123510292524,664.667931688805 533.867822318527,664.667931688805 535.612134344529,664.667931688805 537.356446370531,664.667931688805 539.100758396533,664.667931688805 540.845070422535,664.667931688805 542.589382448537,664.667931688805 544.333694474539,664.667931688805 546.078006500542,664.667931688805 547.822318526544,663.358633776091 549.566630552546,663.358633776091 551.310942578548,663.358633776091 553.05525460455,663.358633776091 554.799566630553,662.92220113852 556.543878656555,662.92220113852 558.288190682557,662.92220113852 560.032502708559,662.92220113852 561.776814734561,662.92220113852 563.521126760563,662.485768500949 565.265438786565,662.485768500949 567.009750812568,662.485768500949 568.75406283857,662.485768500949 570.498374864572,662.485768500949 572.242686890574,662.485768500949 573.986998916576,662.92220113852 575.731310942579,662.92220113852 577.475622968581,662.92220113852 579.219934994583,662.92220113852 580.964247020585,662.92220113852 582.708559046587,662.92220113852 584.452871072589,662.92220113852 586.197183098591,662.92220113852 587.941495124594,662.92220113852 589.685807150596,662.92220113852 591.430119176598,662.92220113852 593.1744312026,662.92220113852 594.918743228602,663.795066413662 596.663055254605,663.795066413662 598.407367280607,663.795066413662 600.151679306609,663.795066413662 601.895991332611,661.176470588235 603.640303358613,661.176470588235 605.384615384615,660.303605313093 607.128927410618,660.303605313093 608.87323943662,660.303605313093 610.617551462622,660.303605313093 612.361863488624,659.867172675522 614.106175514626,659.867172675522 615.850487540628,659.867172675522 617.594799566631,653.757115749526 619.339111592633,652.011385199241 621.083423618635,652.011385199241 622.827735644637,652.011385199241 624.572047670639,651.138519924099 626.316359696641,651.138519924099 628.060671722644,651.138519924099 629.804983748646,651.138519924099 631.549295774648,651.138519924099 633.29360780065,651.138519924099 635.037919826652,649.829222011385 636.782231852654,649.829222011385 638.526543878657,649.829222011385 640.270855904659,649.829222011385 642.015167930661,649.829222011385 643.759479956663,649.829222011385 645.503791982665,649.829222011385 647.248104008667,649.829222011385 648.99241603467,649.829222011385 650.736728060672,649.829222011385 652.481040086674,648.956356736243 654.225352112676,647.647058823529 655.969664138678,647.647058823529 657.71397616468,647.647058823529 659.458288190683,647.647058823529 661.202600216685,647.210626185958 662.946912242687,647.210626185958 664.691224268689,647.210626185958 666.435536294691,646.337760910816 668.179848320693,646.337760910816 669.924160346696,646.337760910816 671.668472372698,643.282732447818 673.4127843987,643.282732447818 675.157096424702,643.282732447818 676.901408450704,643.282732447818 678.645720476706,644.592030360531 680.390032502709,644.592030360531 682.134344528711,644.592030360531 683.878656554713,644.592030360531 685.622968580715,644.592030360531 687.367280606717,644.592030360531 689.111592632719,644.592030360531 690.855904658722,644.592030360531 692.600216684724,644.15559772296 694.344528710726,644.15559772296 696.088840736728,644.15559772296 697.83315276273,644.592030360531 699.577464788732,644.592030360531 701.321776814735,644.592030360531 703.066088840737,644.592030360531 704.810400866739,644.592030360531 706.554712892741,644.592030360531 708.299024918743,640.664136622391 710.043336944745,629.753320683112 711.787648970748,629.753320683112 713.53196099675,629.753320683112 715.276273022752,629.753320683112 717.020585048754,628.007590132827 718.764897074756,628.007590132827 720.509209100758,627.134724857685 722.253521126761,627.134724857685 723.997833152763,627.134724857685 725.742145178765,627.134724857685 727.486457204767,627.134724857685 729.230769230769,627.134724857685 730.975081256771,627.134724857685 732.719393282774,627.134724857685 734.463705308776,627.134724857685 736.208017334778,627.134724857685 737.95232936078,627.134724857685 739.696641386782,627.134724857685 741.440953412784,627.134724857685 743.185265438787,627.134724857685 744.929577464789,627.134724857685 746.673889490791,627.134724857685 748.418201516793,627.134724857685 750.162513542795,627.134724857685 751.906825568797,627.134724857685 753.6511375948,627.134724857685 755.395449620802,627.134724857685 757.139761646804,627.134724857685 758.884073672806,626.261859582543 760.628385698808,625.825426944971 762.37269772481,625.825426944971 764.117009750813,623.206831119545 765.861321776815,623.206831119545 767.605633802817,619.715370018975 769.349945828819,619.715370018975 771.094257854821,615.351043643264 772.838569880823,614.04174573055 774.582881906826,614.04174573055 776.327193932828,614.04174573055 778.07150595883,613.605313092979 779.815817984832,613.605313092979 781.560130010834,613.605313092979 783.304442036836,614.04174573055 785.048754062839,614.04174573055 786.793066088841,614.04174573055 788.537378114843,614.04174573055 790.281690140845,614.04174573055 792.026002166847,613.605313092979 793.770314192849,613.605313092979 795.514626218852,613.605313092979 797.258938244854,613.605313092979 799.003250270856,613.605313092979 800.747562296858,612.732447817837 802.49187432286,612.732447817837 804.236186348862,612.732447817837 805.980498374865,611.859582542695 807.724810400867,611.859582542695 809.469122426869,610.986717267552 811.213434452871,610.550284629981 812.957746478873,610.986717267552 814.702058504875,610.986717267552 816.446370530878,610.11385199241 818.19068255688,610.11385199241 819.934994582882,610.11385199241 821.679306608884,610.11385199241 823.423618634886,610.11385199241 825.167930660888,610.11385199241 826.912242686891,602.258064516129 828.656554712893,602.258064516129 830.400866738895,602.258064516129 832.145178764897,602.258064516129 833.889490790899,602.258064516129 835.633802816901,602.258064516129 837.378114842904,602.258064516129 839.122426868906,602.258064516129 840.866738894908,602.258064516129 842.61105092091,602.258064516129 844.355362946912,602.258064516129 846.099674972914,602.258064516129 847.843986998917,601.385199240987 849.588299024919,601.385199240987 851.332611050921,601.385199240987 853.076923076923,597.893738140417 854.821235102925,597.893738140417 856.565547128927,597.893738140417 858.30985915493,597.893738140417 860.054171180932,597.893738140417 861.798483206934,597.893738140417 863.542795232936,597.893738140417 865.287107258938,597.893738140417 867.03141928494,597.893738140417 868.775731310943,597.893738140417 870.520043336945,597.893738140417 872.264355362947,597.893738140417 874.008667388949,597.893738140417 875.752979414951,597.893738140417 877.497291440953,597.020872865275 879.241603466956,597.020872865275 880.985915492958,598.76660341556 882.73022751896,598.76660341556 884.474539544962,598.76660341556 886.218851570964,598.76660341556 887.963163596966,598.76660341556 889.707475622969,598.76660341556 891.451787648971,598.76660341556 893.196099674973,598.76660341556 894.940411700975,598.76660341556 896.684723726977,598.76660341556 898.429035752979,598.76660341556 900.173347778982,598.76660341556 901.917659804984,598.76660341556 903.661971830986,598.76660341556 905.406283856988,598.76660341556 907.15059588299,598.76660341556 908.894907908992,598.76660341556 910.639219934995,598.76660341556 912.383531960997,598.76660341556 914.127843986999,598.76660341556 915.872156013001,598.76660341556 917.616468039003,598.76660341556 919.360780065005,598.76660341556 921.105092091008,598.76660341556 922.84940411701,598.76660341556 924.593716143012,598.76660341556 926.338028169014,598.76660341556 928.082340195016,597.020872865275 929.826652221018,597.020872865275 931.570964247021,595.27514231499 933.315276273023,593.965844402277 935.059588299025,593.965844402277 936.803900325027,593.965844402277 938.548212351029,593.965844402277 940.292524377031,593.965844402277 942.036836403034,593.965844402277 943.781148429036,593.965844402277 945.525460455038,593.965844402277 947.26977248104,593.965844402277 949.014084507042,593.965844402277 950.758396533044,593.965844402277 952.502708559047,593.965844402277 954.247020585049,593.965844402277 955.991332611051,593.965844402277 957.735644637053,593.965844402277 959.479956663055,593.965844402277 961.224268689057,593.965844402277 962.96858071506,593.965844402277 964.712892741062,593.965844402277 966.457204767064,593.965844402277 968.201516793066,593.965844402277 969.945828819068,593.965844402277 971.69014084507,593.965844402277 973.434452871073,593.965844402277 975.178764897075,593.965844402277 976.923076923077,593.965844402277 978.667388949079,593.529411764706 980.411700975081,593.529411764706 982.156013001083,593.529411764706 983.900325027086,593.529411764706 985.644637053088,593.529411764706 987.38894907909,593.529411764706 989.133261105092,592.656546489564 990.877573131094,592.656546489564 992.621885157096,591.34724857685 994.366197183099,591.34724857685 996.110509209101,591.34724857685 997.854821235103,591.34724857685 999.599133261105,591.34724857685 1001.34344528711,591.34724857685 1003.08775731311,591.34724857685 1004.83206933911,591.34724857685 1006.57638136511,591.34724857685 1008.32069339112,591.34724857685 1010.06500541712,591.34724857685 1011.80931744312,591.34724857685 1013.55362946912,591.34724857685 1015.29794149512,590.474383301708 1017.04225352113,590.037950664137 1018.78656554713,589.601518026565 1020.53087757313,589.601518026565 1022.27518959913,589.601518026565 1024.01950162514,589.601518026565 1025.76381365114,589.601518026565 1027.50812567714,589.601518026565 1029.25243770314,589.601518026565 1030.99674972914,589.601518026565 1032.74106175515,589.601518026565 1034.48537378115,589.601518026565 1036.22968580715,589.601518026565 1037.97399783315,589.601518026565 1039.71830985915,589.601518026565 1041.46262188516,589.601518026565 1043.20693391116,589.601518026565 1044.95124593716,589.601518026565 1046.69555796316,589.601518026565 1048.43986998917,589.601518026565 1050.18418201517,589.601518026565 1051.92849404117,589.601518026565 1053.67280606717,589.601518026565 1055.41711809317,589.601518026565 1057.16143011918,589.601518026565 1058.90574214518,589.601518026565 1060.65005417118,589.601518026565 1062.39436619718,589.601518026565 1064.13867822319,589.601518026565 1065.88299024919,589.601518026565 1067.62730227519,589.601518026565 1069.37161430119,589.601518026565 1071.11592632719,589.601518026565 1072.8602383532,589.601518026565 1074.6045503792,589.601518026565 1076.3488624052,589.601518026565 1078.0931744312,589.601518026565 1079.8374864572,589.601518026565 1081.58179848321,589.601518026565 1083.32611050921,589.601518026565 1085.07042253521,589.601518026565 1086.81473456121,589.601518026565 1088.55904658722,589.601518026565 1090.30335861322,588.728652751423 1092.04767063922,589.601518026565 1093.79198266522,589.601518026565 1095.53629469122,589.601518026565 1097.28060671723,589.601518026565 1099.02491874323,589.601518026565 1100.76923076923,589.601518026565 1102.51354279523,589.601518026565 1104.25785482124,589.601518026565 1106.00216684724,589.601518026565 1107.74647887324,589.601518026565 1109.49079089924,589.601518026565 1111.23510292524,589.601518026565 1112.97941495125,589.601518026565 1114.72372697725,589.601518026565 1116.46803900325,589.601518026565 1118.21235102925,589.601518026565 1119.95666305525,589.601518026565 1121.70097508126,589.601518026565 1123.44528710726,589.601518026565 1125.18959913326,589.601518026565 1126.93391115926,589.601518026565 1128.67822318527,589.601518026565 1130.42253521127,589.601518026565 1132.16684723727,589.601518026565 1133.91115926327,589.601518026565 1135.65547128927,589.601518026565 1137.39978331528,589.601518026565 1139.14409534128,589.601518026565 1140.88840736728,589.601518026565 1142.63271939328,589.601518026565 1144.37703141929,589.601518026565 1146.12134344529,589.601518026565 1147.86565547129,589.601518026565 1149.60996749729,589.601518026565 1151.35427952329,589.601518026565 1153.0985915493,589.601518026565 1154.8429035753,589.601518026565 1156.5872156013,589.601518026565 1158.3315276273,588.728652751423 1160.0758396533,588.728652751423 1161.82015167931,587.855787476281 1163.56446370531,587.855787476281 1165.30877573131,586.982922201139 1167.05308775731,586.982922201139 1168.79739978332,586.982922201139 1170.54171180932,586.982922201139 1172.28602383532,586.982922201139 1174.03033586132,586.982922201139 1175.77464788732,586.982922201139 1177.51895991333,586.982922201139 1179.26327193933,586.982922201139 1181.00758396533,586.982922201139 1182.75189599133,586.982922201139 1184.49620801733,586.982922201139 1186.24052004334,586.982922201139 1187.98483206934,586.982922201139 1189.72914409534,586.982922201139 1191.47345612134,586.982922201139 1193.21776814735,586.982922201139 1194.96208017335,586.982922201139 1196.70639219935,586.982922201139 1198.45070422535,586.982922201139 1200.19501625135,586.982922201139 1201.93932827736,586.982922201139 1203.68364030336,586.982922201139 1205.42795232936,586.982922201139 1207.17226435536,586.982922201139 1208.91657638137,586.982922201139 1210.66088840737,586.982922201139 1212.40520043337,586.982922201139 1214.14951245937,586.982922201139 1215.89382448537,586.982922201139 1217.63813651138,586.982922201139 1219.38244853738,586.546489563567 1221.12676056338,586.546489563567 1222.87107258938,586.110056925996 1224.61538461538,586.110056925996 1226.35969664139,586.110056925996 1228.10400866739,586.110056925996 1229.84832069339,586.110056925996 1231.59263271939,586.110056925996 1233.3369447454,586.110056925996 1235.0812567714,586.110056925996 1236.8255687974,586.110056925996 1238.5698808234,580.872865275142 1240.3141928494,580.872865275142 1242.05850487541,580.872865275142 1243.80281690141,580.872865275142 1245.54712892741,580.872865275142 1247.29144095341,580.872865275142 1249.03575297941,580.872865275142 1250.78006500542,580.872865275142 1252.52437703142,580.872865275142 1254.26868905742,580.872865275142 1256.01300108342,580.872865275142 1257.75731310943,580.872865275142 1259.50162513543,580.872865275142 1261.24593716143,580.872865275142 1262.99024918743,580.872865275142 1264.73456121343,580.872865275142 1266.47887323944,580.872865275142 1268.22318526544,580.872865275142 1269.96749729144,580.872865275142 1271.71180931744,580.872865275142 1273.45612134345,580.872865275142 1275.20043336945,580.872865275142 1276.94474539545,580.872865275142 1278.68905742145,580.872865275142 1280.43336944745,580.872865275142 1282.17768147346,580.872865275142 1283.92199349946,580.872865275142 1285.66630552546,580.872865275142 1287.41061755146,580.436432637571 1289.15492957746,580.436432637571 1290.89924160347,580.436432637571 1292.64355362947,580.436432637571 1294.38786565547,580.436432637571 1296.13217768147,580.436432637571 1297.87648970748,580.872865275142 1299.62080173348,580.872865275142 1301.36511375948,580.872865275142 1303.10942578548,580.872865275142 1304.85373781148,580.872865275142 1306.59804983749,580.872865275142 1308.34236186349,580.872865275142 1310.08667388949,580 1311.83098591549,580 1313.5752979415,580 1315.3196099675,580 1317.0639219935,580 1318.8082340195,580 1320.5525460455,580 1322.29685807151,580 1324.04117009751,580 1325.78548212351,580 1327.52979414951,580 1329.27410617551,580 1331.01841820152,580 1332.76273022752,580 1334.50704225352,580 1336.25135427952,580 1337.99566630553,580 1339.73997833153,580 1341.48429035753,580 1343.22860238353,580 1344.97291440953,580 1346.71722643554,580 1348.46153846154,580 1350.20585048754,580 1351.95016251354,580 1353.69447453954,580 1355.43878656555,580 1357.18309859155,580 1358.92741061755,580 1360.67172264355,580 1362.41603466956,580 1364.16034669556,580 1365.90465872156,580 1367.64897074756,580 1369.39328277356,580 1371.13759479957,580 1372.88190682557,580 1374.62621885157,580 1376.37053087757,580 1378.11484290358,580 1379.85915492958,580 1381.60346695558,580 1383.34777898158,580 1385.09209100758,580 1386.83640303359,580 1388.58071505959,580 1390.32502708559,580 1392.06933911159,580 1393.81365113759,580 1395.5579631636,580 1397.3022751896,580 1399.0465872156,580 1400.7908992416,580 1402.53521126761,580 1404.27952329361,580 1406.02383531961,580 1407.76814734561,580 1409.51245937161,580 1411.25677139762,580 1413.00108342362,580.872865275142 1414.74539544962,580.872865275142 1416.48970747562,580.872865275142 1418.23401950163,580.872865275142 1419.97833152763,580.872865275142 1421.72264355363,580.872865275142 1423.46695557963,580.872865275142 1425.21126760563,580.872865275142 1426.95557963164,580.872865275142 1428.69989165764,580.872865275142 1430.44420368364,580.872865275142 1432.18851570964,580.872865275142 1433.93282773564,580.872865275142 1435.67713976165,580.872865275142 1437.42145178765,580.872865275142 1439.16576381365,580.872865275142 1440.91007583965,580.872865275142 1442.65438786566,580.872865275142 1444.39869989166,580.872865275142 1446.14301191766,580.872865275142 1447.88732394366,580.872865275142 1449.63163596966,580.872865275142 1451.37594799567,580.872865275142 1453.12026002167,580.872865275142 1454.86457204767,580.872865275142 1456.60888407367,580.872865275142 1458.35319609967,580.872865275142 1460.09750812568,580.872865275142 1461.84182015168,580.872865275142 1463.58613217768,580.872865275142 1465.33044420368,580.872865275142 1467.07475622969,580.872865275142 1468.81906825569,580.872865275142 1470.56338028169,580.872865275142 1472.30769230769,580.872865275142 1474.05200433369,580.872865275142 1475.7963163597,580.872865275142 1477.5406283857,580.872865275142 1479.2849404117,580.872865275142 1481.0292524377,580.872865275142 1482.77356446371,580.872865275142 1484.51787648971,580.872865275142 1486.26218851571,580.872865275142 1488.00650054171,580.872865275142 1489.75081256771,580.872865275142 1491.49512459372,580.872865275142 1493.23943661972,580.872865275142 1494.98374864572,580.872865275142 1496.72806067172,580.872865275142 1498.47237269772,580.872865275142 1500.21668472373,580.872865275142 1501.96099674973,580.872865275142 1503.70530877573,580.872865275142 1505.44962080173,580.872865275142 1507.19393282774,580.872865275142 1508.93824485374,580.872865275142 1510.68255687974,580.872865275142 1512.42686890574,580.872865275142 1514.17118093174,580.872865275142 1515.91549295775,580.872865275142 1517.65980498375,580.872865275142 1519.40411700975,580.872865275142 1521.14842903575,580.872865275142 1522.89274106176,580.872865275142 1524.63705308776,580.872865275142 1526.38136511376,580.872865275142 1528.12567713976,580.872865275142 1529.86998916576,580.872865275142 1531.61430119177,580.872865275142 1533.35861321777,580.872865275142 1535.10292524377,580.872865275142 1536.84723726977,580.872865275142 1538.59154929577,580.872865275142 1540.33586132178,580.872865275142 1542.08017334778,580.872865275142 1543.82448537378,580.872865275142 1545.56879739978,580.872865275142 1547.31310942579,580.872865275142 1549.05742145179,580.872865275142 1550.80173347779,580.872865275142 1552.54604550379,580.872865275142 1554.29035752979,580.872865275142 1556.0346695558,580.872865275142 1557.7789815818,580.872865275142 1559.5232936078,580.872865275142 1561.2676056338,580.872865275142 1563.01191765981,580.872865275142 1564.75622968581,580.872865275142 1566.50054171181,580.872865275142 1568.24485373781,580.872865275142 1569.98916576381,580.872865275142 1571.73347778982,580.872865275142 1573.47778981582,580.872865275142 1575.22210184182,580.872865275142 1576.96641386782,580.872865275142 1578.71072589382,580.872865275142 1580.45503791983,580.872865275142 1582.19934994583,580.872865275142 1583.94366197183,580.872865275142 1585.68797399783,580.872865275142 1587.43228602384,580.872865275142 1589.17659804984,580.872865275142 1590.92091007584,580.872865275142 1592.66522210184,580.872865275142 1594.40953412784,580.872865275142 1596.15384615385,580.872865275142 1597.89815817985,580.872865275142 1599.64247020585,580.872865275142 1601.38678223185,580.872865275142 1603.13109425785,580.872865275142 1604.87540628386,580.872865275142 1606.61971830986,580.872865275142 1608.36403033586,580.872865275142 1610.10834236186,580.872865275142 1611.85265438787,580.872865275142 1613.59696641387,580.872865275142 1615.34127843987,580.872865275142 1617.08559046587,580.872865275142 1618.82990249187,580.872865275142 1620.57421451788,580.872865275142 1622.31852654388,580.872865275142 1624.06283856988,580.872865275142 1625.80715059588,580.872865275142 1627.55146262189,580.872865275142 1629.29577464789,580.872865275142 1631.04008667389,580.872865275142 1632.78439869989,580.872865275142 1634.52871072589,580.872865275142 1636.2730227519,580.872865275142 1638.0173347779,580.872865275142 1639.7616468039,580.872865275142 1641.5059588299,580.872865275142 1643.2502708559,580.872865275142 1644.99458288191,580.872865275142 1646.73889490791,580.872865275142 1648.48320693391,580.872865275142 1650.22751895991,580.872865275142 1651.97183098592,580.872865275142 1653.71614301192,580.872865275142 1655.46045503792,580.872865275142 1657.20476706392,580.872865275142 1658.94907908992,580.872865275142 1660.69339111593,580.872865275142 1662.43770314193,580.872865275142 1664.18201516793,580.872865275142 1665.92632719393,580.872865275142 1667.67063921994,580.872865275142 1669.41495124594,580.872865275142 1671.15926327194,580.872865275142 1672.90357529794,580.872865275142 1674.64788732394,580.872865275142 1676.39219934995,580.872865275142 1678.13651137595,580.872865275142 1679.88082340195,580.872865275142 1681.62513542795,580.872865275142 1683.36944745395,580.872865275142 1685.11375947996,580.872865275142 1686.85807150596,580.872865275142 1688.60238353196,580.872865275142 1690.34669555796,580.872865275142 1692.09100758397,580.872865275142 1693.83531960997,580.872865275142 1695.57963163597,580.872865275142 1697.32394366197,580.872865275142 1699.06825568797,580.872865275142 1700.81256771398,580.872865275142 1702.55687973998,580.872865275142 1704.30119176598,580.872865275142 1706.04550379198,580.872865275142 1707.78981581798,580.872865275142 1709.53412784399,580.872865275142 1711.27843986999,580.872865275142 1713.02275189599,580.872865275142 1714.76706392199,580.872865275142 1716.511375948,580.872865275142 1718.255687974,580.872865275142 1720,580.872865275142"/>
<g font-family="Segoe UI, sans-serif" font-size="18" fill="#d7e0ea">
<text x="110" y="80">Code-quality history</text>
<text x="110" y="115">verbosity</text><text x="110" y="345">structural erosion</text><text x="110" y="575">supported files</text>
<text x="110" y="850" text-anchor="middle">2024-10-02</text>
<text x="244.312026002167" y="850" text-anchor="middle">2025-11-27</text>
<text x="378.624052004334" y="850" text-anchor="middle">2026-02-14</text>
<text x="512.936078006501" y="850" text-anchor="middle">2026-03-16</text>
<text x="647.248104008667" y="850" text-anchor="middle">2026-04-12</text>
<text x="781.560130010834" y="850" text-anchor="middle">2026-06-11</text>
<text x="915.872156013001" y="850" text-anchor="middle">2026-07-12</text>
<text x="1050.18418201517" y="850" text-anchor="middle">2026-07-26</text>
<text x="1184.49620801733" y="850" text-anchor="middle">2026-08-08</text>
<text x="1318.8082340195" y="850" text-anchor="middle">2026-08-25</text>
<text x="1453.12026002167" y="850" text-anchor="middle">2026-09-02</text>
<text x="1587.43228602384" y="850" text-anchor="middle">2026-09-04</text>
<text x="1720" y="850" text-anchor="middle">2026-09-06</text>
</g>
</svg>
