<?xml version="1.0" encoding="UTF-8"?>
<svg xmlns="http://www.w3.org/2000/svg" width="1800" height="1150" viewBox="0 0 1800 1150">
<title>Broken Engine code-quality history</title>
<desc>seriesDigest=2f940399060f4703391b5b86d4ee8bfc9c4f7da99caa05c03500ca098abdaa09 generatorDigest=77cd70726265e1ca4e56f515a7c407030172a5fb96e8829a654900be19baeffb captureDigest= identityDigest= scbDigest=</desc>
<rect width="1800" height="1150" fill="#10151c"/>
<g fill="none" stroke="#384555" stroke-width="1">
<line x1="110" y1="120" x2="1720" y2="120"/>
<line x1="110" y1="350" x2="1720" y2="350"/>
<line x1="110" y1="580" x2="1720" y2="580"/>
<line x1="110" y1="810" x2="1720" y2="810"/>
</g>
<polyline id="series-verbosity" fill="none" stroke="#65d6ff" stroke-width="3" points="110,342.38781418597 112.343522561863,342.3853090239 114.687045123726,342.38781418597 117.03056768559,342.38931649238 119.374090247453,342.40231168328 121.717612809316,342.61086656585 124.061135371179,342.44393442632 126.404657933042,342.53638389922 128.748180494905,342.53638389922 131.091703056769,342.52020235203 133.435225618632,342.52167630059 135.778748180495,342.52167630059 138.122270742358,342.44690613534 140.465793304221,342.61911011936 142.809315866084,342.50261301279 145.152838427948,342.16179513706 147.496360989811,342.16078127015 149.839883551674,342.19204655682 152.183406113537,342.34508751768 154.5269286754,341.75862506334 156.870451237263,341.75182481756 159.213973799127,342.39077978159 161.55749636099,342.48366013074 163.901018922853,342.27454211295 166.244541484716,342.09252354179 168.588064046579,342.10449927425 170.931586608443,342.10798536654 173.275109170306,342.0460261569 175.618631732169,342.13081761006 177.962154294032,342.13378599282 180.305676855895,342.02998991934 182.649199417758,342.02697592344 184.992721979622,342.15185091916 187.336244541485,342.14393748419 189.679767103348,341.87740430098 192.023289665211,341.66645625553 194.366812227074,341.72236503848 196.710334788937,341.70155258021 199.053857350801,341.60278527066 201.397379912664,341.60015060249 203.740902474527,341.67146974056 206.08442503639,341.54829545454 208.427947598253,341.54777345436 210.771470160116,341.45414146406 213.11499272198,341.37269418215 215.458515283843,341.46730757371 217.802037845706,341.491427518 220.145560407569,341.491427518 222.489082969432,341.45097554948 224.832605531295,341.45150336475 227.176128093159,341.47203744758 229.519650655022,341.72528899053 231.863173216885,341.454095827 234.206695778748,341.46570352542 236.550218340611,341.4514533087 238.893740902475,341.4514533087 241.237263464338,341.36343952978 243.580786026201,341.36343952978 245.924308588064,341.18161117598 248.267831149927,340.9372716199 250.61135371179,339.88404099558 252.954876273654,341.05302942206 255.298398835517,340.6829771385 257.64192139738,340.69949668265 259.985443959243,340.70321879818 262.328966521106,340.10794841196 264.672489082969,340.46665910641 267.016011644833,340.41666666659 269.359534206696,340.34593498233 271.703056768559,340.23951758344 274.046579330422,340.24116752133 276.390101892285,340.35408691741 278.733624454148,340.36818437319 281.077147016012,340.44253261356 283.420669577875,340.39194796445 285.764192139738,340.72894351112 288.107714701601,340.72423712554 290.451237263464,340.34683386994 292.794759825328,340.25060676181 295.138282387191,340.34301537061 297.481804949054,340.34574317843 299.825327510917,340.23762488009 302.16885007278,340.23762488009 304.512372634643,339.85067974145 306.855895196507,339.91362977821 309.19941775837,339.82823043896 311.542940320233,339.85070515645 313.886462882096,339.76904420684 316.229985443959,339.19718077204 318.573508005822,339.19718077204 320.917030567686,338.96678966785 323.260553129549,339.06334566747 325.604075691412,339.06817554511 327.947598253275,339.07300115878 330.291120815138,338.86667768055 332.634643377001,338.71374527118 334.978165938865,337.63927280458 337.321688500728,336.29370996536 339.665211062591,336.4684656416 342.008733624454,336.26883633315 344.352256186317,336.10694022578 346.69577874818,336.31092868145 349.039301310044,336.25193420815 351.382823871907,336.42493565921 353.72634643377,336.37798393485 356.069868995633,335.66517607593 358.413391557496,335.62983301576 360.75691411936,335.83244426984 363.100436681223,335.52104938607 365.443959243086,335.61614691222 367.787481804949,335.69433538968 370.131004366812,335.9383580835 372.474526928675,335.94229691883 374.818049490539,334.51675977658 377.161572052402,334.52886010947 379.505094614265,334.2742748347 381.848617176128,334.31701605716 384.192139737991,334.4702699718 386.535662299854,334.89637027502 388.879184861718,334.70751331948 391.222707423581,335.81215532446 393.566229985444,336.19129757395 395.909752547307,335.50154151057 398.25327510917,335.50233966416 400.596797671033,335.50313772989 402.940320232897,335.7849042271 405.28384279476,335.96302502828 407.627365356623,336.21615779509 409.970887918486,337.41577273453 412.314410480349,336.9213519141 414.657933042213,336.36349339481 417.001455604076,336.61866359454 419.344978165939,336.70983512764 421.688500727802,336.65407112164 424.032023289665,336.55674052595 426.375545851528,336.55674052595 428.719068413392,336.57758709805 431.062590975255,336.42307493667 433.406113537118,336.44363859244 435.749636098981,336.62399838727 438.093158660844,336.69640619515 440.436681222707,336.70773237173 442.780203784571,336.71239048813 445.123726346434,336.71239048813 447.467248908297,336.75543942506 449.81077147016,337.14787208471 452.154294032023,337.15651881396 454.497816593886,337.20390020086 456.84133915575,337.50704023674 459.184861717613,337.16197552026 461.528384279476,336.25093843833 463.871906841339,336.64653971207 466.215429403202,336.44551519648 468.558951965065,336.33558163165 470.902474526929,336.49182750014 473.245997088792,336.49182750014 475.589519650655,336.39716703448 477.933042212518,335.4891577266 480.276564774381,335.5501233666 482.620087336245,335.5501233666 484.963609898108,335.46763570292 487.307132459971,335.46433439355 489.650655021834,335.46472261101 491.994177583697,334.24671474706 494.33770014556,334.03369498098 496.681222707424,334.06168435695 499.024745269287,334.06644605063 501.36826783115,333.52367926148 503.711790393013,333.52367926148 506.055312954876,333.8141412461 508.398835516739,333.7126911947 510.742358078603,333.68801056193 513.085880640466,333.50047303681 515.429403202329,333.50929123497 517.772925764192,333.52013147077 520.116448326055,332.61122968308 522.459970887918,332.65756691207 524.803493449782,332.49083054854 527.147016011645,331.88948715009 529.490538573508,332.00981502465 531.834061135371,332.14868574439 534.177583697234,332.22015550026 536.521106259097,331.40744027814 538.864628820961,331.27383455372 541.208151382824,331.46486701072 543.551673944687,331.49158528226 545.89519650655,330.77751657829 548.238719068413,330.77819100407 550.582241630276,330.75185328317 552.92576419214,330.76739450967 555.269286754003,330.85342839178 557.612809315866,330.80995364734 559.956331877729,330.83666585516 562.299854439592,330.83666585516 564.643377001456,330.85198054201 566.986899563319,333.33955158204 569.330422125182,333.03245543093 571.673944687045,333.42902263544 574.017467248908,333.30893221656 576.360989810771,333.38378529888 578.704512372635,332.9365303243 581.048034934498,332.96175982493 583.391557496361,332.85332489364 585.735080058224,332.96834931665 588.078602620087,332.97341843178 590.42212518195,332.97341843178 592.765647743814,333.01488877222 595.109170305677,333.02083698116 597.45269286754,333.24126641367 599.796215429403,333.28086451938 602.139737991266,333.28086451938 604.48326055313,330.31848667229 606.826783114993,330.31510147916 609.170305676856,332.18949044597 611.513828238719,332.19318889726 613.857350800582,332.18887388796 616.200873362445,332.1901069612 618.544395924309,332.19996540382 620.887918486172,332.09964165184 623.231441048035,332.16788548843 625.574963609898,332.60550966082 627.918486171761,332.68561584838 630.262008733624,332.58882201197 632.605531295488,332.62348539454 634.949053857351,332.61041009464 637.292576419214,332.6169665809 639.636098981077,332.6169665809 641.97962154294,332.78847143599 644.323144104804,332.77526084572 646.666666666667,332.77526084572 649.01018922853,333.22990756973 651.353711790393,333.25005147918 653.697234352256,333.24947661051 656.040756914119,333.27416038393 658.384279475983,333.29133858276 660.727802037846,333.29133858276 663.071324599709,333.75296590061 665.414847161572,333.75794026218 667.758369723435,333.78259842786 670.101892285298,334.35711637615 672.445414847162,336.60512472435 674.788937409025,340.15878978293 677.132459970888,339.58244869065 679.475982532751,339.17710496352 681.819505094614,339.17710496352 684.163027656477,339.17710496352 686.506550218341,339.17710496352 688.850072780204,339.17782987269 691.193595342067,339.17637995706 693.53711790393,339.17637995706 695.880640465793,339.17637995706 698.224163027656,339.36434004623 700.56768558952,339.36719037896 702.911208151383,339.36719037896 705.254730713246,339.37217478647 707.598253275109,339.66950459202 709.941775836972,339.63575493804 712.285298398835,339.63575493804 714.628820960699,339.63748953985 716.972343522562,339.64442214419 719.315866084425,339.64418728383 721.659388646288,339.84466917836 724.002911208151,339.89161777863 726.346433770015,339.82795341109 728.689956331878,339.5589550014 731.033478893741,339.58928984124 733.377001455604,339.5944429779 735.720524017467,339.55786350144 738.06404657933,339.55648618347 740.407569141194,339.56921252852 742.751091703057,339.57539251513 745.09461426492,339.59628145323 747.438136826783,339.59833158169 749.781659388646,339.49819506328 752.125181950509,339.45481702763 754.468704512373,339.40126561749 756.812227074236,339.42631442621 759.155749636099,339.42186234818 761.499272197962,339.45323647683 763.842794759825,339.39275188643 766.186317321689,339.39961808586 768.529839883552,339.3985887227 770.873362445415,339.01744719936 773.216885007278,339.11371607319 775.560407569141,339.10666708471 777.903930131004,339.00267363052 780.247452692868,339.20921044502 782.590975254731,339.21020956134 784.934497816594,339.32942648714 787.278020378457,339.23365731062 789.62154294032,339.23626456785 791.965065502183,339.39921090398 794.308588064047,339.41597779703 796.65211062591,339.19003390821 798.995633187773,339.19704157696 801.339155749636,339.31280521675 803.682678311499,339.31686641323 806.026200873362,339.24652502287 808.369723435226,339.24684102263 810.713245997089,339.20419186296 813.056768558952,339.21969808001 815.400291120815,339.30465887274 817.743813682678,339.24898100772 820.087336244541,339.25519313545 822.430858806405,339.26170814811 824.774381368268,339.26759587924 827.117903930131,339.27069209232 829.461426491994,339.27038255142 831.804949053857,339.2778066078 834.14847161572,339.29478138221 836.491994177584,339.29755395677 838.835516739447,339.31231679979 841.17903930131,339.27780150939 843.522561863173,339.30795946244 845.866084425036,339.30643737718 848.2096069869,339.31615432702 850.553129548763,339.27585816878 852.896652110626,339.25451828463 855.240174672489,339.36360326032 857.583697234352,339.3318217444 859.927219796215,339.3318217444 862.270742358079,339.26834047089 864.614264919942,338.86499833532 866.957787481805,338.9024152979 869.301310043668,338.86231038512 871.644832605531,338.86231038512 873.988355167395,338.8556108131 876.331877729258,338.86819126823 878.675400291121,338.86819126823 881.018922852984,338.88719681039 883.362445414847,338.92493638684 885.70596797671,338.913445355 888.049490538574,338.9158919754 890.393013100437,338.92780380259 892.7365356623,339.03835661275 895.080058224163,338.93253583363 897.423580786026,338.95307247544 899.767103347889,338.98240532143 902.110625909753,339.04966278347 904.454148471616,339.06450155478 906.797671033479,339.01228972835 909.141193595342,338.96617893988 911.484716157205,338.96441423429 913.828238719068,339.33957732945 916.171761280932,339.35519970156 918.515283842795,339.44802428376 920.858806404658,339.48924731187 923.202328966521,339.49232365686 925.545851528384,339.5734798418 927.889374090247,339.55018221467 930.232896652111,339.56504526386 932.576419213974,339.61610265313 934.919941775837,339.71344890377 937.2634643377,339.72483592938 939.606986899563,339.78376268539 941.950509461426,339.80551516401 944.29403202329,339.83691853693 946.637554585153,339.83849677761 948.981077147016,339.84270302428 951.324599708879,339.98151426786 953.668122270742,339.97942708341 956.011644832605,339.97968802899 958.355167394469,339.97472773698 960.698689956332,339.99974011117 963.042212518195,339.99948020887 965.385735080058,339.99948020887 967.729257641921,339.99948020887 970.072780203785,340.00259814499 972.416302765648,340.01349562687 974.759825327511,340.0347033383 977.103347889374,340.01479136384 979.446870451237,340.1230657388 981.7903930131,340.17702105539 984.133915574964,340.04924584247 986.477438136827,340.05027198425 988.82096069869,340.71476234477 991.164483260553,340.75321042587 993.508005822416,340.75186060095 995.85152838428,340.57662245969 998.195050946143,340.64443723979 1000.53857350801,340.36376746722 1002.88209606987,340.36376746722 1005.22561863173,340.30103387863 1007.5691411936,340.36213140201 1009.91266375546,340.36213140201 1012.25618631732,340.3808516915 1014.59970887918,340.492092261 1016.94323144105,340.49539599411 1019.28675400291,340.50655586804 1021.63027656477,340.50340979533 1023.97379912664,340.54395590745 1026.3173216885,340.44773902926 1028.66084425036,340.44821185498 1031.00436681223,340.83028113254 1033.34788937409,340.83005419844 1035.69141193595,340.9513427807 1038.03493449782,340.94810132837 1040.37845705968,340.94340554832 1042.72197962154,340.85663428023 1045.06550218341,340.89547813199 1047.40902474527,341.28088941719 1049.75254730713,341.28714586178 1052.096069869,341.20103729315 1054.43959243086,341.22594069702 1056.78311499272,341.28058687404 1059.12663755459,341.25623516887 1061.47016011645,341.3124022616 1063.81368267831,341.32179764476 1066.15720524017,341.32888291229 1068.50072780204,341.28350429179 1070.8442503639,341.22521008408 1073.18777292576,340.75822928485 1075.53129548763,340.76326178697 1077.87481804949,340.83671536805 1080.21834061135,340.84476583081 1082.56186317322,340.84476583081 1084.90538573508,340.89836803599 1087.24890829694,340.89775336536 1089.59243085881,340.90410096056 1091.93595342067,340.90410096056 1094.27947598253,340.90410096056 1096.6229985444,340.90410096056 1098.96652110626,340.90410096056 1101.31004366812,340.9268109209 1103.65356622999,340.9268109209 1105.99708879185,340.9268109209 1108.34061135371,340.87730755837 1110.68413391557,340.87730755837 1113.02765647744,340.87730755837 1115.3711790393,340.87730755837 1117.71470160116,340.8049999999 1120.05822416303,340.8049999999 1122.40174672489,340.8049999999 1124.74526928675,340.8049999999 1127.08879184862,340.8049999999 1129.43231441048,340.81079319551 1131.77583697234,340.81079319551 1134.11935953421,340.81079319551 1136.46288209607,340.81079319551 1138.80640465793,340.81079319551 1141.1499272198,340.82315419499 1143.49344978166,340.82395053687 1145.83697234352,340.78936462589 1148.18049490539,340.78936462589 1150.52401746725,340.79197557784 1152.86754002911,340.79197557784 1155.21106259098,340.73598686207 1157.55458515284,340.73598686207 1159.8981077147,340.73598686207 1162.24163027656,340.73718779718 1164.58515283843,340.73718779718 1166.92867540029,340.72345365814 1169.27219796215,340.72345365814 1171.61572052402,340.72345365814 1173.95924308588,340.49189419788 1176.30276564774,340.4851964907 1178.64628820961,340.4851964907 1180.98981077147,340.4851964907 1183.33333333333,340.4851964907 1185.6768558952,340.4851964907 1188.02037845706,340.4851964907 1190.36390101892,340.4851964907 1192.70742358079,340.52701288155 1195.05094614265,340.52701288155 1197.39446870451,340.5274175976 1199.73799126638,340.5274175976 1202.08151382824,340.53510063812 1204.4250363901,340.52061800755 1206.76855895197,340.52061800755 1209.11208151383,340.30634526909 1211.45560407569,340.30634526909 1213.79912663755,340.0110728347 1216.14264919942,339.69966652338 1218.48617176128,339.81185884277 1220.82969432314,339.74914644362 1223.17321688501,340.08507157466 1225.51673944687,340.08588254546 1227.86026200873,340.08588254546 1230.2037845706,340.08628798095 1232.54730713246,340.12480339892 1234.89082969432,340.08839260193 1237.23435225619,340.09162891307 1239.57787481805,340.09162891307 1241.92139737991,340.09162891307 1244.26491994178,340.10994839168 1246.60844250364,340.10994839168 1248.9519650655,340.10994839168 1251.29548762737,340.10994839168 1253.63901018923,340.04444716295 1255.98253275109,340.04404118673 1258.32605531295,340.04992460375 1260.66957787482,340.05073556374 1263.01310043668,340.0511409944 1265.35662299854,340.0511409944 1267.70014556041,340.11715089044 1270.04366812227,340.11715089044 1272.38719068413,340.11493550169 1274.730713246,340.1155787075 1277.07423580786,340.11577983514 1279.41775836972,340.11577983514 1281.76128093159,340.13036139193 1284.10480349345,340.13036139193 1286.44832605531,340.14879321197 1288.79184861718,340.1551881529 1291.13537117904,340.82611911947 1293.4788937409,341.52584966461 1295.82241630277,341.51330299832 1298.16593886463,341.45047379781 1300.50946142649,341.45047379781 1302.85298398836,341.45047379781 1305.19650655022,341.45081205122 1307.54002911208,341.50559191781 1309.88355167394,341.50559191781 1312.22707423581,341.50559191781 1314.57059679767,341.50559191781 1316.91411935953,341.50726118651 1319.2576419214,341.51193165069 1321.60116448326,341.51226505892 1323.94468704512,341.54906620064 1326.28820960699,341.66107217863 1328.63173216885,341.6653259824 1330.97525473071,341.68034311894 1333.31877729258,341.52983462299 1335.66229985444,341.52983462299 1338.0058224163,341.53083267878 1340.34934497817,341.53083267878 1342.69286754003,341.53083267878 1345.03639010189,341.53083267878 1347.37991266376,341.53083267878 1349.72343522562,341.53083267878 1352.06695778748,341.53083267878 1354.41048034934,341.53199677962 1356.75400291121,341.53199677962 1359.09752547307,341.53199677962 1361.44104803493,341.53166421204 1363.7845705968,341.53166421204 1366.12809315866,341.53166421204 1368.47161572052,341.53166421204 1370.81513828239,341.53166421204 1373.15866084425,341.53166421204 1375.50218340611,341.53365922606 1377.84570596798,341.53365922606 1380.18922852984,341.60854120466 1382.5327510917,341.61002315446 1384.87627365357,341.41062026583 1387.21979621543,341.41062026583 1389.56331877729,341.41062026583 1391.90684133916,341.41062026583 1394.25036390102,341.4109564911 1396.59388646288,341.4109564911 1398.93740902475,341.375450133 1401.28093158661,341.375450133 1403.62445414847,341.375450133 1405.96797671033,341.375450133 1408.3114992722,341.3746060951 1410.65502183406,341.3746060951 1412.99854439592,341.3746060951 1415.34206695779,341.3746060951 1417.68558951965,341.37696898538 1420.02911208151,341.37696898538 1422.37263464338,341.33761568201 1424.71615720524,341.44951798198 1427.0596797671,341.30113233566 1429.40320232897,341.18671620998 1431.74672489083,341.18671620998 1434.09024745269,341.18671620998 1436.43377001456,341.18671620998 1438.77729257642,341.18671620998 1441.12081513828,341.18671620998 1443.46433770015,341.18671620998 1445.80786026201,341.18654564451 1448.15138282387,341.18654564451 1450.49490538574,341.18910343219 1452.8384279476,341.16428419452 1455.18195050946,341.16428419452 1457.52547307132,341.16669571784 1459.86899563319,341.16669571784 1462.21251819505,341.16669571784 1464.55604075691,341.07948286861 1466.89956331878,341.07948286861 1469.24308588064,341.07948286861 1471.5866084425,341.07948286861 1473.93013100437,341.07982762941 1476.27365356623,341.08224021027 1478.61717612809,341.08620090365 1480.96069868996,341.08861003865 1483.30422125182,341.08861003865 1485.64774381368,341.08861003865 1487.99126637555,341.10200855847 1490.33478893741,341.10200855847 1492.67831149927,341.10320902001 1495.02183406114,341.10320902001 1497.365356623,341.26795596082 1499.70887918486,341.26795596082 1502.05240174672,341.26795596082 1504.39592430859,341.26526124954 1506.73944687045,341.25886524831 1509.08296943231,341.26021273321 1511.42649199418,341.1245233852 1513.77001455604,341.12911256646 1516.1135371179,341.13182984258 1518.45705967977,341.14217420413 1520.80058224163,341.14217420413 1523.14410480349,341.11887306651 1525.48762736536,341.12602592621 1527.83114992722,341.127269944 1530.17467248908,341.127269944 1532.51819505095,341.127269944 1534.86171761281,341.12811878154 1537.20524017467,341.12811878154 1539.54876273654,341.12811878154 1541.8922852984,341.1289674567 1544.23580786026,341.1289674567 1546.57933042213,341.1289674567 1548.92285298399,341.12828852959 1551.26637554585,341.12828852959 1553.60989810771,341.12828852959 1555.95342066958,341.13168212692 1558.29694323144,341.13524261087 1560.6404657933,341.13524261087 1562.98398835517,341.13524261087 1565.32751091703,341.13524261087 1567.67103347889,341.13524261087 1570.01455604076,341.14167812932 1572.35807860262,341.14590692956 1574.70160116448,341.14742830964 1577.04512372635,341.0844485463 1579.38864628821,341.08410568001 1581.73216885007,341.08410568001 1584.07569141194,341.08547698693 1586.4192139738,341.08736184521 1588.76273653566,341.08736184521 1591.10625909753,341.0889034094 1593.44978165939,341.08770446126 1595.79330422125,341.08856088558 1598.13682678311,341.0889034094 1600.48034934498,341.08924590677 1602.82387190684,340.90926449253 1605.1673944687,341.1303249995 1607.51091703057,341.1303249995 1609.85443959243,341.1303249995 1612.19796215429,341.1303249995 1614.54148471616,341.1303249995 1616.88500727802,341.1303249995 1619.22852983988,341.1514804202 1621.57205240175,341.16042974642 1623.91557496361,341.16042974642 1626.25909752547,341.28978192904 1628.60262008734,341.28978192904 1630.9461426492,341.28978192904 1633.28966521106,341.28978192904 1635.63318777293,341.28978192904 1637.97671033479,341.28978192904 1640.32023289665,341.28978192904 1642.66375545852,341.28978192904 1645.00727802038,341.28830542633 1647.35080058224,341.28830542633 1649.6943231441,341.28830542633 1652.03784570597,341.28830542633 1654.38136826783,341.28830542633 1656.72489082969,341.28830542633 1659.06841339156,341.28830542633 1661.41193595342,341.29240558757 1663.75545851528,341.29240558757 1666.09898107715,341.29240558757 1668.44250363901,341.29240558757 1670.78602620087,341.29240558757 1673.12954876274,341.2922416553 1675.4730713246,341.2922416553 1677.81659388646,341.29420843613 1680.16011644833,341.29273343371 1682.50363901019,341.29273343371 1684.84716157205,341.29240558757 1687.19068413392,341.29240558757 1689.53420669578,341.29240558757 1691.87772925764,341.2919137719 1694.22125181951,341.2919137719 1696.56477438137,341.2919137719 1698.90829694323,341.2919137719 1701.25181950509,341.2919137719 1703.59534206696,341.2919137719 1705.93886462882,341.31937427483 1708.28238719068,341.31937427483 1710.62590975255,341.31937427483 1712.96943231441,341.31937427483 1715.31295487627,341.32310857576 1717.65647743814,341.32310857576 1720,341.32310857576"/>
<polyline id="series-structural-erosion" fill="none" stroke="#ffb454" stroke-width="3" points="110,421.47611514667 112.343522561863,420.98864569674 114.687045123726,421.00153048074 117.03056768559,421.00153048074 119.374090247453,422.16490975669 121.717612809316,422.03591841808 124.061135371179,421.29224779733 126.404657933042,420.31145149368 128.748180494905,420.31145149368 131.091703056769,420.31145149368 133.435225618632,420.31145149368 135.778748180495,420.21318226592 138.122270742358,420.77420276242 140.465793304221,420.6563240056 142.809315866084,420.80079638063 145.152838427948,419.75271983321 147.496360989811,419.76320916836 149.839883551674,419.58883280053 152.183406113537,421.27977427035 154.5269286754,421.2672699742 156.870451237263,421.13429727027 159.213973799127,421.99844736387 161.55749636099,421.98187929317 163.901018922853,421.59773984863 166.244541484716,421.49022239102 168.588064046579,422.56473704951 170.931586608443,422.76344227247 173.275109170306,422.8813036521 175.618631732169,422.78010272474 177.962154294032,422.75194956301 180.305676855895,422.84998520921 182.649199417758,422.79263619087 184.992721979622,421.42409985524 187.336244541485,421.26261840521 189.679767103348,421.73224991281 192.023289665211,423.12328222759 194.366812227074,424.09465220089 196.710334788937,423.82239811567 199.053857350801,422.98026941485 201.397379912664,423.03750255896 203.740902474527,423.74992323864 206.08442503639,423.35789752972 208.427947598253,423.46506973065 210.771470160116,424.17591525671 213.11499272198,423.55875674661 215.458515283843,425.64962382712 217.802037845706,425.77565749591 220.145560407569,425.77565749591 222.489082969432,425.71157819963 224.832605531295,425.75893231267 227.176128093159,427.61919929374 229.519650655022,427.18383016187 231.863173216885,426.26420635539 234.206695778748,426.89027674633 236.550218340611,426.58756627409 238.893740902475,426.58756627409 241.237263464338,426.65215861435 243.580786026201,426.65215861435 245.924308588064,426.96232236401 248.267831149927,427.05090768074 250.61135371179,429.10463638916 252.954876273654,430.00850474415 255.298398835517,431.39692776919 257.64192139738,431.69058553458 259.985443959243,431.74480000528 262.328966521106,431.59240461831 264.672489082969,432.13924809858 267.016011644833,431.48115641787 269.359534206696,432.06216634547 271.703056768559,432.05000865242 274.046579330422,432.05000865242 276.390101892285,432.06724897586 278.733624454148,432.25793901162 281.077147016012,432.3471640469 283.420669577875,432.21402394851 285.764192139738,431.92605456175 288.107714701601,432.13487871199 290.451237263464,432.38940676966 292.794759825328,432.42818042542 295.138282387191,432.32093298091 297.481804949054,432.35451947427 299.825327510917,432.43343503233 302.16885007278,432.43343503233 304.512372634643,432.9967905438 306.855895196507,432.94929757631 309.19941775837,432.49807714275 311.542940320233,433.50472755389 313.886462882096,433.49488134152 316.229985443959,433.632292559 318.573508005822,433.61397830806 320.917030567686,433.8834580882 323.260553129549,433.68044878002 325.604075691412,433.68044878002 327.947598253275,433.7145745599 330.291120815138,433.38721692081 332.634643377001,433.55223563192 334.978165938865,437.79695961648 337.321688500728,440.69416693252 339.665211062591,440.637118417 342.008733624454,440.8203101556 344.352256186317,439.31447127611 346.69577874818,439.51076880065 349.039301310044,439.10278203496 351.382823871907,438.14403061422 353.72634643377,440.70883613104 356.069868995633,441.56821673649 358.413391557496,441.64284459131 360.75691411936,441.28671768788 363.100436681223,441.38535663259 365.443959243086,440.95329628693 367.787481804949,440.7674973164 370.131004366812,440.71407536958 372.474526928675,440.82759183071 374.818049490539,441.04025233219 377.161572052402,441.09094416199 379.505094614265,440.81740567972 381.848617176128,440.23357401368 384.192139737991,440.70750670896 386.535662299854,442.30553219251 388.879184861718,439.71046049637 391.222707423581,441.63466854556 393.566229985444,442.38604055761 395.909752547307,439.57308470671 398.25327510917,439.63661886274 400.596797671033,439.63399455768 402.940320232897,438.38196447641 405.28384279476,439.06867350646 407.627365356623,439.66867477832 409.970887918486,437.41129292916 412.314410480349,435.68472798202 414.657933042213,431.86706145787 417.001455604076,431.66796150661 419.344978165939,428.91553466049 421.688500727802,429.12701496343 424.032023289665,429.5127244204 426.375545851528,429.5127244204 428.719068413392,429.81475374419 431.062590975255,429.86878216766 433.406113537118,429.58766691108 435.749636098981,430.52420499944 438.093158660844,430.78468002359 440.436681222707,430.61646452592 442.780203784571,430.16783346686 445.123726346434,430.16783346686 447.467248908297,430.71003680224 449.81077147016,431.86455798354 452.154294032023,431.91874938179 454.497816593886,432.21080582646 456.84133915575,431.92013463798 459.184861717613,431.84640735989 461.528384279476,436.55797435482 463.871906841339,436.2089776945 466.215429403202,436.43602560264 468.558951965065,436.48582561894 470.902474526929,435.85135396717 473.245997088792,435.84183947828 475.589519650655,437.13783735522 477.933042212518,436.98630918854 480.276564774381,436.54764830012 482.620087336245,436.54764830012 484.963609898108,434.33261918617 487.307132459971,434.59468552581 489.650655021834,434.98441034026 491.994177583697,431.94507165566 494.33770014556,432.35927838932 496.681222707424,430.98796592954 499.024745269287,430.21602087473 501.36826783115,431.23552971187 503.711790393013,431.23552971187 506.055312954876,432.51992917181 508.398835516739,432.12179277367 510.742358078603,431.86327468612 513.085880640466,431.18718920473 515.429403202329,431.1355366831 517.772925764192,431.06776429706 520.116448326055,433.69336446429 522.459970887918,433.46500740075 524.803493449782,434.23464433679 527.147016011645,436.90580800105 529.490538573508,436.24521030842 531.834061135371,436.7089623872 534.177583697234,435.07379829742 536.521106259097,433.25824732939 538.864628820961,431.61410875231 541.208151382824,432.15086270988 543.551673944687,432.52600119021 545.89519650655,426.07368180233 548.238719068413,425.91361163023 550.582241630276,426.05555742099 552.92576419214,426.0826451919 555.269286754003,426.16788313394 557.612809315866,426.05273227924 559.956331877729,425.68738000244 562.299854439592,425.68738000244 564.643377001456,425.75009231327 566.986899563319,435.47376453439 569.330422125182,434.23516601566 571.673944687045,445.71886320557 574.017467248908,447.82267273154 576.360989810771,447.74228660638 578.704512372635,445.90893213116 581.048034934498,446.25919713545 583.391557496361,445.67667778915 585.735080058224,445.00211786165 588.078602620087,443.72159977062 590.42212518195,443.72159977062 592.765647743814,443.91422073964 595.109170305677,443.42624948468 597.45269286754,444.81949483577 599.796215429403,444.9655010141 602.139737991266,444.96586328365 604.48326055313,453.65619068436 606.826783114993,453.64759172036 609.170305676856,451.56855579477 611.513828238719,451.59955076382 613.857350800582,451.53276366811 616.200873362445,451.52616457458 618.544395924309,451.58201613307 620.887918486172,451.56050910677 623.231441048035,451.95219970247 625.574963609898,452.28644146213 627.918486171761,450.31673985868 630.262008733624,449.95410748023 632.605531295488,449.92526536983 634.949053857351,449.67821407971 637.292576419214,449.64930034455 639.636098981077,449.65036600194 641.97962154294,449.80901922684 644.323144104804,449.74917968593 646.666666666667,449.71085541682 649.01018922853,449.51429430193 651.353711790393,448.81662522816 653.697234352256,448.76846292594 656.040756914119,448.28137836468 658.384279475983,448.31163100528 660.727802037846,448.31163100528 663.071324599709,448.80443108494 665.414847161572,448.87652641275 667.758369723435,448.83248928956 670.101892285298,448.83571546506 672.445414847162,447.91085058694 674.788937409025,461.89258894082 677.132459970888,462.52481920441 679.475982532751,461.16092444404 681.819505094614,461.16092444404 684.163027656477,461.16092444404 686.506550218341,461.16092444404 688.850072780204,461.18352123081 691.193595342067,461.6059899258 693.53711790393,461.6059899258 695.880640465793,461.6059899258 698.224163027656,459.8968524416 700.56768558952,459.89862376889 702.911208151383,459.89862376889 705.254730713246,459.22410147353 707.598253275109,459.25546929259 709.941775836972,459.27026896321 712.285298398835,459.27026896321 714.628820960699,459.322057574 716.972343522562,459.17871196069 719.315866084425,459.37390623871 721.659388646288,459.12572204817 724.002911208151,459.36893897195 726.346433770015,460.09372759941 728.689956331878,460.10616589729 731.033478893741,460.01145566676 733.377001455604,460.11770743161 735.720524017467,460.0667230793 738.06404657933,460.06505939109 740.407569141194,459.44402930939 742.751091703057,459.46204057098 745.09461426492,458.83110566992 747.438136826783,458.88985817563 749.781659388646,455.51149537426 752.125181950509,455.62798762668 754.468704512373,455.74931084556 756.812227074236,455.86722035683 759.155749636099,456.03378837163 761.499272197962,455.97049609372 763.842794759825,455.32702225391 766.186317321689,455.49582819769 768.529839883552,455.55942692852 770.873362445415,455.22834925356 773.216885007278,455.57724091244 775.560407569141,455.41697111874 777.903930131004,453.35013121708 780.247452692868,453.9787099687 782.590975254731,453.96594470282 784.934497816594,453.67530522536 787.278020378457,451.02858486124 789.62154294032,451.01204316303 791.965065502183,453.90366621592 794.308588064047,454.48047292204 796.65211062591,453.50512019353 798.995633187773,453.1849176134 801.339155749636,453.50630522207 803.682678311499,453.1337433816 806.026200873362,452.82387785799 808.369723435226,452.76188750635 810.713245997089,452.63552877557 813.056768558952,452.24679709721 815.400291120815,452.447120835 817.743813682678,450.71416183289 820.087336244541,450.62857464413 822.430858806405,450.17806442803 824.774381368268,449.90912878971 827.117903930131,449.88499089852 829.461426491994,449.89236693688 831.804949053857,449.88306526515 834.14847161572,450.00779059918 836.491994177584,450.00960961444 838.835516739447,449.04561774398 841.17903930131,448.56106402153 843.522561863173,448.51501155301 845.866084425036,448.38328038034 848.2096069869,448.23668217557 850.553129548763,448.09444284386 852.896652110626,447.90597865771 855.240174672489,444.97492925713 857.583697234352,447.46397353502 859.927219796215,447.46397353502 862.270742358079,447.27947487731 864.614264919942,446.72139031494 866.957787481805,446.70471549641 869.301310043668,446.42535921014 871.644832605531,446.42535921014 873.988355167395,444.76452284397 876.331877729258,444.71399467021 878.675400291121,444.71399467021 881.018922852984,444.80211525055 883.362445414847,445.11945947946 885.70596797671,445.24881165863 888.049490538574,445.24913258476 890.393013100437,445.08119901902 892.7365356623,444.52079723862 895.080058224163,443.54476300424 897.423580786026,443.56857337083 899.767103347889,443.34742722635 902.110625909753,443.4438144959 904.454148471616,442.11265323318 906.797671033479,442.10394679317 909.141193595342,442.09657579917 911.484716157205,442.09657579917 913.828238719068,443.38323532191 916.171761280932,443.2971659048 918.515283842795,443.31284132066 920.858806404658,443.28299100986 923.202328966521,443.29477858829 925.545851528384,443.59113749737 927.889374090247,443.59670924208 930.232896652111,443.54620195761 932.576419213974,442.97772122458 934.919941775837,444.55386358836 937.2634643377,444.60849445382 939.606986899563,440.97488221197 941.950509461426,440.16362059192 944.29403202329,440.17881930311 946.637554585153,440.11922918064 948.981077147016,440.11265803257 951.324599708879,440.23872173568 953.668122270742,440.8760709784 956.011644832605,440.87736586943 958.355167394469,440.95071972274 960.698689956332,440.92839738922 963.042212518195,440.60231874563 965.385735080058,440.60231874563 967.729257641921,440.60231874563 970.072780203785,440.60390579554 972.416302765648,440.16999425394 974.759825327511,440.17096530198 977.103347889374,440.41208564696 979.446870451237,441.23228899863 981.7903930131,441.58875336381 984.133915574964,441.58782468982 986.477438136827,441.58876229793 988.82096069869,445.52561272011 991.164483260553,444.90736358244 993.508005822416,444.80692370438 995.85152838428,442.8135292924 998.195050946143,448.39415710587 1000.53857350801,448.31649740807 1002.88209606987,448.31649740807 1005.22561863173,449.18652462681 1007.5691411936,448.6361595227 1009.91266375546,448.6361595227 1012.25618631732,448.29852749933 1014.59970887918,449.06601199394 1016.94323144105,449.47086538499 1019.28675400291,449.68394222833 1021.63027656477,449.54954275091 1023.97379912664,449.48778076121 1026.3173216885,449.75683690941 1028.66084425036,449.70238831688 1031.00436681223,450.16912544721 1033.34788937409,450.1722950411 1035.69141193595,458.01252211004 1038.03493449782,461.68326269299 1040.37845705968,467.69600672809 1042.72197962154,467.58272438534 1045.06550218341,469.25396122524 1047.40902474527,470.07657466595 1049.75254730713,470.48896484167 1052.096069869,472.84980693602 1054.43959243086,472.65473175154 1056.78311499272,472.8580548892 1059.12663755459,469.74005944691 1061.47016011645,469.89516306985 1063.81368267831,469.55965483313 1066.15720524017,469.38405842294 1068.50072780204,468.40760498159 1070.8442503639,469.27944348069 1073.18777292576,464.8576815039 1075.53129548763,464.82778381379 1077.87481804949,464.16079801146 1080.21834061135,463.81694936225 1082.56186317322,463.81694936225 1084.90538573508,464.39409974955 1087.24890829694,464.3486411615 1089.59243085881,464.7086495447 1091.93595342067,464.7086495447 1094.27947598253,464.7086495447 1096.6229985444,464.7086495447 1098.96652110626,464.7086495447 1101.31004366812,463.77370491106 1103.65356622999,463.77370491106 1105.99708879185,463.77370491106 1108.34061135371,462.81670257339 1110.68413391557,462.81670257339 1113.02765647744,462.81670257339 1115.3711790393,462.81670257339 1117.71470160116,462.45288373097 1120.05822416303,462.45288373097 1122.40174672489,462.45288373097 1124.74526928675,462.45288373097 1127.08879184862,462.45288373097 1129.43231441048,462.27577929887 1131.77583697234,462.27577929887 1134.11935953421,462.27577929887 1136.46288209607,462.27577929887 1138.80640465793,462.27577929887 1141.1499272198,462.35861543463 1143.49344978166,462.39317287161 1145.83697234352,462.08154270727 1148.18049490539,462.08154270727 1150.52401746725,462.12382883862 1152.86754002911,462.12382883862 1155.21106259098,460.47669240382 1157.55458515284,460.47669240382 1159.8981077147,460.47669240382 1162.24163027656,460.49029941174 1164.58515283843,460.49029941174 1166.92867540029,458.46920870175 1169.27219796215,458.46920870175 1171.61572052402,458.46920870175 1173.95924308588,457.62773189246 1176.30276564774,457.57009448011 1178.64628820961,457.57009448011 1180.98981077147,457.57009448011 1183.33333333333,457.57009448011 1185.6768558952,457.57009448011 1188.02037845706,457.57009448011 1190.36390101892,457.57009448011 1192.70742358079,457.42932715162 1195.05094614265,457.42932715162 1197.39446870451,457.43579680621 1199.73799126638,457.43579680621 1202.08151382824,457.20605320423 1204.4250363901,456.99789294002 1206.76855895197,456.99789294002 1209.11208151383,455.76301105316 1211.45560407569,455.76301105316 1213.79912663755,451.68608132426 1216.14264919942,451.24981778334 1218.48617176128,452.3213724037 1220.82969432314,451.80078755561 1223.17321688501,453.71320653551 1225.51673944687,453.72734607186 1227.86026200873,453.72734607186 1230.2037845706,453.7602066866 1232.54730713246,453.65825916199 1234.89082969432,453.75499094348 1237.23435225619,453.75647015628 1239.57787481805,453.75650023223 1241.92139737991,453.75650023223 1244.26491994178,453.72821983841 1246.60844250364,453.72821983841 1248.9519650655,453.72821983841 1251.29548762737,453.72821983841 1253.63901018923,453.34032176745 1255.98253275109,453.34462857081 1258.32605531295,453.29906820431 1260.66957787482,453.30169753579 1263.01310043668,453.31479687046 1265.35662299854,453.31479687046 1267.70014556041,453.34326157685 1270.04366812227,453.34326157685 1272.38719068413,453.43182439107 1274.730713246,453.1601590817 1277.07423580786,453.1601590817 1279.41775836972,453.1601590817 1281.76128093159,453.13006899176 1284.10480349345,453.13006899176 1286.44832605531,452.84625368629 1288.79184861718,452.82907845722 1291.13537117904,452.80183237524 1293.4788937409,453.73266269528 1295.82241630277,454.52789551344 1298.16593886463,453.63787244522 1300.50946142649,453.63787244522 1302.85298398836,453.63787244522 1305.19650655022,453.63344121416 1307.54002911208,453.38358772318 1309.88355167394,453.38358772318 1312.22707423581,453.38358772318 1314.57059679767,453.38358772318 1316.91411935953,453.34973079237 1319.2576419214,453.34179668914 1321.60116448326,453.34486214248 1323.94468704512,453.00009984035 1326.28820960699,452.98765830085 1328.63173216885,453.02272545095 1330.97525473071,453.11594363261 1333.31877729258,452.98750630719 1335.66229985444,452.98750630719 1338.0058224163,453.41446990966 1340.34934497817,453.41446990966 1342.69286754003,453.41446990966 1345.03639010189,453.41446990966 1347.37991266376,453.41446990966 1349.72343522562,453.41446990966 1352.06695778748,453.41446990966 1354.41048034934,453.43360110634 1356.75400291121,453.43360110634 1359.09752547307,453.43360110634 1361.44104803493,453.42983077315 1363.7845705968,453.42983077315 1366.12809315866,453.42983077315 1368.47161572052,453.42983077315 1370.81513828239,453.42983077315 1373.15866084425,453.42983077315 1375.50218340611,453.13733127442 1377.84570596798,453.13733127442 1380.18922852984,453.83280652861 1382.5327510917,453.78449797468 1384.87627365357,453.48938507151 1387.21979621543,453.48938507151 1389.56331877729,453.48938507151 1391.90684133916,453.48938507151 1394.25036390102,453.86951476712 1396.59388646288,453.86951476712 1398.93740902475,453.72076343621 1401.28093158661,453.72076343621 1403.62445414847,453.72076343621 1405.96797671033,453.72076343621 1408.3114992722,453.80285395475 1410.65502183406,453.80285395475 1412.99854439592,453.80285395475 1415.34206695779,453.80285395475 1417.68558951965,453.81985129906 1420.02911208151,453.81985129906 1422.37263464338,454.4825041284 1424.71615720524,452.08929578499 1427.0596797671,451.1543744561 1429.40320232897,455.43169808475 1431.74672489083,455.43169808475 1434.09024745269,455.43169808475 1436.43377001456,455.43169808475 1438.77729257642,455.43169808475 1441.12081513828,455.43169808475 1443.46433770015,455.43169808475 1445.80786026201,455.43429666247 1448.15138282387,455.43429666247 1450.49490538574,455.44846992487 1452.8384279476,455.38067901233 1455.18195050946,455.38067901233 1457.52547307132,455.29161709926 1459.86899563319,455.29161709926 1462.21251819505,455.29161709926 1464.55604075691,454.61294745908 1466.89956331878,454.61294745908 1469.24308588064,454.61294745908 1471.5866084425,454.61294745908 1473.93013100437,454.62582516207 1476.27365356623,454.65697954688 1478.61717612809,454.50543122622 1480.96069868996,454.46678469675 1483.30422125182,454.46678469675 1485.64774381368,454.46678469675 1487.99126637555,453.54182067736 1490.33478893741,453.54182067736 1492.67831149927,453.56099402407 1495.02183406114,453.56099402407 1497.365356623,453.51954741733 1499.70887918486,453.51954741733 1502.05240174672,453.51954741733 1504.39592430859,453.66126086278 1506.73944687045,453.59499476353 1509.08296943231,453.55626053161 1511.42649199418,452.46884575778 1513.77001455604,452.49838925433 1516.1135371179,452.33740077227 1518.45705967977,452.32256352908 1520.80058224163,452.32256352908 1523.14410480349,452.91861169411 1525.48762736536,452.83726708903 1527.83114992722,452.53054900709 1530.17467248908,452.53054900709 1532.51819505095,452.53054900709 1534.86171761281,452.53285465589 1537.20524017467,452.53285465589 1539.54876273654,452.53285465589 1541.8922852984,452.5293483949 1544.23580786026,452.5293483949 1546.57933042213,452.5293483949 1548.92285298399,452.52570666483 1551.26637554585,452.52570666483 1553.60989810771,452.52570666483 1555.95342066958,452.47674819714 1558.29694323144,452.30474046154 1560.6404657933,452.30474046154 1562.98398835517,452.30474046154 1565.32751091703,452.30474046154 1567.67103347889,452.30474046154 1570.01455604076,452.44702478148 1572.35807860262,452.41265487891 1574.70160116448,452.34792790401 1577.04512372635,452.34792790401 1579.38864628821,452.33673500461 1581.73216885007,452.33673500461 1584.07569141194,452.38937734665 1586.4192139738,452.31227883919 1588.76273653566,452.31227883919 1591.10625909753,452.7187535007 1593.44978165939,452.76728238957 1595.79330422125,452.78869366158 1598.13682678311,452.79946080338 1600.48034934498,452.79946080338 1602.82387190684,451.44047541187 1605.1673944687,452.18518742363 1607.51091703057,452.18518742363 1609.85443959243,452.18518742363 1612.19796215429,452.18518742363 1614.54148471616,452.18518742363 1616.88500727802,452.18518742363 1619.22852983988,451.78543543833 1621.57205240175,451.68698833777 1623.91557496361,451.68698833777 1626.25909752547,459.68072022651 1628.60262008734,459.68072022651 1630.9461426492,459.68072022651 1633.28966521106,459.68072022651 1635.63318777293,459.67954351638 1637.97671033479,459.67954351638 1640.32023289665,459.67954351638 1642.66375545852,459.67954351638 1645.00727802038,459.67394646201 1647.35080058224,459.67394646201 1649.6943231441,459.67394646201 1652.03784570597,459.67394646201 1654.38136826783,459.67394646201 1656.72489082969,459.67394646201 1659.06841339156,459.67394646201 1661.41193595342,459.80954883529 1663.75545851528,459.80954883529 1666.09898107715,459.80954883529 1668.44250363901,459.80954883529 1670.78602620087,459.80954883529 1673.12954876274,459.7878215603 1675.4730713246,459.7878215603 1677.81659388646,459.70184838876 1680.16011644833,459.69628823789 1682.50363901019,459.69628823789 1684.84716157205,459.68721048404 1687.19068413392,459.68721048404 1689.53420669578,459.68721048404 1691.87772925764,459.48014362488 1694.22125181951,459.48014362488 1696.56477438137,459.48014362488 1698.90829694323,459.48014362488 1701.25181950509,459.48014362488 1703.59534206696,459.48014362488 1705.93886462882,458.26612302713 1708.28238719068,458.26612302713 1710.62590975255,458.26612302713 1712.96943231441,458.26612302713 1715.31295487627,458.24279834211 1717.65647743814,458.24279834211 1720,458.24279834211"/>
<polyline id="series-supported" fill="none" stroke="#9cf28a" stroke-width="3" points="110,734.790874524715 112.343522561863,734.790874524715 114.687045123726,734.790874524715 117.03056768559,734.790874524715 119.374090247453,734.790874524715 121.717612809316,734.790874524715 124.061135371179,734.790874524715 126.404657933042,734.790874524715 128.748180494905,734.790874524715 131.091703056769,734.790874524715 133.435225618632,734.790874524715 135.778748180495,734.790874524715 138.122270742358,734.790874524715 140.465793304221,734.790874524715 142.809315866084,734.790874524715 145.152838427948,734.790874524715 147.496360989811,734.790874524715 149.839883551674,734.790874524715 152.183406113537,734.790874524715 154.5269286754,734.790874524715 156.870451237263,734.790874524715 159.213973799127,734.790874524715 161.55749636099,734.790874524715 163.901018922853,734.790874524715 166.244541484716,733.916349809886 168.588064046579,733.041825095057 170.931586608443,733.041825095057 173.275109170306,733.041825095057 175.618631732169,733.041825095057 177.962154294032,733.041825095057 180.305676855895,733.041825095057 182.649199417758,733.041825095057 184.992721979622,733.041825095057 187.336244541485,733.041825095057 189.679767103348,733.041825095057 192.023289665211,733.041825095057 194.366812227074,733.041825095057 196.710334788937,733.041825095057 199.053857350801,733.041825095057 201.397379912664,732.167300380228 203.740902474527,732.167300380228 206.08442503639,732.604562737643 208.427947598253,732.604562737643 210.771470160116,732.604562737643 213.11499272198,732.604562737643 215.458515283843,731.730038022814 217.802037845706,731.730038022814 220.145560407569,731.730038022814 222.489082969432,731.730038022814 224.832605531295,731.730038022814 227.176128093159,732.167300380228 229.519650655022,732.167300380228 231.863173216885,731.292775665399 234.206695778748,730.855513307985 236.550218340611,730.855513307985 238.893740902475,730.855513307985 241.237263464338,731.730038022814 243.580786026201,731.730038022814 245.924308588064,731.730038022814 248.267831149927,731.730038022814 250.61135371179,730.855513307985 252.954876273654,730.855513307985 255.298398835517,730.855513307985 257.64192139738,730.855513307985 259.985443959243,730.855513307985 262.328966521106,730.855513307985 264.672489082969,730.855513307985 267.016011644833,730.855513307985 269.359534206696,730.855513307985 271.703056768559,730.855513307985 274.046579330422,730.855513307985 276.390101892285,730.855513307985 278.733624454148,730.855513307985 281.077147016012,730.855513307985 283.420669577875,730.855513307985 285.764192139738,730.855513307985 288.107714701601,730.855513307985 290.451237263464,730.855513307985 292.794759825328,730.855513307985 295.138282387191,730.855513307985 297.481804949054,730.855513307985 299.825327510917,730.855513307985 302.16885007278,730.855513307985 304.512372634643,729.980988593156 306.855895196507,729.980988593156 309.19941775837,729.106463878327 311.542940320233,728.231939163498 313.886462882096,728.231939163498 316.229985443959,728.231939163498 318.573508005822,728.231939163498 320.917030567686,728.231939163498 323.260553129549,729.106463878327 325.604075691412,728.669201520913 327.947598253275,728.669201520913 330.291120815138,728.669201520913 332.634643377001,728.669201520913 334.978165938865,726.045627376426 337.321688500728,725.608365019011 339.665211062591,725.608365019011 342.008733624454,725.608365019011 344.352256186317,732.604562737643 346.69577874818,732.604562737643 349.039301310044,732.604562737643 351.382823871907,732.604562737643 353.72634643377,732.604562737643 356.069868995633,733.041825095057 358.413391557496,733.041825095057 360.75691411936,733.041825095057 363.100436681223,733.041825095057 365.443959243086,733.041825095057 367.787481804949,733.041825095057 370.131004366812,733.041825095057 372.474526928675,733.041825095057 374.818049490539,733.041825095057 377.161572052402,733.041825095057 379.505094614265,733.916349809886 381.848617176128,733.916349809886 384.192139737991,732.604562737643 386.535662299854,730.855513307985 388.879184861718,730.41825095057 391.222707423581,726.48288973384 393.566229985444,726.045627376426 395.909752547307,722.54752851711 398.25327510917,722.54752851711 400.596797671033,722.54752851711 402.940320232897,721.673003802281 405.28384279476,721.673003802281 407.627365356623,721.673003802281 409.970887918486,721.235741444867 412.314410480349,721.235741444867 414.657933042213,720.798479087453 417.001455604076,720.798479087453 419.344978165939,720.798479087453 421.688500727802,720.798479087453 424.032023289665,720.798479087453 426.375545851528,720.798479087453 428.719068413392,720.798479087453 431.062590975255,720.798479087453 433.406113537118,720.798479087453 435.749636098981,720.798479087453 438.093158660844,719.923954372624 440.436681222707,719.923954372624 442.780203784571,719.923954372624 445.123726346434,719.923954372624 447.467248908297,719.923954372624 449.81077147016,718.174904942966 452.154294032023,726.48288973384 454.497816593886,725.171102661597 456.84133915575,725.171102661597 459.184861717613,725.171102661597 461.528384279476,724.733840304183 463.871906841339,724.733840304183 466.215429403202,724.733840304183 468.558951965065,724.733840304183 470.902474526929,724.733840304183 473.245997088792,724.733840304183 475.589519650655,724.733840304183 477.933042212518,723.859315589354 480.276564774381,723.859315589354 482.620087336245,723.859315589354 484.963609898108,723.859315589354 487.307132459971,723.422053231939 489.650655021834,723.422053231939 491.994177583697,723.422053231939 494.33770014556,722.54752851711 496.681222707424,722.54752851711 499.024745269287,722.54752851711 501.36826783115,722.984790874525 503.711790393013,722.984790874525 506.055312954876,721.673003802281 508.398835516739,721.235741444867 510.742358078603,721.235741444867 513.085880640466,721.235741444867 515.429403202329,721.235741444867 517.772925764192,721.235741444867 520.116448326055,722.110266159696 522.459970887918,722.110266159696 524.803493449782,722.984790874525 527.147016011645,718.174904942966 529.490538573508,718.174904942966 531.834061135371,717.300380228137 534.177583697234,712.927756653992 536.521106259097,712.927756653992 538.864628820961,712.927756653992 541.208151382824,712.927756653992 543.551673944687,712.927756653992 545.89519650655,712.053231939164 548.238719068413,712.053231939164 550.582241630276,712.053231939164 552.92576419214,712.053231939164 555.269286754003,711.178707224335 557.612809315866,711.178707224335 559.956331877729,711.178707224335 562.299854439592,711.178707224335 564.643377001456,711.178707224335 566.986899563319,710.74144486692 569.330422125182,710.74144486692 571.673944687045,678.384030418251 574.017467248908,677.509505703422 576.360989810771,677.509505703422 578.704512372635,677.509505703422 581.048034934498,677.509505703422 583.391557496361,677.509505703422 585.735080058224,677.509505703422 588.078602620087,677.509505703422 590.42212518195,677.509505703422 592.765647743814,677.509505703422 595.109170305677,677.509505703422 597.45269286754,676.634980988593 599.796215429403,674.885931558935 602.139737991266,674.885931558935 604.48326055313,670.950570342205 606.826783114993,670.950570342205 609.170305676856,669.638783269962 611.513828238719,669.638783269962 613.857350800582,669.638783269962 616.200873362445,669.638783269962 618.544395924309,669.638783269962 620.887918486172,669.638783269962 623.231441048035,669.638783269962 625.574963609898,669.638783269962 627.918486171761,669.638783269962 630.262008733624,669.638783269962 632.605531295488,669.638783269962 634.949053857351,669.638783269962 637.292576419214,669.638783269962 639.636098981077,669.638783269962 641.97962154294,669.638783269962 644.323144104804,669.638783269962 646.666666666667,669.638783269962 649.01018922853,669.638783269962 651.353711790393,669.638783269962 653.697234352256,669.638783269962 656.040756914119,669.638783269962 658.384279475983,669.638783269962 660.727802037846,669.638783269962 663.071324599709,668.764258555133 665.414847161572,668.764258555133 667.758369723435,668.764258555133 670.101892285298,667.45247148289 672.445414847162,667.889733840304 674.788937409025,664.391634980989 677.132459970888,664.391634980989 679.475982532751,664.391634980989 681.819505094614,664.391634980989 684.163027656477,664.391634980989 686.506550218341,664.391634980989 688.850072780204,664.391634980989 691.193595342067,664.391634980989 693.53711790393,664.391634980989 695.880640465793,664.391634980989 698.224163027656,663.079847908745 700.56768558952,663.079847908745 702.911208151383,663.079847908745 705.254730713246,663.079847908745 707.598253275109,662.642585551331 709.941775836972,662.642585551331 712.285298398835,662.642585551331 714.628820960699,662.642585551331 716.972343522562,662.642585551331 719.315866084425,662.205323193916 721.659388646288,662.205323193916 724.002911208151,662.205323193916 726.346433770015,662.205323193916 728.689956331878,662.205323193916 731.033478893741,662.205323193916 733.377001455604,662.642585551331 735.720524017467,662.642585551331 738.06404657933,662.642585551331 740.407569141194,662.642585551331 742.751091703057,662.642585551331 745.09461426492,662.642585551331 747.438136826783,662.642585551331 749.781659388646,662.642585551331 752.125181950509,662.642585551331 754.468704512373,662.642585551331 756.812227074236,662.642585551331 759.155749636099,662.642585551331 761.499272197962,663.51711026616 763.842794759825,663.51711026616 766.186317321689,663.51711026616 768.529839883552,663.51711026616 770.873362445415,660.893536121673 773.216885007278,660.893536121673 775.560407569141,660.019011406844 777.903930131004,660.019011406844 780.247452692868,660.019011406844 782.590975254731,660.019011406844 784.934497816594,659.58174904943 787.278020378457,659.58174904943 789.62154294032,659.58174904943 791.965065502183,653.460076045627 794.308588064047,651.71102661597 796.65211062591,651.71102661597 798.995633187773,651.71102661597 801.339155749636,650.836501901141 803.682678311499,650.836501901141 806.026200873362,650.836501901141 808.369723435226,650.836501901141 810.713245997089,650.836501901141 813.056768558952,650.836501901141 815.400291120815,649.524714828897 817.743813682678,649.524714828897 820.087336244541,649.524714828897 822.430858806405,649.524714828897 824.774381368268,649.524714828897 827.117903930131,649.524714828897 829.461426491994,649.524714828897 831.804949053857,649.524714828897 834.14847161572,649.524714828897 836.491994177584,649.524714828897 838.835516739447,648.650190114068 841.17903930131,647.338403041825 843.522561863173,647.338403041825 845.866084425036,647.338403041825 848.2096069869,647.338403041825 850.553129548763,646.901140684411 852.896652110626,646.901140684411 855.240174672489,646.901140684411 857.583697234352,646.026615969582 859.927219796215,646.026615969582 862.270742358079,646.026615969582 864.614264919942,642.965779467681 866.957787481805,642.965779467681 869.301310043668,642.965779467681 871.644832605531,642.965779467681 873.988355167395,644.277566539924 876.331877729258,644.277566539924 878.675400291121,644.277566539924 881.018922852984,644.277566539924 883.362445414847,644.277566539924 885.70596797671,644.277566539924 888.049490538574,644.277566539924 890.393013100437,644.277566539924 892.7365356623,643.840304182509 895.080058224163,643.840304182509 897.423580786026,643.840304182509 899.767103347889,644.277566539924 902.110625909753,644.277566539924 904.454148471616,644.277566539924 906.797671033479,644.277566539924 909.141193595342,644.277566539924 911.484716157205,644.277566539924 913.828238719068,640.342205323194 916.171761280932,629.410646387833 918.515283842795,629.410646387833 920.858806404658,629.410646387833 923.202328966521,629.410646387833 925.545851528384,627.661596958175 927.889374090247,627.661596958175 930.232896652111,626.787072243346 932.576419213974,626.787072243346 934.919941775837,626.787072243346 937.2634643377,626.787072243346 939.606986899563,626.787072243346 941.950509461426,626.787072243346 944.29403202329,626.787072243346 946.637554585153,626.787072243346 948.981077147016,626.787072243346 951.324599708879,626.787072243346 953.668122270742,626.787072243346 956.011644832605,626.787072243346 958.355167394469,626.787072243346 960.698689956332,626.787072243346 963.042212518195,626.787072243346 965.385735080058,626.787072243346 967.729257641921,626.787072243346 970.072780203785,626.787072243346 972.416302765648,626.787072243346 974.759825327511,626.787072243346 977.103347889374,626.787072243346 979.446870451237,626.787072243346 981.7903930131,625.912547528517 984.133915574964,625.475285171103 986.477438136827,625.475285171103 988.82096069869,622.851711026616 991.164483260553,622.851711026616 993.508005822416,619.3536121673 995.85152838428,619.3536121673 998.195050946143,614.980988593156 1000.53857350801,613.669201520913 1002.88209606987,613.669201520913 1005.22561863173,613.669201520913 1007.5691411936,613.231939163498 1009.91266375546,613.231939163498 1012.25618631732,613.231939163498 1014.59970887918,613.669201520913 1016.94323144105,613.669201520913 1019.28675400291,613.669201520913 1021.63027656477,613.669201520913 1023.97379912664,613.669201520913 1026.3173216885,613.231939163498 1028.66084425036,613.231939163498 1031.00436681223,613.231939163498 1033.34788937409,613.231939163498 1035.69141193595,613.231939163498 1038.03493449782,612.357414448669 1040.37845705968,612.357414448669 1042.72197962154,612.357414448669 1045.06550218341,611.48288973384 1047.40902474527,611.48288973384 1049.75254730713,610.608365019011 1052.096069869,610.171102661597 1054.43959243086,610.608365019011 1056.78311499272,610.608365019011 1059.12663755459,609.733840304183 1061.47016011645,609.733840304183 1063.81368267831,609.733840304183 1066.15720524017,609.733840304183 1068.50072780204,609.733840304183 1070.8442503639,609.733840304183 1073.18777292576,601.863117870722 1075.53129548763,601.863117870722 1077.87481804949,601.863117870722 1080.21834061135,601.863117870722 1082.56186317322,601.863117870722 1084.90538573508,601.863117870722 1087.24890829694,601.863117870722 1089.59243085881,601.863117870722 1091.93595342067,601.863117870722 1094.27947598253,601.863117870722 1096.6229985444,601.863117870722 1098.96652110626,601.863117870722 1101.31004366812,600.988593155894 1103.65356622999,600.988593155894 1105.99708879185,600.988593155894 1108.34061135371,597.490494296578 1110.68413391557,597.490494296578 1113.02765647744,597.490494296578 1115.3711790393,597.490494296578 1117.71470160116,597.490494296578 1120.05822416303,597.490494296578 1122.40174672489,597.490494296578 1124.74526928675,597.490494296578 1127.08879184862,597.490494296578 1129.43231441048,597.490494296578 1131.77583697234,597.490494296578 1134.11935953421,597.490494296578 1136.46288209607,597.490494296578 1138.80640465793,597.490494296578 1141.1499272198,596.615969581749 1143.49344978166,596.615969581749 1145.83697234352,598.365019011407 1148.18049490539,598.365019011407 1150.52401746725,598.365019011407 1152.86754002911,598.365019011407 1155.21106259098,598.365019011407 1157.55458515284,598.365019011407 1159.8981077147,598.365019011407 1162.24163027656,598.365019011407 1164.58515283843,598.365019011407 1166.92867540029,598.365019011407 1169.27219796215,598.365019011407 1171.61572052402,598.365019011407 1173.95924308588,598.365019011407 1176.30276564774,598.365019011407 1178.64628820961,598.365019011407 1180.98981077147,598.365019011407 1183.33333333333,598.365019011407 1185.6768558952,598.365019011407 1188.02037845706,598.365019011407 1190.36390101892,598.365019011407 1192.70742358079,598.365019011407 1195.05094614265,598.365019011407 1197.39446870451,598.365019011407 1199.73799126638,598.365019011407 1202.08151382824,598.365019011407 1204.4250363901,598.365019011407 1206.76855895197,598.365019011407 1209.11208151383,596.615969581749 1211.45560407569,596.615969581749 1213.79912663755,594.866920152091 1216.14264919942,593.555133079848 1218.48617176128,593.555133079848 1220.82969432314,593.555133079848 1223.17321688501,593.555133079848 1225.51673944687,593.555133079848 1227.86026200873,593.555133079848 1230.2037845706,593.555133079848 1232.54730713246,593.555133079848 1234.89082969432,593.555133079848 1237.23435225619,593.555133079848 1239.57787481805,593.555133079848 1241.92139737991,593.555133079848 1244.26491994178,593.555133079848 1246.60844250364,593.555133079848 1248.9519650655,593.555133079848 1251.29548762737,593.555133079848 1253.63901018923,593.555133079848 1255.98253275109,593.555133079848 1258.32605531295,593.555133079848 1260.66957787482,593.555133079848 1263.01310043668,593.555133079848 1265.35662299854,593.555133079848 1267.70014556041,593.555133079848 1270.04366812227,593.555133079848 1272.38719068413,593.555133079848 1274.730713246,593.555133079848 1277.07423580786,593.117870722434 1279.41775836972,593.117870722434 1281.76128093159,593.117870722434 1284.10480349345,593.117870722434 1286.44832605531,593.117870722434 1288.79184861718,593.117870722434 1291.13537117904,592.243346007605 1293.4788937409,592.243346007605 1295.82241630277,590.931558935361 1298.16593886463,590.931558935361 1300.50946142649,590.931558935361 1302.85298398836,590.931558935361 1305.19650655022,590.931558935361 1307.54002911208,590.931558935361 1309.88355167394,590.931558935361 1312.22707423581,590.931558935361 1314.57059679767,590.931558935361 1316.91411935953,590.931558935361 1319.2576419214,590.931558935361 1321.60116448326,590.931558935361 1323.94468704512,590.931558935361 1326.28820960699,590.057034220532 1328.63173216885,589.619771863118 1330.97525473071,589.182509505703 1333.31877729258,589.182509505703 1335.66229985444,589.182509505703 1338.0058224163,589.182509505703 1340.34934497817,589.182509505703 1342.69286754003,589.182509505703 1345.03639010189,589.182509505703 1347.37991266376,589.182509505703 1349.72343522562,589.182509505703 1352.06695778748,589.182509505703 1354.41048034934,589.182509505703 1356.75400291121,589.182509505703 1359.09752547307,589.182509505703 1361.44104803493,589.182509505703 1363.7845705968,589.182509505703 1366.12809315866,589.182509505703 1368.47161572052,589.182509505703 1370.81513828239,589.182509505703 1373.15866084425,589.182509505703 1375.50218340611,589.182509505703 1377.84570596798,589.182509505703 1380.18922852984,589.182509505703 1382.5327510917,589.182509505703 1384.87627365357,589.182509505703 1387.21979621543,589.182509505703 1389.56331877729,589.182509505703 1391.90684133916,589.182509505703 1394.25036390102,589.182509505703 1396.59388646288,589.182509505703 1398.93740902475,589.182509505703 1401.28093158661,589.182509505703 1403.62445414847,589.182509505703 1405.96797671033,589.182509505703 1408.3114992722,589.182509505703 1410.65502183406,589.182509505703 1412.99854439592,589.182509505703 1415.34206695779,589.182509505703 1417.68558951965,589.182509505703 1420.02911208151,589.182509505703 1422.37263464338,589.182509505703 1424.71615720524,589.182509505703 1427.0596797671,588.307984790875 1429.40320232897,589.182509505703 1431.74672489083,589.182509505703 1434.09024745269,589.182509505703 1436.43377001456,589.182509505703 1438.77729257642,589.182509505703 1441.12081513828,589.182509505703 1443.46433770015,589.182509505703 1445.80786026201,589.182509505703 1448.15138282387,589.182509505703 1450.49490538574,589.182509505703 1452.8384279476,589.182509505703 1455.18195050946,589.182509505703 1457.52547307132,589.182509505703 1459.86899563319,589.182509505703 1462.21251819505,589.182509505703 1464.55604075691,589.182509505703 1466.89956331878,589.182509505703 1469.24308588064,589.182509505703 1471.5866084425,589.182509505703 1473.93013100437,589.182509505703 1476.27365356623,589.182509505703 1478.61717612809,589.182509505703 1480.96069868996,589.182509505703 1483.30422125182,589.182509505703 1485.64774381368,589.182509505703 1487.99126637555,589.182509505703 1490.33478893741,589.182509505703 1492.67831149927,589.182509505703 1495.02183406114,589.182509505703 1497.365356623,589.182509505703 1499.70887918486,589.182509505703 1502.05240174672,589.182509505703 1504.39592430859,589.182509505703 1506.73944687045,589.182509505703 1509.08296943231,589.182509505703 1511.42649199418,589.182509505703 1513.77001455604,589.182509505703 1516.1135371179,589.182509505703 1518.45705967977,588.307984790875 1520.80058224163,588.307984790875 1523.14410480349,587.433460076046 1525.48762736536,587.433460076046 1527.83114992722,586.558935361217 1530.17467248908,586.558935361217 1532.51819505095,586.558935361217 1534.86171761281,586.558935361217 1537.20524017467,586.558935361217 1539.54876273654,586.558935361217 1541.8922852984,586.558935361217 1544.23580786026,586.558935361217 1546.57933042213,586.558935361217 1548.92285298399,586.558935361217 1551.26637554585,586.558935361217 1553.60989810771,586.558935361217 1555.95342066958,586.558935361217 1558.29694323144,586.558935361217 1560.6404657933,586.558935361217 1562.98398835517,586.558935361217 1565.32751091703,586.558935361217 1567.67103347889,586.558935361217 1570.01455604076,586.558935361217 1572.35807860262,586.558935361217 1574.70160116448,586.558935361217 1577.04512372635,586.558935361217 1579.38864628821,586.558935361217 1581.73216885007,586.558935361217 1584.07569141194,586.558935361217 1586.4192139738,586.558935361217 1588.76273653566,586.558935361217 1591.10625909753,586.558935361217 1593.44978165939,586.558935361217 1595.79330422125,586.558935361217 1598.13682678311,586.558935361217 1600.48034934498,586.121673003802 1602.82387190684,586.121673003802 1605.1673944687,585.684410646388 1607.51091703057,585.684410646388 1609.85443959243,585.684410646388 1612.19796215429,585.684410646388 1614.54148471616,585.684410646388 1616.88500727802,585.684410646388 1619.22852983988,585.684410646388 1621.57205240175,585.684410646388 1623.91557496361,585.684410646388 1626.25909752547,580.437262357414 1628.60262008734,580.437262357414 1630.9461426492,580.437262357414 1633.28966521106,580.437262357414 1635.63318777293,580.437262357414 1637.97671033479,580.437262357414 1640.32023289665,580.437262357414 1642.66375545852,580.437262357414 1645.00727802038,580.437262357414 1647.35080058224,580.437262357414 1649.6943231441,580.437262357414 1652.03784570597,580.437262357414 1654.38136826783,580.437262357414 1656.72489082969,580.437262357414 1659.06841339156,580.437262357414 1661.41193595342,580.437262357414 1663.75545851528,580.437262357414 1666.09898107715,580.437262357414 1668.44250363901,580.437262357414 1670.78602620087,580.437262357414 1673.12954876274,580.437262357414 1675.4730713246,580.437262357414 1677.81659388646,580.437262357414 1680.16011644833,580.437262357414 1682.50363901019,580.437262357414 1684.84716157205,580.437262357414 1687.19068413392,580.437262357414 1689.53420669578,580.437262357414 1691.87772925764,580 1694.22125181951,580 1696.56477438137,580 1698.90829694323,580 1701.25181950509,580 1703.59534206696,580 1705.93886462882,580.437262357414 1708.28238719068,580.437262357414 1710.62590975255,580.437262357414 1712.96943231441,580.437262357414 1715.31295487627,580.437262357414 1717.65647743814,580.437262357414 1720,580.437262357414"/>
<g font-family="Segoe UI, sans-serif" font-size="18" fill="#d7e0ea">
<text x="110" y="80">Code-quality history</text>
<text x="110" y="115">verbosity</text><text x="110" y="345">structural erosion</text><text x="110" y="575">supported files</text>
<text x="110" y="850" text-anchor="middle">2024-10-02</text>
<text x="245.924308588064" y="850" text-anchor="middle">2025-11-16</text>
<text x="381.848617176128" y="850" text-anchor="middle">2026-01-18</text>
<text x="517.772925764192" y="850" text-anchor="middle">2026-02-22</text>
<text x="653.697234352256" y="850" text-anchor="middle">2026-03-16</text>
<text x="789.62154294032" y="850" text-anchor="middle">2026-04-06</text>
<text x="925.545851528384" y="850" text-anchor="middle">2026-05-10</text>
<text x="1061.47016011645" y="850" text-anchor="middle">2026-07-03</text>
<text x="1197.39446870451" y="850" text-anchor="middle">2026-07-12</text>
<text x="1333.31877729258" y="850" text-anchor="middle">2026-07-25</text>
<text x="1469.24308588064" y="850" text-anchor="middle">2026-08-02</text>
<text x="1605.1673944687" y="850" text-anchor="middle">2026-08-10</text>
<text x="1720" y="850" text-anchor="middle">2026-08-22</text>
</g>
</svg>
