<?xml version="1.0" encoding="UTF-8"?>
<svg xmlns="http://www.w3.org/2000/svg" width="1800" height="1150" viewBox="0 0 1800 1150">
<title>Broken Engine code-quality history</title>
<desc>seriesDigest=5470d920bcb5fce0a8328a3bf4f774bd63631e9c79e0d0fbed2464f8ef3d1cdb generatorDigest=0d7aa8062977b6c58b0806bd9b67d70eafdf2b9b88b114953a683fc229af5840 captureDigest=c83e40a544b2d84d200a6110f9d6314dc3345cf2d98ca56f918291253f73eacb identityDigest=747a594a4c7133ed988ea236e57d5424cde8c3a2252700eb7e426c54c6316680 scbDigest=6b4897517c1f720e33116ce3594c7a39816cd96945288331995f1de4c018d766</desc>
<rect width="1800" height="1150" fill="#10151c"/>
<g fill="none" stroke="#384555" stroke-width="1">
<line x1="110" y1="120" x2="1720" y2="120"/>
<line x1="110" y1="350" x2="1720" y2="350"/>
<line x1="110" y1="580" x2="1720" y2="580"/>
<line x1="110" y1="810" x2="1720" y2="810"/>
</g>
<polyline id="series-verbosity" fill="none" stroke="#65d6ff" stroke-width="3" points="110,342.38781418597 111.727467811159,342.3853090239 113.454935622318,342.38781418597 115.182403433476,342.38931649238 116.909871244635,342.40231168328 118.637339055794,342.61086656585 120.364806866953,342.44393442632 122.092274678112,342.53638389922 123.81974248927,342.53638389922 125.547210300429,342.52020235203 127.274678111588,342.52167630059 129.002145922747,342.52167630059 130.729613733906,342.44690613534 132.457081545064,342.61911011936 134.184549356223,342.50261301279 135.912017167382,342.16179513706 137.639484978541,342.16078127015 139.3669527897,342.19204655682 141.094420600858,342.34508751768 142.821888412017,341.75862506334 144.549356223176,341.75182481756 146.276824034335,342.39077978159 148.004291845494,342.48366013074 149.731759656652,342.27454211295 151.459227467811,342.09252354179 153.18669527897,342.10449927425 154.914163090129,342.10798536654 156.641630901288,342.0460261569 158.369098712446,342.13081761006 160.096566523605,342.13378599282 161.824034334764,342.02998991934 163.551502145923,342.02697592344 165.278969957082,342.15185091916 167.00643776824,342.14393748419 168.733905579399,341.87740430098 170.461373390558,341.66645625553 172.188841201717,341.72236503848 173.916309012876,341.70155258021 175.643776824034,341.60278527066 177.371244635193,341.60015060249 179.098712446352,341.67146974056 180.826180257511,341.54829545454 182.55364806867,341.54777345436 184.281115879828,341.45414146406 186.008583690987,341.37269418215 187.736051502146,341.46730757371 189.463519313305,341.491427518 191.190987124464,341.491427518 192.918454935622,341.45097554948 194.645922746781,341.45150336475 196.37339055794,341.47203744758 198.100858369099,341.72528899053 199.828326180258,341.454095827 201.555793991416,341.46570352542 203.283261802575,341.4514533087 205.010729613734,341.4514533087 206.738197424893,341.36343952978 208.465665236052,341.36343952978 210.19313304721,341.18161117598 211.920600858369,340.9372716199 213.648068669528,339.88404099558 215.375536480687,341.05302942206 217.103004291845,340.6829771385 218.830472103004,340.69949668265 220.557939914163,340.70321879818 222.285407725322,340.10794841196 224.012875536481,340.46665910641 225.740343347639,340.41666666659 227.467811158798,340.34593498233 229.195278969957,340.23951758344 230.922746781116,340.24116752133 232.650214592275,340.35408691741 234.377682403433,340.36818437319 236.105150214592,340.44253261356 237.832618025751,340.39194796445 239.56008583691,340.72894351112 241.287553648069,340.72423712554 243.015021459227,340.34683386994 244.742489270386,340.25060676181 246.469957081545,340.34301537061 248.197424892704,340.34574317843 249.924892703863,340.23762488009 251.652360515021,340.23762488009 253.37982832618,339.85067974145 255.107296137339,339.91362977821 256.834763948498,339.82823043896 258.562231759657,339.85070515645 260.289699570815,339.76904420684 262.017167381974,339.19718077204 263.744635193133,339.19718077204 265.472103004292,338.96678966785 267.199570815451,339.06334566747 268.927038626609,339.06817554511 270.654506437768,339.07300115878 272.381974248927,338.86667768055 274.109442060086,338.71374527118 275.836909871245,337.63927280458 277.564377682403,336.29370996536 279.291845493562,336.4684656416 281.019313304721,336.26883633315 282.74678111588,336.10694022578 284.474248927039,336.31092868145 286.201716738197,336.25193420815 287.929184549356,336.42493565921 289.656652360515,336.37798393485 291.384120171674,335.66517607593 293.111587982833,335.62983301576 294.839055793991,335.83244426984 296.56652360515,335.52104938607 298.293991416309,335.61614691222 300.021459227468,335.69433538968 301.748927038627,335.9383580835 303.476394849785,335.94229691883 305.203862660944,334.51675977658 306.931330472103,334.52886010947 308.658798283262,334.2742748347 310.386266094421,334.31701605716 312.113733905579,334.4702699718 313.841201716738,334.89637027502 315.568669527897,334.70751331948 317.296137339056,335.81215532446 319.023605150215,336.19129757395 320.751072961373,335.50154151057 322.478540772532,335.50233966416 324.206008583691,335.50313772989 325.93347639485,335.7849042271 327.660944206009,335.96302502828 329.388412017167,336.21615779509 331.115879828326,337.41577273453 332.843347639485,336.9213519141 334.570815450644,336.36349339481 336.298283261803,336.61866359454 338.025751072961,336.70983512764 339.75321888412,336.65407112164 341.480686695279,336.55674052595 343.208154506438,336.55674052595 344.935622317597,336.57758709805 346.663090128755,336.42307493667 348.390557939914,336.44363859244 350.118025751073,336.62399838727 351.845493562232,336.69640619515 353.572961373391,336.70773237173 355.300429184549,336.71239048813 357.027896995708,336.71239048813 358.755364806867,336.75543942506 360.482832618026,337.14787208471 362.210300429185,337.15651881396 363.937768240343,337.20390020086 365.665236051502,337.50704023674 367.392703862661,337.16197552026 369.12017167382,336.25093843833 370.847639484979,336.64653971207 372.575107296137,336.44551519648 374.302575107296,336.33558163165 376.030042918455,336.49182750014 377.757510729614,336.49182750014 379.484978540773,336.39716703448 381.212446351931,335.4891577266 382.93991416309,335.5501233666 384.667381974249,335.5501233666 386.394849785408,335.46763570292 388.122317596567,335.46433439355 389.849785407725,335.46472261101 391.577253218884,334.24671474706 393.304721030043,334.03369498098 395.032188841202,334.06168435695 396.75965665236,334.06644605063 398.487124463519,333.52367926148 400.214592274678,333.52367926148 401.942060085837,333.8141412461 403.669527896996,333.7126911947 405.396995708155,333.68801056193 407.124463519313,333.50047303681 408.851931330472,333.50929123497 410.579399141631,333.52013147077 412.30686695279,332.61122968308 414.034334763948,332.65756691207 415.761802575107,332.49083054854 417.489270386266,331.88948715009 419.216738197425,332.00981502465 420.944206008584,332.14868574439 422.671673819742,332.22015550026 424.399141630901,331.40744027814 426.12660944206,331.27383455372 427.854077253219,331.46486701072 429.581545064378,331.49158528226 431.309012875536,330.77751657829 433.036480686695,330.77819100407 434.763948497854,330.75185328317 436.491416309013,330.76739450967 438.218884120172,330.85342839178 439.94635193133,330.80995364734 441.673819742489,330.83666585516 443.401287553648,330.83666585516 445.128755364807,330.85198054201 446.856223175966,333.33955158204 448.583690987124,333.03245543093 450.311158798283,333.42902263544 452.038626609442,333.30893221656 453.766094420601,333.38378529888 455.49356223176,332.9365303243 457.221030042918,332.96175982493 458.948497854077,332.85332489364 460.675965665236,332.96834931665 462.403433476395,332.97341843178 464.130901287554,332.97341843178 465.858369098712,333.01488877222 467.585836909871,333.02083698116 469.31330472103,333.24126641367 471.040772532189,333.28086451938 472.768240343348,333.28086451938 474.495708154506,330.31848667229 476.223175965665,330.31510147916 477.950643776824,332.18949044597 479.678111587983,332.19318889726 481.405579399142,332.18887388796 483.1330472103,332.1901069612 484.860515021459,332.19996540382 486.587982832618,332.09964165184 488.315450643777,332.16788548843 490.042918454936,332.60550966082 491.770386266094,332.68561584838 493.497854077253,332.58882201197 495.225321888412,332.62348539454 496.952789699571,332.61041009464 498.68025751073,332.6169665809 500.407725321888,332.6169665809 502.135193133047,332.78847143599 503.862660944206,332.77526084572 505.590128755365,332.77526084572 507.317596566524,333.22990756973 509.045064377682,333.25005147918 510.772532188841,333.24947661051 512.5,333.27416038393 514.227467811159,333.29133858276 515.954935622318,333.29133858276 517.682403433476,333.75296590061 519.409871244635,333.75794026218 521.137339055794,333.78259842786 522.864806866953,334.35711637615 524.592274678112,336.60512472435 526.31974248927,340.15878978293 528.047210300429,339.58244869065 529.774678111588,339.17710496352 531.502145922747,339.17710496352 533.229613733906,339.17710496352 534.957081545064,339.17710496352 536.684549356223,339.17782987269 538.412017167382,339.17637995706 540.139484978541,339.17637995706 541.8669527897,339.17637995706 543.594420600858,339.36434004623 545.321888412017,339.36719037896 547.049356223176,339.36719037896 548.776824034335,339.37217478647 550.504291845494,339.66950459202 552.231759656652,339.63575493804 553.959227467811,339.63575493804 555.68669527897,339.63748953985 557.414163090129,339.64442214419 559.141630901287,339.64418728383 560.869098712446,339.84466917836 562.596566523605,339.89161777863 564.324034334764,339.82795341109 566.051502145923,339.5589550014 567.778969957081,339.58928984124 569.50643776824,339.5944429779 571.233905579399,339.55786350144 572.961373390558,339.55648618347 574.688841201717,339.56921252852 576.416309012876,339.57539251513 578.143776824034,339.59628145323 579.871244635193,339.59833158169 581.598712446352,339.49819506328 583.326180257511,339.45481702763 585.05364806867,339.40126561749 586.781115879828,339.42631442621 588.508583690987,339.42186234818 590.236051502146,339.45323647683 591.963519313305,339.39275188643 593.690987124464,339.39961808586 595.418454935622,339.3985887227 597.145922746781,339.01744719936 598.87339055794,339.11371607319 600.600858369099,339.10666708471 602.328326180258,339.00267363052 604.055793991416,339.20921044502 605.783261802575,339.21020956134 607.510729613734,339.32942648714 609.238197424893,339.23365731062 610.965665236052,339.23626456785 612.69313304721,339.39921090398 614.420600858369,339.41597779703 616.148068669528,339.19003390821 617.875536480687,339.19704157696 619.603004291846,339.31280521675 621.330472103004,339.31686641323 623.057939914163,339.24652502287 624.785407725322,339.24684102263 626.512875536481,339.20419186296 628.24034334764,339.21969808001 629.967811158798,339.30465887274 631.695278969957,339.24898100772 633.422746781116,339.25519313545 635.150214592275,339.26170814811 636.877682403433,339.26759587924 638.605150214592,339.27069209232 640.332618025751,339.27038255142 642.06008583691,339.2778066078 643.787553648069,339.29478138221 645.515021459227,339.29755395677 647.242489270386,339.31231679979 648.969957081545,339.27780150939 650.697424892704,339.30795946244 652.424892703863,339.30643737718 654.152360515021,339.31615432702 655.87982832618,339.27585816878 657.607296137339,339.25451828463 659.334763948498,339.36360326032 661.062231759657,339.3318217444 662.789699570815,339.3318217444 664.517167381974,339.26834047089 666.244635193133,338.86499833532 667.972103004292,338.9024152979 669.699570815451,338.86231038512 671.427038626609,338.86231038512 673.154506437768,338.8556108131 674.881974248927,338.86819126823 676.609442060086,338.86819126823 678.336909871245,338.88719681039 680.064377682403,338.92493638684 681.791845493562,338.913445355 683.519313304721,338.9158919754 685.24678111588,338.92780380259 686.974248927039,339.03835661275 688.701716738197,338.93253583363 690.429184549356,338.95307247544 692.156652360515,338.98240532143 693.884120171674,339.04966278347 695.611587982833,339.06450155478 697.339055793991,339.01228972835 699.06652360515,338.96617893988 700.793991416309,338.96441423429 702.521459227468,339.33957732945 704.248927038627,339.35519970156 705.976394849785,339.44802428376 707.703862660944,339.48924731187 709.431330472103,339.49232365686 711.158798283262,339.5734798418 712.886266094421,339.55018221467 714.613733905579,339.56504526386 716.341201716738,339.61610265313 718.068669527897,339.71344890377 719.796137339056,339.72483592938 721.523605150215,339.78376268539 723.251072961373,339.80551516401 724.978540772532,339.83691853693 726.706008583691,339.83849677761 728.43347639485,339.84270302428 730.160944206009,339.98151426786 731.888412017167,339.97942708341 733.615879828326,339.97968802899 735.343347639485,339.97472773698 737.070815450644,339.99974011117 738.798283261803,339.99948020887 740.525751072961,339.99948020887 742.25321888412,339.99948020887 743.980686695279,340.00259814499 745.708154506438,340.01349562687 747.435622317597,340.0347033383 749.163090128755,340.01479136384 750.890557939914,340.1230657388 752.618025751073,340.17702105539 754.345493562232,340.04924584247 756.072961373391,340.05027198425 757.800429184549,340.71476234477 759.527896995708,340.75321042587 761.255364806867,340.75186060095 762.982832618026,340.57662245969 764.710300429185,340.64443723979 766.437768240343,340.36376746722 768.165236051502,340.36376746722 769.892703862661,340.30103387863 771.62017167382,340.36213140201 773.347639484979,340.36213140201 775.075107296137,340.3808516915 776.802575107296,340.492092261 778.530042918455,340.49539599411 780.257510729614,340.50655586804 781.984978540773,340.50340979533 783.712446351931,340.54395590745 785.43991416309,340.44773902926 787.167381974249,340.44821185498 788.894849785408,340.83028113254 790.622317596567,340.83005419844 792.349785407725,340.9513427807 794.077253218884,340.94810132837 795.804721030043,340.94340554832 797.532188841202,340.85663428023 799.25965665236,340.89547813199 800.987124463519,341.28088941719 802.714592274678,341.28714586178 804.442060085837,341.20103729315 806.169527896996,341.22594069702 807.896995708154,341.28058687404 809.624463519313,341.25623516887 811.351931330472,341.3124022616 813.079399141631,341.32179764476 814.80686695279,341.32888291229 816.534334763949,341.28350429179 818.261802575107,341.22521008408 819.989270386266,340.75822928485 821.716738197425,340.76326178697 823.444206008584,340.83671536805 825.171673819743,340.84476583081 826.899141630901,340.84476583081 828.62660944206,340.89836803599 830.354077253219,340.89775336536 832.081545064378,340.90410096056 833.809012875536,340.90410096056 835.536480686695,340.90410096056 837.263948497854,340.90410096056 838.991416309013,340.90410096056 840.718884120172,340.9268109209 842.44635193133,340.9268109209 844.173819742489,340.9268109209 845.901287553648,340.87730755837 847.628755364807,340.87730755837 849.356223175966,340.87730755837 851.083690987124,340.87730755837 852.811158798283,340.8049999999 854.538626609442,340.8049999999 856.266094420601,340.8049999999 857.99356223176,340.8049999999 859.721030042918,340.8049999999 861.448497854077,340.81079319551 863.175965665236,340.81079319551 864.903433476395,340.81079319551 866.630901287554,340.81079319551 868.358369098713,340.81079319551 870.085836909871,340.82315419499 871.81330472103,340.82395053687 873.540772532189,340.78936462589 875.268240343348,340.78936462589 876.995708154506,340.79197557784 878.723175965665,340.79197557784 880.450643776824,340.73598686207 882.178111587983,340.73598686207 883.905579399142,340.73598686207 885.6330472103,340.73718779718 887.360515021459,340.73718779718 889.087982832618,340.72345365814 890.815450643777,340.72345365814 892.542918454936,340.72345365814 894.270386266094,340.49189419788 895.997854077253,340.4851964907 897.725321888412,340.4851964907 899.452789699571,340.4851964907 901.18025751073,340.4851964907 902.907725321888,340.4851964907 904.635193133047,340.4851964907 906.362660944206,340.4851964907 908.090128755365,340.52701288155 909.817596566524,340.52701288155 911.545064377682,340.5274175976 913.272532188841,340.5274175976 915,340.53510063812 916.727467811159,340.52061800755 918.454935622318,340.52061800755 920.182403433476,340.30634526909 921.909871244635,340.30634526909 923.637339055794,340.0110728347 925.364806866953,339.69966652338 927.092274678112,339.81185884277 928.81974248927,339.74914644362 930.547210300429,340.08507157466 932.274678111588,340.08588254546 934.002145922747,340.08588254546 935.729613733906,340.08628798095 937.457081545064,340.12480339892 939.184549356223,340.08839260193 940.912017167382,340.09162891307 942.639484978541,340.09162891307 944.3669527897,340.09162891307 946.094420600858,340.10994839168 947.821888412017,340.10994839168 949.549356223176,340.10994839168 951.276824034335,340.10994839168 953.004291845494,340.04444716295 954.731759656652,340.04404118673 956.459227467811,340.04992460375 958.18669527897,340.05073556374 959.914163090129,340.0511409944 961.641630901287,340.0511409944 963.369098712446,340.11715089044 965.096566523605,340.11715089044 966.824034334764,340.11493550169 968.551502145923,340.1155787075 970.278969957082,340.11577983514 972.00643776824,340.11577983514 973.733905579399,340.13036139193 975.461373390558,340.13036139193 977.188841201717,340.14879321197 978.916309012876,340.1551881529 980.643776824034,340.82611911947 982.371244635193,341.52584966461 984.098712446352,341.51330299832 985.826180257511,341.45047379781 987.55364806867,341.45047379781 989.281115879828,341.45047379781 991.008583690987,341.45081205122 992.736051502146,341.50559191781 994.463519313305,341.50559191781 996.190987124464,341.50559191781 997.918454935622,341.50559191781 999.645922746781,341.50726118651 1001.37339055794,341.51193165069 1003.1008583691,341.51226505892 1004.82832618026,341.54906620064 1006.55579399142,341.66107217863 1008.28326180258,341.6653259824 1010.01072961373,341.68034311894 1011.73819742489,341.52983462299 1013.46566523605,341.52983462299 1015.19313304721,341.53083267878 1016.92060085837,341.53083267878 1018.64806866953,341.53083267878 1020.37553648069,341.53083267878 1022.10300429185,341.53083267878 1023.830472103,341.53083267878 1025.55793991416,341.53083267878 1027.28540772532,341.53199677962 1029.01287553648,341.53199677962 1030.74034334764,341.53199677962 1032.4678111588,341.53166421204 1034.19527896996,341.53166421204 1035.92274678112,341.53166421204 1037.65021459227,341.53166421204 1039.37768240343,341.53166421204 1041.10515021459,341.53166421204 1042.83261802575,341.53365922606 1044.56008583691,341.53365922606 1046.28755364807,341.60854120466 1048.01502145923,341.61002315446 1049.74248927039,341.41062026583 1051.46995708155,341.41062026583 1053.1974248927,341.41062026583 1054.92489270386,341.41062026583 1056.65236051502,341.4109564911 1058.37982832618,341.4109564911 1060.10729613734,341.375450133 1061.8347639485,341.375450133 1063.56223175966,341.375450133 1065.28969957082,341.375450133 1067.01716738197,341.3746060951 1068.74463519313,341.3746060951 1070.47210300429,341.3746060951 1072.19957081545,341.3746060951 1073.92703862661,341.37696898538 1075.65450643777,341.37696898538 1077.38197424893,341.33761568201 1079.10944206009,341.44951798198 1080.83690987124,341.30113233566 1082.5643776824,341.18671620998 1084.29184549356,341.18671620998 1086.01931330472,341.18671620998 1087.74678111588,341.18671620998 1089.47424892704,341.18671620998 1091.2017167382,341.18671620998 1092.92918454936,341.18671620998 1094.65665236052,341.18654564451 1096.38412017167,341.18654564451 1098.11158798283,341.18910343219 1099.83905579399,341.16428419452 1101.56652360515,341.16428419452 1103.29399141631,341.16669571784 1105.02145922747,341.16669571784 1106.74892703863,341.16669571784 1108.47639484979,341.07948286861 1110.20386266094,341.07948286861 1111.9313304721,341.07948286861 1113.65879828326,341.07948286861 1115.38626609442,341.07982762941 1117.11373390558,341.08224021027 1118.84120171674,341.08620090365 1120.5686695279,341.08861003865 1122.29613733906,341.08861003865 1124.02360515021,341.08861003865 1125.75107296137,341.10200855847 1127.47854077253,341.10200855847 1129.20600858369,341.10320902001 1130.93347639485,341.10320902001 1132.66094420601,341.26795596082 1134.38841201717,341.26795596082 1136.11587982833,341.26795596082 1137.84334763949,341.26526124954 1139.57081545064,341.25886524831 1141.2982832618,341.26021273321 1143.02575107296,341.1245233852 1144.75321888412,341.12911256646 1146.48068669528,341.13182984258 1148.20815450644,341.14217420413 1149.9356223176,341.14217420413 1151.66309012876,341.11887306651 1153.39055793991,341.12602592621 1155.11802575107,341.127269944 1156.84549356223,341.127269944 1158.57296137339,341.127269944 1160.30042918455,341.12811878154 1162.02789699571,341.12811878154 1163.75536480687,341.12811878154 1165.48283261803,341.1289674567 1167.21030042918,341.1289674567 1168.93776824034,341.1289674567 1170.6652360515,341.12828852959 1172.39270386266,341.12828852959 1174.12017167382,341.12828852959 1175.84763948498,341.13168212692 1177.57510729614,341.13524261087 1179.3025751073,341.13524261087 1181.03004291845,341.13524261087 1182.75751072961,341.13524261087 1184.48497854077,341.13524261087 1186.21244635193,341.14167812932 1187.93991416309,341.14590692956 1189.66738197425,341.14742830964 1191.39484978541,341.0844485463 1193.12231759657,341.08410568001 1194.84978540773,341.08410568001 1196.57725321888,341.08547698693 1198.30472103004,341.08736184521 1200.0321888412,341.08736184521 1201.75965665236,341.0889034094 1203.48712446352,341.08770446126 1205.21459227468,341.08856088558 1206.94206008584,341.0889034094 1208.669527897,341.08924590677 1210.39699570815,340.90926449253 1212.12446351931,341.1303249995 1213.85193133047,341.1303249995 1215.57939914163,341.1303249995 1217.30686695279,341.1303249995 1219.03433476395,341.1303249995 1220.76180257511,341.1303249995 1222.48927038627,341.1514804202 1224.21673819743,341.16042974642 1225.94420600858,341.16042974642 1227.67167381974,341.28978192904 1229.3991416309,341.28978192904 1231.12660944206,341.28978192904 1232.85407725322,341.28978192904 1234.58154506438,341.28978192904 1236.30901287554,341.28978192904 1238.0364806867,341.28978192904 1239.76394849785,341.28978192904 1241.49141630901,341.28830542633 1243.21888412017,341.28830542633 1244.94635193133,341.28830542633 1246.67381974249,341.28830542633 1248.40128755365,341.28830542633 1250.12875536481,341.28830542633 1251.85622317597,341.28830542633 1253.58369098712,341.29240558757 1255.31115879828,341.29240558757 1257.03862660944,341.29240558757 1258.7660944206,341.29240558757 1260.49356223176,341.29240558757 1262.22103004292,341.2922416553 1263.94849785408,341.2922416553 1265.67596566524,341.29420843613 1267.40343347639,341.29273343371 1269.13090128755,341.29273343371 1270.85836909871,341.29240558757 1272.58583690987,341.29240558757 1274.31330472103,341.29240558757 1276.04077253219,341.2919137719 1277.76824034335,341.2919137719 1279.49570815451,341.2919137719 1281.22317596567,341.2919137719 1282.95064377682,341.2919137719 1284.67811158798,341.2919137719 1286.40557939914,341.31937427483 1288.1330472103,341.31937427483 1289.86051502146,341.31937427483 1291.58798283262,341.31937427483 1293.31545064378,341.32310857576 1295.04291845494,341.32310857576 1296.77038626609,341.32310857576 1298.49785407725,341.28677157703 1300.22532188841,341.28677157703 1301.95278969957,341.28726008714 1303.68025751073,341.28546861576 1305.40772532189,341.28546861576 1307.13519313305,341.29604391088 1308.86266094421,341.29588140852 1310.59012875536,341.29425605027 1312.31759656652,341.29441861335 1314.04506437768,341.29051542158 1315.77253218884,341.293605737 1317.5,341.29393090571 1319.22746781116,341.29409348098 1320.95493562232,341.28787878783 1322.68240343348,341.28804134861 1324.40987124464,341.28852899461 1326.13733905579,341.28917910456 1327.86480686695,341.28950412308 1329.59227467811,341.29031656312 1331.31974248927,341.29064149677 1333.04721030043,341.30497221073 1334.77467811159,341.31015843427 1336.50214592275,341.31032040418 1338.22961373391,341.31032040418 1339.95708154506,341.31032040418 1341.68454935622,341.31032040418 1343.41201716738,341.30870043437 1345.13948497854,341.3517393088 1346.8669527897,341.35206174028 1348.59442060086,341.35351238524 1350.32188841202,341.35544582136 1352.04935622318,341.35914915808 1353.77682403433,341.36124094529 1355.50429184549,341.36172352163 1357.23175965665,341.3623668728 1358.95922746781,341.36510004652 1360.68669527897,341.37136373772 1362.41416309013,341.35933344489 1364.14163090129,341.35949414175 1365.86909871245,341.35949414175 1367.59656652361,341.36254624543 1369.32403433476,341.36383069699 1371.05150214592,341.36415175008 1372.77896995708,341.36415175008 1374.50643776824,341.36623801384 1376.2339055794,341.36623801384 1377.96137339056,341.36623801384 1379.68884120172,341.37104862369 1381.41630901288,341.37297136711 1383.14377682403,341.37281117119 1384.87124463519,341.37313155705 1386.59871244635,341.40123009447 1388.32618025751,341.40123009447 1390.05364806867,341.42846526847 1391.78111587983,341.42766898294 1393.50858369099,341.42766898294 1395.23605150215,341.42766898294 1396.9635193133,341.43021657564 1398.69098712446,341.43021657564 1400.41845493562,341.3889303019 1402.14592274678,341.39069516136 1403.87339055794,341.39133674889 1405.6008583691,341.39197824097 1407.32832618026,341.39197824097 1409.05579399142,341.39149713088 1410.78326180257,341.39213859904 1412.51072961373,341.39213859904 1414.23819742489,341.3955047392 1415.96566523605,341.3988682477 1417.69313304721,341.3988682477 1419.42060085837,341.3988682477 1421.14806866953,341.3988682477 1422.87553648069,341.39982876703 1424.60300429185,341.39982876703 1426.330472103,341.39982876703 1428.05793991416,341.39982876703 1429.78540772532,341.3977473703 1431.51287553648,341.3977473703 1433.24034334764,341.3977473703 1434.9678111588,341.39822778211 1436.69527896996,341.40350877186 1438.42274678112,341.40350877186 1440.15021459227,341.40350877186 1441.87768240343,341.40350877186 1443.60515021459,341.40350877186 1445.33261802575,341.40350877186 1447.06008583691,341.40350877186 1448.78755364807,341.40350877186 1450.51502145923,341.40350877186 1452.24248927039,341.40350877186 1453.96995708155,341.40350877186 1455.6974248927,341.40350877186 1457.42489270386,341.40350877186 1459.15236051502,341.40350877186 1460.87982832618,341.40350877186 1462.60729613734,341.40350877186 1464.3347639485,341.40350877186 1466.06223175966,341.40350877186 1467.78969957082,341.40350877186 1469.51716738197,341.40350877186 1471.24463519313,341.40350877186 1472.97210300429,341.40350877186 1474.69957081545,341.40350877186 1476.42703862661,341.40510779189 1478.15450643777,341.40574723329 1479.88197424893,341.40574723329 1481.60944206009,341.40766498686 1483.33690987124,341.40766498686 1485.0643776824,341.40814429145 1486.79184549356,341.40862354268 1488.51931330472,341.40862354268 1490.24678111588,341.40862354268 1491.97424892704,341.40862354268 1493.7017167382,341.40862354268 1495.42918454936,341.40862354268 1497.15665236051,341.40862354268 1498.88412017167,341.40862354268 1500.61158798283,341.40862354268 1502.33905579399,341.40862354268 1504.06652360515,341.40862354268 1505.79399141631,341.40862354268 1507.52145922747,341.40862354268 1509.24892703863,341.40862354268 1510.97639484979,341.40862354268 1512.70386266094,341.40862354268 1514.4313304721,341.40862354268 1516.15879828326,341.40862354268 1517.88626609442,341.40862354268 1519.61373390558,341.40862354268 1521.34120171674,341.40862354268 1523.0686695279,341.40862354268 1524.79613733906,341.40862354268 1526.52360515021,341.40862354268 1528.25107296137,341.40862354268 1529.97854077253,341.40862354268 1531.70600858369,341.40862354268 1533.43347639485,341.40862354268 1535.16094420601,341.40862354268 1536.88841201717,341.40862354268 1538.61587982833,341.40862354268 1540.34334763949,341.40862354268 1542.07081545064,341.40862354268 1543.7982832618,341.40862354268 1545.52575107296,341.40862354268 1547.25321888412,341.40862354268 1548.98068669528,341.40862354268 1550.70815450644,341.40862354268 1552.4356223176,341.40862354268 1554.16309012876,341.40862354268 1555.89055793991,341.40862354268 1557.61802575107,341.40862354268 1559.34549356223,341.40862354268 1561.07296137339,341.40862354268 1562.80042918455,341.40862354268 1564.52789699571,341.40862354268 1566.25536480687,341.40862354268 1567.98283261803,341.40862354268 1569.71030042918,341.40862354268 1571.43776824034,341.40862354268 1573.1652360515,341.40862354268 1574.89270386266,341.40862354268 1576.62017167382,341.40862354268 1578.34763948498,341.40862354268 1580.07510729614,341.40862354268 1581.8025751073,341.40862354268 1583.53004291845,341.40862354268 1585.25751072961,341.40862354268 1586.98497854077,341.40862354268 1588.71244635193,341.40862354268 1590.43991416309,341.40862354268 1592.16738197425,341.40862354268 1593.89484978541,341.40862354268 1595.62231759657,341.40862354268 1597.34978540773,341.40862354268 1599.07725321888,341.40862354268 1600.80472103004,341.40862354268 1602.5321888412,341.40862354268 1604.25965665236,341.40862354268 1605.98712446352,341.40862354268 1607.71459227468,341.40862354268 1609.44206008584,341.40862354268 1611.169527897,341.40862354268 1612.89699570815,341.40862354268 1614.62446351931,341.40862354268 1616.35193133047,341.40862354268 1618.07939914163,341.40862354268 1619.80686695279,341.40862354268 1621.53433476395,341.40862354268 1623.26180257511,341.40862354268 1624.98927038627,341.40862354268 1626.71673819743,341.40862354268 1628.44420600858,341.40862354268 1630.17167381974,341.40862354268 1631.8991416309,341.40862354268 1633.62660944206,341.40862354268 1635.35407725322,341.38456676513 1637.08154506438,341.38456676513 1638.80901287554,341.38456676513 1640.5364806867,341.38456676513 1642.26394849785,341.38456676513 1643.99141630901,341.38456676513 1645.71888412017,341.38456676513 1647.44635193133,341.38456676513 1649.17381974249,341.38456676513 1650.90128755365,341.38456676513 1652.62875536481,341.38456676513 1654.35622317597,341.38456676513 1656.08369098712,341.38456676513 1657.81115879828,341.38728860813 1659.53862660944,341.38728860813 1661.2660944206,341.38728860813 1662.99356223176,341.38728860813 1664.72103004292,341.38728860813 1666.44849785408,341.38728860813 1668.17596566524,341.38728860813 1669.90343347639,341.38728860813 1671.63090128755,341.38728860813 1673.35836909871,341.38728860813 1675.08583690987,341.38728860813 1676.81330472103,341.38728860813 1678.54077253219,341.38728860813 1680.26824034335,341.38728860813 1681.99570815451,341.38728860813 1683.72317596567,341.38728860813 1685.45064377682,341.38728860813 1687.17811158798,341.38728860813 1688.90557939914,341.38728860813 1690.6330472103,341.38728860813 1692.36051502146,341.38728860813 1694.08798283262,341.38728860813 1695.81545064378,341.38728860813 1697.54291845494,341.38728860813 1699.27038626609,341.38728860813 1700.99785407725,341.38728860813 1702.72532188841,341.38728860813 1704.45278969957,341.38728860813 1706.18025751073,341.38728860813 1707.90772532189,341.38728860813 1709.63519313305,341.38728860813 1711.36266094421,341.38728860813 1713.09012875536,341.38728860813 1714.81759656652,341.38808882275 1716.54506437768,341.39080844119 1718.27253218884,341.39080844119 1720,341.39160800192"/>
<polyline id="series-structural-erosion" fill="none" stroke="#ffb454" stroke-width="3" points="110,421.47611514667 111.727467811159,420.98864569674 113.454935622318,421.00153048074 115.182403433476,421.00153048074 116.909871244635,422.16490975669 118.637339055794,422.03591841808 120.364806866953,421.29224779733 122.092274678112,420.31145149368 123.81974248927,420.31145149368 125.547210300429,420.31145149368 127.274678111588,420.31145149368 129.002145922747,420.21318226592 130.729613733906,420.77420276242 132.457081545064,420.6563240056 134.184549356223,420.80079638063 135.912017167382,419.75271983321 137.639484978541,419.76320916836 139.3669527897,419.58883280053 141.094420600858,421.27977427035 142.821888412017,421.2672699742 144.549356223176,421.13429727027 146.276824034335,421.99844736387 148.004291845494,421.98187929317 149.731759656652,421.59773984863 151.459227467811,421.49022239102 153.18669527897,422.56473704951 154.914163090129,422.76344227247 156.641630901288,422.8813036521 158.369098712446,422.78010272474 160.096566523605,422.75194956301 161.824034334764,422.84998520921 163.551502145923,422.79263619087 165.278969957082,421.42409985524 167.00643776824,421.26261840521 168.733905579399,421.73224991281 170.461373390558,423.12328222759 172.188841201717,424.09465220089 173.916309012876,423.82239811567 175.643776824034,422.98026941485 177.371244635193,423.03750255896 179.098712446352,423.74992323864 180.826180257511,423.35789752972 182.55364806867,423.46506973065 184.281115879828,424.17591525671 186.008583690987,423.55875674661 187.736051502146,425.64962382712 189.463519313305,425.77565749591 191.190987124464,425.77565749591 192.918454935622,425.71157819963 194.645922746781,425.75893231267 196.37339055794,427.61919929374 198.100858369099,427.18383016187 199.828326180258,426.26420635539 201.555793991416,426.89027674633 203.283261802575,426.58756627409 205.010729613734,426.58756627409 206.738197424893,426.65215861435 208.465665236052,426.65215861435 210.19313304721,426.96232236401 211.920600858369,427.05090768074 213.648068669528,429.10463638916 215.375536480687,430.00850474415 217.103004291845,431.39692776919 218.830472103004,431.69058553458 220.557939914163,431.74480000528 222.285407725322,431.59240461831 224.012875536481,432.13924809858 225.740343347639,431.48115641787 227.467811158798,432.06216634547 229.195278969957,432.05000865242 230.922746781116,432.05000865242 232.650214592275,432.06724897586 234.377682403433,432.25793901162 236.105150214592,432.3471640469 237.832618025751,432.21402394851 239.56008583691,431.92605456175 241.287553648069,432.13487871199 243.015021459227,432.38940676966 244.742489270386,432.42818042542 246.469957081545,432.32093298091 248.197424892704,432.35451947427 249.924892703863,432.43343503233 251.652360515021,432.43343503233 253.37982832618,432.9967905438 255.107296137339,432.94929757631 256.834763948498,432.49807714275 258.562231759657,433.50472755389 260.289699570815,433.49488134152 262.017167381974,433.632292559 263.744635193133,433.61397830806 265.472103004292,433.8834580882 267.199570815451,433.68044878002 268.927038626609,433.68044878002 270.654506437768,433.7145745599 272.381974248927,433.38721692081 274.109442060086,433.55223563192 275.836909871245,437.79695961648 277.564377682403,440.69416693252 279.291845493562,440.637118417 281.019313304721,440.8203101556 282.74678111588,439.31447127611 284.474248927039,439.51076880065 286.201716738197,439.10278203496 287.929184549356,438.14403061422 289.656652360515,440.70883613104 291.384120171674,441.56821673649 293.111587982833,441.64284459131 294.839055793991,441.28671768788 296.56652360515,441.38535663259 298.293991416309,440.95329628693 300.021459227468,440.7674973164 301.748927038627,440.71407536958 303.476394849785,440.82759183071 305.203862660944,441.04025233219 306.931330472103,441.09094416199 308.658798283262,440.81740567972 310.386266094421,440.23357401368 312.113733905579,440.70750670896 313.841201716738,442.30553219251 315.568669527897,439.71046049637 317.296137339056,441.63466854556 319.023605150215,442.38604055761 320.751072961373,439.57308470671 322.478540772532,439.63661886274 324.206008583691,439.63399455768 325.93347639485,438.38196447641 327.660944206009,439.06867350646 329.388412017167,439.66867477832 331.115879828326,437.41129292916 332.843347639485,435.68472798202 334.570815450644,431.86706145787 336.298283261803,431.66796150661 338.025751072961,428.91553466049 339.75321888412,429.12701496343 341.480686695279,429.5127244204 343.208154506438,429.5127244204 344.935622317597,429.81475374419 346.663090128755,429.86878216766 348.390557939914,429.58766691108 350.118025751073,430.52420499944 351.845493562232,430.78468002359 353.572961373391,430.61646452592 355.300429184549,430.16783346686 357.027896995708,430.16783346686 358.755364806867,430.71003680224 360.482832618026,431.86455798354 362.210300429185,431.91874938179 363.937768240343,432.21080582646 365.665236051502,431.92013463798 367.392703862661,431.84640735989 369.12017167382,436.55797435482 370.847639484979,436.2089776945 372.575107296137,436.43602560264 374.302575107296,436.48582561894 376.030042918455,435.85135396717 377.757510729614,435.84183947828 379.484978540773,437.13783735522 381.212446351931,436.98630918854 382.93991416309,436.54764830012 384.667381974249,436.54764830012 386.394849785408,434.33261918617 388.122317596567,434.59468552581 389.849785407725,434.98441034026 391.577253218884,431.94507165566 393.304721030043,432.35927838932 395.032188841202,430.98796592954 396.75965665236,430.21602087473 398.487124463519,431.23552971187 400.214592274678,431.23552971187 401.942060085837,432.51992917181 403.669527896996,432.12179277367 405.396995708155,431.86327468612 407.124463519313,431.18718920473 408.851931330472,431.1355366831 410.579399141631,431.06776429706 412.30686695279,433.69336446429 414.034334763948,433.46500740075 415.761802575107,434.23464433679 417.489270386266,436.90580800105 419.216738197425,436.24521030842 420.944206008584,436.7089623872 422.671673819742,435.07379829742 424.399141630901,433.25824732939 426.12660944206,431.61410875231 427.854077253219,432.15086270988 429.581545064378,432.52600119021 431.309012875536,426.07368180233 433.036480686695,425.91361163023 434.763948497854,426.05555742099 436.491416309013,426.0826451919 438.218884120172,426.16788313394 439.94635193133,426.05273227924 441.673819742489,425.68738000244 443.401287553648,425.68738000244 445.128755364807,425.75009231327 446.856223175966,435.47376453439 448.583690987124,434.23516601566 450.311158798283,445.71886320557 452.038626609442,447.82267273154 453.766094420601,447.74228660638 455.49356223176,445.90893213116 457.221030042918,446.25919713545 458.948497854077,445.67667778915 460.675965665236,445.00211786165 462.403433476395,443.72159977062 464.130901287554,443.72159977062 465.858369098712,443.91422073964 467.585836909871,443.42624948468 469.31330472103,444.81949483577 471.040772532189,444.9655010141 472.768240343348,444.96586328365 474.495708154506,453.65619068436 476.223175965665,453.64759172036 477.950643776824,451.56855579477 479.678111587983,451.59955076382 481.405579399142,451.53276366811 483.1330472103,451.52616457458 484.860515021459,451.58201613307 486.587982832618,451.56050910677 488.315450643777,451.95219970247 490.042918454936,452.28644146213 491.770386266094,450.31673985868 493.497854077253,449.95410748023 495.225321888412,449.92526536983 496.952789699571,449.67821407971 498.68025751073,449.64930034455 500.407725321888,449.65036600194 502.135193133047,449.80901922684 503.862660944206,449.74917968593 505.590128755365,449.71085541682 507.317596566524,449.51429430193 509.045064377682,448.81662522816 510.772532188841,448.76846292594 512.5,448.28137836468 514.227467811159,448.31163100528 515.954935622318,448.31163100528 517.682403433476,448.80443108494 519.409871244635,448.87652641275 521.137339055794,448.83248928956 522.864806866953,448.83571546506 524.592274678112,447.91085058694 526.31974248927,461.89258894082 528.047210300429,462.52481920441 529.774678111588,461.16092444404 531.502145922747,461.16092444404 533.229613733906,461.16092444404 534.957081545064,461.16092444404 536.684549356223,461.18352123081 538.412017167382,461.6059899258 540.139484978541,461.6059899258 541.8669527897,461.6059899258 543.594420600858,459.8968524416 545.321888412017,459.89862376889 547.049356223176,459.89862376889 548.776824034335,459.22410147353 550.504291845494,459.25546929259 552.231759656652,459.27026896321 553.959227467811,459.27026896321 555.68669527897,459.322057574 557.414163090129,459.17871196069 559.141630901287,459.37390623871 560.869098712446,459.12572204817 562.596566523605,459.36893897195 564.324034334764,460.09372759941 566.051502145923,460.10616589729 567.778969957081,460.01145566676 569.50643776824,460.11770743161 571.233905579399,460.0667230793 572.961373390558,460.06505939109 574.688841201717,459.44402930939 576.416309012876,459.46204057098 578.143776824034,458.83110566992 579.871244635193,458.88985817563 581.598712446352,455.51149537426 583.326180257511,455.62798762668 585.05364806867,455.74931084556 586.781115879828,455.86722035683 588.508583690987,456.03378837163 590.236051502146,455.97049609372 591.963519313305,455.32702225391 593.690987124464,455.49582819769 595.418454935622,455.55942692852 597.145922746781,455.22834925356 598.87339055794,455.57724091244 600.600858369099,455.41697111874 602.328326180258,453.35013121708 604.055793991416,453.9787099687 605.783261802575,453.96594470282 607.510729613734,453.67530522536 609.238197424893,451.02858486124 610.965665236052,451.01204316303 612.69313304721,453.90366621592 614.420600858369,454.48047292204 616.148068669528,453.50512019353 617.875536480687,453.1849176134 619.603004291846,453.50630522207 621.330472103004,453.1337433816 623.057939914163,452.82387785799 624.785407725322,452.76188750635 626.512875536481,452.63552877557 628.24034334764,452.24679709721 629.967811158798,452.447120835 631.695278969957,450.71416183289 633.422746781116,450.62857464413 635.150214592275,450.17806442803 636.877682403433,449.90912878971 638.605150214592,449.88499089852 640.332618025751,449.89236693688 642.06008583691,449.88306526515 643.787553648069,450.00779059918 645.515021459227,450.00960961444 647.242489270386,449.04561774398 648.969957081545,448.56106402153 650.697424892704,448.51501155301 652.424892703863,448.38328038034 654.152360515021,448.23668217557 655.87982832618,448.09444284386 657.607296137339,447.90597865771 659.334763948498,444.97492925713 661.062231759657,447.46397353502 662.789699570815,447.46397353502 664.517167381974,447.27947487731 666.244635193133,446.72139031494 667.972103004292,446.70471549641 669.699570815451,446.42535921014 671.427038626609,446.42535921014 673.154506437768,444.76452284397 674.881974248927,444.71399467021 676.609442060086,444.71399467021 678.336909871245,444.80211525055 680.064377682403,445.11945947946 681.791845493562,445.24881165863 683.519313304721,445.24913258476 685.24678111588,445.08119901902 686.974248927039,444.52079723862 688.701716738197,443.54476300424 690.429184549356,443.56857337083 692.156652360515,443.34742722635 693.884120171674,443.4438144959 695.611587982833,442.11265323318 697.339055793991,442.10394679317 699.06652360515,442.09657579917 700.793991416309,442.09657579917 702.521459227468,443.38323532191 704.248927038627,443.2971659048 705.976394849785,443.31284132066 707.703862660944,443.28299100986 709.431330472103,443.29477858829 711.158798283262,443.59113749737 712.886266094421,443.59670924208 714.613733905579,443.54620195761 716.341201716738,442.97772122458 718.068669527897,444.55386358836 719.796137339056,444.60849445382 721.523605150215,440.97488221197 723.251072961373,440.16362059192 724.978540772532,440.17881930311 726.706008583691,440.11922918064 728.43347639485,440.11265803257 730.160944206009,440.23872173568 731.888412017167,440.8760709784 733.615879828326,440.87736586943 735.343347639485,440.95071972274 737.070815450644,440.92839738922 738.798283261803,440.60231874563 740.525751072961,440.60231874563 742.25321888412,440.60231874563 743.980686695279,440.60390579554 745.708154506438,440.16999425394 747.435622317597,440.17096530198 749.163090128755,440.41208564696 750.890557939914,441.23228899863 752.618025751073,441.58875336381 754.345493562232,441.58782468982 756.072961373391,441.58876229793 757.800429184549,445.52561272011 759.527896995708,444.90736358244 761.255364806867,444.80692370438 762.982832618026,442.8135292924 764.710300429185,448.39415710587 766.437768240343,448.31649740807 768.165236051502,448.31649740807 769.892703862661,449.18652462681 771.62017167382,448.6361595227 773.347639484979,448.6361595227 775.075107296137,448.29852749933 776.802575107296,449.06601199394 778.530042918455,449.47086538499 780.257510729614,449.68394222833 781.984978540773,449.54954275091 783.712446351931,449.48778076121 785.43991416309,449.75683690941 787.167381974249,449.70238831688 788.894849785408,450.16912544721 790.622317596567,450.1722950411 792.349785407725,458.01252211004 794.077253218884,461.68326269299 795.804721030043,467.69600672809 797.532188841202,467.58272438534 799.25965665236,469.25396122524 800.987124463519,470.07657466595 802.714592274678,470.48896484167 804.442060085837,472.84980693602 806.169527896996,472.65473175154 807.896995708154,472.8580548892 809.624463519313,469.74005944691 811.351931330472,469.89516306985 813.079399141631,469.55965483313 814.80686695279,469.38405842294 816.534334763949,468.40760498159 818.261802575107,469.27944348069 819.989270386266,464.8576815039 821.716738197425,464.82778381379 823.444206008584,464.16079801146 825.171673819743,463.81694936225 826.899141630901,463.81694936225 828.62660944206,464.39409974955 830.354077253219,464.3486411615 832.081545064378,464.7086495447 833.809012875536,464.7086495447 835.536480686695,464.7086495447 837.263948497854,464.7086495447 838.991416309013,464.7086495447 840.718884120172,463.77370491106 842.44635193133,463.77370491106 844.173819742489,463.77370491106 845.901287553648,462.81670257339 847.628755364807,462.81670257339 849.356223175966,462.81670257339 851.083690987124,462.81670257339 852.811158798283,462.45288373097 854.538626609442,462.45288373097 856.266094420601,462.45288373097 857.99356223176,462.45288373097 859.721030042918,462.45288373097 861.448497854077,462.27577929887 863.175965665236,462.27577929887 864.903433476395,462.27577929887 866.630901287554,462.27577929887 868.358369098713,462.27577929887 870.085836909871,462.35861543463 871.81330472103,462.39317287161 873.540772532189,462.08154270727 875.268240343348,462.08154270727 876.995708154506,462.12382883862 878.723175965665,462.12382883862 880.450643776824,460.47669240382 882.178111587983,460.47669240382 883.905579399142,460.47669240382 885.6330472103,460.49029941174 887.360515021459,460.49029941174 889.087982832618,458.46920870175 890.815450643777,458.46920870175 892.542918454936,458.46920870175 894.270386266094,457.62773189246 895.997854077253,457.57009448011 897.725321888412,457.57009448011 899.452789699571,457.57009448011 901.18025751073,457.57009448011 902.907725321888,457.57009448011 904.635193133047,457.57009448011 906.362660944206,457.57009448011 908.090128755365,457.42932715162 909.817596566524,457.42932715162 911.545064377682,457.43579680621 913.272532188841,457.43579680621 915,457.20605320423 916.727467811159,456.99789294002 918.454935622318,456.99789294002 920.182403433476,455.76301105316 921.909871244635,455.76301105316 923.637339055794,451.68608132426 925.364806866953,451.24981778334 927.092274678112,452.3213724037 928.81974248927,451.80078755561 930.547210300429,453.71320653551 932.274678111588,453.72734607186 934.002145922747,453.72734607186 935.729613733906,453.7602066866 937.457081545064,453.65825916199 939.184549356223,453.75499094348 940.912017167382,453.75647015628 942.639484978541,453.75650023223 944.3669527897,453.75650023223 946.094420600858,453.72821983841 947.821888412017,453.72821983841 949.549356223176,453.72821983841 951.276824034335,453.72821983841 953.004291845494,453.34032176745 954.731759656652,453.34462857081 956.459227467811,453.29906820431 958.18669527897,453.30169753579 959.914163090129,453.31479687046 961.641630901287,453.31479687046 963.369098712446,453.34326157685 965.096566523605,453.34326157685 966.824034334764,453.43182439107 968.551502145923,453.1601590817 970.278969957082,453.1601590817 972.00643776824,453.1601590817 973.733905579399,453.13006899176 975.461373390558,453.13006899176 977.188841201717,452.84625368629 978.916309012876,452.82907845722 980.643776824034,452.80183237524 982.371244635193,453.73266269528 984.098712446352,454.52789551344 985.826180257511,453.63787244522 987.55364806867,453.63787244522 989.281115879828,453.63787244522 991.008583690987,453.63344121416 992.736051502146,453.38358772318 994.463519313305,453.38358772318 996.190987124464,453.38358772318 997.918454935622,453.38358772318 999.645922746781,453.34973079237 1001.37339055794,453.34179668914 1003.1008583691,453.34486214248 1004.82832618026,453.00009984035 1006.55579399142,452.98765830085 1008.28326180258,453.02272545095 1010.01072961373,453.11594363261 1011.73819742489,452.98750630719 1013.46566523605,452.98750630719 1015.19313304721,453.41446990966 1016.92060085837,453.41446990966 1018.64806866953,453.41446990966 1020.37553648069,453.41446990966 1022.10300429185,453.41446990966 1023.830472103,453.41446990966 1025.55793991416,453.41446990966 1027.28540772532,453.43360110634 1029.01287553648,453.43360110634 1030.74034334764,453.43360110634 1032.4678111588,453.42983077315 1034.19527896996,453.42983077315 1035.92274678112,453.42983077315 1037.65021459227,453.42983077315 1039.37768240343,453.42983077315 1041.10515021459,453.42983077315 1042.83261802575,453.13733127442 1044.56008583691,453.13733127442 1046.28755364807,453.83280652861 1048.01502145923,453.78449797468 1049.74248927039,453.48938507151 1051.46995708155,453.48938507151 1053.1974248927,453.48938507151 1054.92489270386,453.48938507151 1056.65236051502,453.86951476712 1058.37982832618,453.86951476712 1060.10729613734,453.72076343621 1061.8347639485,453.72076343621 1063.56223175966,453.72076343621 1065.28969957082,453.72076343621 1067.01716738197,453.80285395475 1068.74463519313,453.80285395475 1070.47210300429,453.80285395475 1072.19957081545,453.80285395475 1073.92703862661,453.81985129906 1075.65450643777,453.81985129906 1077.38197424893,454.4825041284 1079.10944206009,452.08929578499 1080.83690987124,451.1543744561 1082.5643776824,455.43169808475 1084.29184549356,455.43169808475 1086.01931330472,455.43169808475 1087.74678111588,455.43169808475 1089.47424892704,455.43169808475 1091.2017167382,455.43169808475 1092.92918454936,455.43169808475 1094.65665236052,455.43429666247 1096.38412017167,455.43429666247 1098.11158798283,455.44846992487 1099.83905579399,455.38067901233 1101.56652360515,455.38067901233 1103.29399141631,455.29161709926 1105.02145922747,455.29161709926 1106.74892703863,455.29161709926 1108.47639484979,454.61294745908 1110.20386266094,454.61294745908 1111.9313304721,454.61294745908 1113.65879828326,454.61294745908 1115.38626609442,454.62582516207 1117.11373390558,454.65697954688 1118.84120171674,454.50543122622 1120.5686695279,454.46678469675 1122.29613733906,454.46678469675 1124.02360515021,454.46678469675 1125.75107296137,453.54182067736 1127.47854077253,453.54182067736 1129.20600858369,453.56099402407 1130.93347639485,453.56099402407 1132.66094420601,453.51954741733 1134.38841201717,453.51954741733 1136.11587982833,453.51954741733 1137.84334763949,453.66126086278 1139.57081545064,453.59499476353 1141.2982832618,453.55626053161 1143.02575107296,452.46884575778 1144.75321888412,452.49838925433 1146.48068669528,452.33740077227 1148.20815450644,452.32256352908 1149.9356223176,452.32256352908 1151.66309012876,452.91861169411 1153.39055793991,452.83726708903 1155.11802575107,452.53054900709 1156.84549356223,452.53054900709 1158.57296137339,452.53054900709 1160.30042918455,452.53285465589 1162.02789699571,452.53285465589 1163.75536480687,452.53285465589 1165.48283261803,452.5293483949 1167.21030042918,452.5293483949 1168.93776824034,452.5293483949 1170.6652360515,452.52570666483 1172.39270386266,452.52570666483 1174.12017167382,452.52570666483 1175.84763948498,452.47674819714 1177.57510729614,452.30474046154 1179.3025751073,452.30474046154 1181.03004291845,452.30474046154 1182.75751072961,452.30474046154 1184.48497854077,452.30474046154 1186.21244635193,452.44702478148 1187.93991416309,452.41265487891 1189.66738197425,452.34792790401 1191.39484978541,452.34792790401 1193.12231759657,452.33673500461 1194.84978540773,452.33673500461 1196.57725321888,452.38937734665 1198.30472103004,452.31227883919 1200.0321888412,452.31227883919 1201.75965665236,452.7187535007 1203.48712446352,452.76728238957 1205.21459227468,452.78869366158 1206.94206008584,452.79946080338 1208.669527897,452.79946080338 1210.39699570815,451.44047541187 1212.12446351931,452.18518742363 1213.85193133047,452.18518742363 1215.57939914163,452.18518742363 1217.30686695279,452.18518742363 1219.03433476395,452.18518742363 1220.76180257511,452.18518742363 1222.48927038627,451.78543543833 1224.21673819743,451.68698833777 1225.94420600858,451.68698833777 1227.67167381974,459.68072022651 1229.3991416309,459.68072022651 1231.12660944206,459.68072022651 1232.85407725322,459.68072022651 1234.58154506438,459.67954351638 1236.30901287554,459.67954351638 1238.0364806867,459.67954351638 1239.76394849785,459.67954351638 1241.49141630901,459.67394646201 1243.21888412017,459.67394646201 1244.94635193133,459.67394646201 1246.67381974249,459.67394646201 1248.40128755365,459.67394646201 1250.12875536481,459.67394646201 1251.85622317597,459.67394646201 1253.58369098712,459.80954883529 1255.31115879828,459.80954883529 1257.03862660944,459.80954883529 1258.7660944206,459.80954883529 1260.49356223176,459.80954883529 1262.22103004292,459.7878215603 1263.94849785408,459.7878215603 1265.67596566524,459.70184838876 1267.40343347639,459.69628823789 1269.13090128755,459.69628823789 1270.85836909871,459.68721048404 1272.58583690987,459.68721048404 1274.31330472103,459.68721048404 1276.04077253219,459.48014362488 1277.76824034335,459.48014362488 1279.49570815451,459.48014362488 1281.22317596567,459.48014362488 1282.95064377682,459.48014362488 1284.67811158798,459.48014362488 1286.40557939914,458.26612302713 1288.1330472103,458.26612302713 1289.86051502146,458.26612302713 1291.58798283262,458.26612302713 1293.31545064378,458.24279834211 1295.04291845494,458.24279834211 1296.77038626609,458.24279834211 1298.49785407725,458.22777915144 1300.22532188841,458.22777915144 1301.95278969957,458.22905283946 1303.68025751073,458.22114042845 1305.40772532189,458.21728181321 1307.13519313305,457.91754002204 1308.86266094421,457.9163554926 1310.59012875536,458.34284154354 1312.31759656652,458.32303074838 1314.04506437768,458.31512334033 1315.77253218884,458.37445358626 1317.5,458.36275968016 1319.22746781116,458.36379214395 1320.95493562232,458.01668702778 1322.68240343348,458.01885941941 1324.40987124464,457.83487752156 1326.13733905579,457.63027395964 1327.86480686695,457.64449546822 1329.59227467811,457.57731808551 1331.31974248927,457.57013998193 1333.04721030043,457.49274429906 1334.77467811159,457.29209664859 1336.50214592275,457.28893773429 1338.22961373391,457.28893773429 1339.95708154506,457.28893773429 1341.68454935622,457.28893773429 1343.41201716738,457.26837565793 1345.13948497854,457.27722166148 1346.8669527897,457.27598440914 1348.59442060086,457.19748369426 1350.32188841202,457.21185903443 1352.04935622318,457.23806282725 1353.77682403433,457.27327258011 1355.50429184549,457.25621573779 1357.23175965665,457.27228867162 1358.95922746781,457.01662566423 1360.68669527897,456.91135116156 1362.41416309013,456.89728629402 1364.14163090129,457.22052219396 1365.86909871245,457.22052219396 1367.59656652361,457.07867554838 1369.32403433476,457.0842317904 1371.05150214592,457.1018504942 1372.77896995708,457.1018504942 1374.50643776824,456.8951199001 1376.2339055794,456.8951199001 1377.96137339056,456.8951199001 1379.68884120172,456.82889591247 1381.41630901288,456.85186477507 1383.14377682403,456.85346093551 1384.87124463519,456.83768413128 1386.59871244635,456.90943049665 1388.32618025751,456.90943049665 1390.05364806867,456.94265237285 1391.78111587983,456.91738174753 1393.50858369099,456.92981582882 1395.23605150215,456.92981582882 1396.9635193133,456.84786165681 1398.69098712446,456.84786165681 1400.41845493562,456.62465921573 1402.14592274678,456.41567632593 1403.87339055794,456.4441407623 1405.6008583691,456.39234328593 1407.32832618026,456.39234328593 1409.05579399142,456.41490629099 1410.78326180257,456.38486138639 1412.51072961373,456.38486138639 1414.23819742489,456.47560459141 1415.96566523605,456.57167025656 1417.69313304721,456.57167025656 1419.42060085837,456.57167025656 1421.14806866953,456.57167025656 1422.87553648069,456.75377138852 1424.60300429185,456.75377138852 1426.330472103,456.75377138852 1428.05793991416,456.75377138852 1429.78540772532,456.97061478592 1431.51287553648,456.97061478592 1433.24034334764,456.97061478592 1434.9678111588,456.98827495205 1436.69527896996,456.58586603573 1438.42274678112,456.58586603573 1440.15021459227,456.58586603573 1441.87768240343,456.58586603573 1443.60515021459,456.58586603573 1445.33261802575,456.58586603573 1447.06008583691,456.58586603573 1448.78755364807,456.58586603573 1450.51502145923,456.58586603573 1452.24248927039,456.58586603573 1453.96995708155,456.58586603573 1455.6974248927,456.58586603573 1457.42489270386,456.58586603573 1459.15236051502,456.58586603573 1460.87982832618,456.58586603573 1462.60729613734,456.58586603573 1464.3347639485,456.58586603573 1466.06223175966,456.58586603573 1467.78969957082,456.58586603573 1469.51716738197,456.58586603573 1471.24463519313,456.58586603573 1472.97210300429,456.58586603573 1474.69957081545,456.58586603573 1476.42703862661,456.62740816975 1478.15450643777,456.53527340884 1479.88197424893,456.53527340884 1481.60944206009,456.31812667157 1483.33690987124,456.31812667157 1485.0643776824,456.31657390155 1486.79184549356,456.14851061696 1488.51931330472,456.14851061696 1490.24678111588,456.14851061696 1491.97424892704,456.14851061696 1493.7017167382,456.14851061696 1495.42918454936,456.14851061696 1497.15665236051,456.14851061696 1498.88412017167,456.14851061696 1500.61158798283,456.14851061696 1502.33905579399,456.14851061696 1504.06652360515,456.14851061696 1505.79399141631,456.14851061696 1507.52145922747,456.14851061696 1509.24892703863,456.14851061696 1510.97639484979,456.14851061696 1512.70386266094,456.14851061696 1514.4313304721,456.14851061696 1516.15879828326,456.14851061696 1517.88626609442,456.14851061696 1519.61373390558,456.14851061696 1521.34120171674,456.14851061696 1523.0686695279,456.14851061696 1524.79613733906,456.14851061696 1526.52360515021,456.14851061696 1528.25107296137,456.14851061696 1529.97854077253,456.14851061696 1531.70600858369,456.14851061696 1533.43347639485,456.14851061696 1535.16094420601,456.14851061696 1536.88841201717,456.14851061696 1538.61587982833,456.14851061696 1540.34334763949,456.14851061696 1542.07081545064,456.14851061696 1543.7982832618,456.14851061696 1545.52575107296,456.14851061696 1547.25321888412,456.14851061696 1548.98068669528,456.14851061696 1550.70815450644,456.14851061696 1552.4356223176,456.14851061696 1554.16309012876,456.14851061696 1555.89055793991,456.14851061696 1557.61802575107,456.14851061696 1559.34549356223,456.14851061696 1561.07296137339,456.14851061696 1562.80042918455,456.14851061696 1564.52789699571,456.14851061696 1566.25536480687,456.14851061696 1567.98283261803,456.14851061696 1569.71030042918,456.14851061696 1571.43776824034,456.14851061696 1573.1652360515,456.14851061696 1574.89270386266,456.14851061696 1576.62017167382,456.14851061696 1578.34763948498,456.14851061696 1580.07510729614,456.14851061696 1581.8025751073,456.14851061696 1583.53004291845,456.14851061696 1585.25751072961,456.14851061696 1586.98497854077,456.14851061696 1588.71244635193,456.14851061696 1590.43991416309,456.14851061696 1592.16738197425,456.14851061696 1593.89484978541,456.14851061696 1595.62231759657,456.14851061696 1597.34978540773,456.14851061696 1599.07725321888,456.14851061696 1600.80472103004,456.14851061696 1602.5321888412,456.14851061696 1604.25965665236,456.14851061696 1605.98712446352,456.14851061696 1607.71459227468,456.14851061696 1609.44206008584,456.14851061696 1611.169527897,456.14851061696 1612.89699570815,456.14851061696 1614.62446351931,456.14851061696 1616.35193133047,456.14851061696 1618.07939914163,456.14851061696 1619.80686695279,456.14851061696 1621.53433476395,456.14851061696 1623.26180257511,456.14851061696 1624.98927038627,456.14851061696 1626.71673819743,456.14851061696 1628.44420600858,456.14851061696 1630.17167381974,456.14851061696 1631.8991416309,456.14851061696 1633.62660944206,456.14851061696 1635.35407725322,455.88229154958 1637.08154506438,455.88229154958 1638.80901287554,455.88229154958 1640.5364806867,455.88229154958 1642.26394849785,455.88229154958 1643.99141630901,455.88229154958 1645.71888412017,455.88229154958 1647.44635193133,455.88229154958 1649.17381974249,455.88229154958 1650.90128755365,455.88229154958 1652.62875536481,455.88229154958 1654.35622317597,455.88229154958 1656.08369098712,455.88229154958 1657.81115879828,455.89549929383 1659.53862660944,455.89549929383 1661.2660944206,455.89549929383 1662.99356223176,455.89549929383 1664.72103004292,455.89549929383 1666.44849785408,455.89549929383 1668.17596566524,455.89549929383 1669.90343347639,455.89549929383 1671.63090128755,455.89549929383 1673.35836909871,455.89549929383 1675.08583690987,455.89549929383 1676.81330472103,455.89549929383 1678.54077253219,455.89549929383 1680.26824034335,455.89549929383 1681.99570815451,455.89549929383 1683.72317596567,455.89549929383 1685.45064377682,455.89549929383 1687.17811158798,455.89549929383 1688.90557939914,455.89549929383 1690.6330472103,455.89549929383 1692.36051502146,455.89549929383 1694.08798283262,455.89549929383 1695.81545064378,455.89549929383 1697.54291845494,455.89549929383 1699.27038626609,455.89549929383 1700.99785407725,455.89549929383 1702.72532188841,455.89549929383 1704.45278969957,455.89549929383 1706.18025751073,455.89549929383 1707.90772532189,455.89549929383 1709.63519313305,455.89549929383 1711.36266094421,455.89549929383 1713.09012875536,455.89549929383 1714.81759656652,455.93056380491 1716.54506437768,455.81120240875 1718.27253218884,455.81120240875 1720,455.77839021384"/>
<polyline id="series-supported" fill="none" stroke="#9cf28a" stroke-width="3" points="110,734.933586337761 111.727467811159,734.933586337761 113.454935622318,734.933586337761 115.182403433476,734.933586337761 116.909871244635,734.933586337761 118.637339055794,734.933586337761 120.364806866953,734.933586337761 122.092274678112,734.933586337761 123.81974248927,734.933586337761 125.547210300429,734.933586337761 127.274678111588,734.933586337761 129.002145922747,734.933586337761 130.729613733906,734.933586337761 132.457081545064,734.933586337761 134.184549356223,734.933586337761 135.912017167382,734.933586337761 137.639484978541,734.933586337761 139.3669527897,734.933586337761 141.094420600858,734.933586337761 142.821888412017,734.933586337761 144.549356223176,734.933586337761 146.276824034335,734.933586337761 148.004291845494,734.933586337761 149.731759656652,734.933586337761 151.459227467811,734.060721062619 153.18669527897,733.187855787476 154.914163090129,733.187855787476 156.641630901288,733.187855787476 158.369098712446,733.187855787476 160.096566523605,733.187855787476 161.824034334764,733.187855787476 163.551502145923,733.187855787476 165.278969957082,733.187855787476 167.00643776824,733.187855787476 168.733905579399,733.187855787476 170.461373390558,733.187855787476 172.188841201717,733.187855787476 173.916309012876,733.187855787476 175.643776824034,733.187855787476 177.371244635193,732.314990512334 179.098712446352,732.314990512334 180.826180257511,732.751423149905 182.55364806867,732.751423149905 184.281115879828,732.751423149905 186.008583690987,732.751423149905 187.736051502146,731.878557874763 189.463519313305,731.878557874763 191.190987124464,731.878557874763 192.918454935622,731.878557874763 194.645922746781,731.878557874763 196.37339055794,732.314990512334 198.100858369099,732.314990512334 199.828326180258,731.442125237192 201.555793991416,731.00569259962 203.283261802575,731.00569259962 205.010729613734,731.00569259962 206.738197424893,731.878557874763 208.465665236052,731.878557874763 210.19313304721,731.878557874763 211.920600858369,731.878557874763 213.648068669528,731.00569259962 215.375536480687,731.00569259962 217.103004291845,731.00569259962 218.830472103004,731.00569259962 220.557939914163,731.00569259962 222.285407725322,731.00569259962 224.012875536481,731.00569259962 225.740343347639,731.00569259962 227.467811158798,731.00569259962 229.195278969957,731.00569259962 230.922746781116,731.00569259962 232.650214592275,731.00569259962 234.377682403433,731.00569259962 236.105150214592,731.00569259962 237.832618025751,731.00569259962 239.56008583691,731.00569259962 241.287553648069,731.00569259962 243.015021459227,731.00569259962 244.742489270386,731.00569259962 246.469957081545,731.00569259962 248.197424892704,731.00569259962 249.924892703863,731.00569259962 251.652360515021,731.00569259962 253.37982832618,730.132827324478 255.107296137339,730.132827324478 256.834763948498,729.259962049336 258.562231759657,728.387096774194 260.289699570815,728.387096774194 262.017167381974,728.387096774194 263.744635193133,728.387096774194 265.472103004292,728.387096774194 267.199570815451,729.259962049336 268.927038626609,728.823529411765 270.654506437768,728.823529411765 272.381974248927,728.823529411765 274.109442060086,728.823529411765 275.836909871245,726.204933586338 277.564377682403,725.768500948767 279.291845493562,725.768500948767 281.019313304721,725.768500948767 282.74678111588,732.751423149905 284.474248927039,732.751423149905 286.201716738197,732.751423149905 287.929184549356,732.751423149905 289.656652360515,732.751423149905 291.384120171674,733.187855787476 293.111587982833,733.187855787476 294.839055793991,733.187855787476 296.56652360515,733.187855787476 298.293991416309,733.187855787476 300.021459227468,733.187855787476 301.748927038627,733.187855787476 303.476394849785,733.187855787476 305.203862660944,733.187855787476 306.931330472103,733.187855787476 308.658798283262,734.060721062619 310.386266094421,734.060721062619 312.113733905579,732.751423149905 313.841201716738,731.00569259962 315.568669527897,730.569259962049 317.296137339056,726.641366223909 319.023605150215,726.204933586338 320.751072961373,722.713472485769 322.478540772532,722.713472485769 324.206008583691,722.713472485769 325.93347639485,721.840607210626 327.660944206009,721.840607210626 329.388412017167,721.840607210626 331.115879828326,721.404174573055 332.843347639485,721.404174573055 334.570815450644,720.967741935484 336.298283261803,720.967741935484 338.025751072961,720.967741935484 339.75321888412,720.967741935484 341.480686695279,720.967741935484 343.208154506438,720.967741935484 344.935622317597,720.967741935484 346.663090128755,720.967741935484 348.390557939914,720.967741935484 350.118025751073,720.967741935484 351.845493562232,720.094876660342 353.572961373391,720.094876660342 355.300429184549,720.094876660342 357.027896995708,720.094876660342 358.755364806867,720.094876660342 360.482832618026,718.349146110057 362.210300429185,726.641366223909 363.937768240343,725.332068311195 365.665236051502,725.332068311195 367.392703862661,725.332068311195 369.12017167382,724.895635673624 370.847639484979,724.895635673624 372.575107296137,724.895635673624 374.302575107296,724.895635673624 376.030042918455,724.895635673624 377.757510729614,724.895635673624 379.484978540773,724.895635673624 381.212446351931,724.022770398482 382.93991416309,724.022770398482 384.667381974249,724.022770398482 386.394849785408,724.022770398482 388.122317596567,723.586337760911 389.849785407725,723.586337760911 391.577253218884,723.586337760911 393.304721030043,722.713472485769 395.032188841202,722.713472485769 396.75965665236,722.713472485769 398.487124463519,723.14990512334 400.214592274678,723.14990512334 401.942060085837,721.840607210626 403.669527896996,721.404174573055 405.396995708155,721.404174573055 407.124463519313,721.404174573055 408.851931330472,721.404174573055 410.579399141631,721.404174573055 412.30686695279,722.277039848197 414.034334763948,722.277039848197 415.761802575107,723.14990512334 417.489270386266,718.349146110057 419.216738197425,718.349146110057 420.944206008584,717.476280834915 422.671673819742,713.111954459203 424.399141630901,713.111954459203 426.12660944206,713.111954459203 427.854077253219,713.111954459203 429.581545064378,713.111954459203 431.309012875536,712.239089184061 433.036480686695,712.239089184061 434.763948497854,712.239089184061 436.491416309013,712.239089184061 438.218884120172,711.366223908918 439.94635193133,711.366223908918 441.673819742489,711.366223908918 443.401287553648,711.366223908918 445.128755364807,711.366223908918 446.856223175966,710.929791271347 448.583690987124,710.929791271347 450.311158798283,678.633776091082 452.038626609442,677.760910815939 453.766094420601,677.760910815939 455.49356223176,677.760910815939 457.221030042918,677.760910815939 458.948497854077,677.760910815939 460.675965665236,677.760910815939 462.403433476395,677.760910815939 464.130901287554,677.760910815939 465.858369098712,677.760910815939 467.585836909871,677.760910815939 469.31330472103,676.888045540797 471.040772532189,675.142314990512 472.768240343348,675.142314990512 474.495708154506,671.214421252372 476.223175965665,671.214421252372 477.950643776824,669.905123339658 479.678111587983,669.905123339658 481.405579399142,669.905123339658 483.1330472103,669.905123339658 484.860515021459,669.905123339658 486.587982832618,669.905123339658 488.315450643777,669.905123339658 490.042918454936,669.905123339658 491.770386266094,669.905123339658 493.497854077253,669.905123339658 495.225321888412,669.905123339658 496.952789699571,669.905123339658 498.68025751073,669.905123339658 500.407725321888,669.905123339658 502.135193133047,669.905123339658 503.862660944206,669.905123339658 505.590128755365,669.905123339658 507.317596566524,669.905123339658 509.045064377682,669.905123339658 510.772532188841,669.905123339658 512.5,669.905123339658 514.227467811159,669.905123339658 515.954935622318,669.905123339658 517.682403433476,669.032258064516 519.409871244635,669.032258064516 521.137339055794,669.032258064516 522.864806866953,667.722960151803 524.592274678112,668.159392789374 526.31974248927,664.667931688805 528.047210300429,664.667931688805 529.774678111588,664.667931688805 531.502145922747,664.667931688805 533.229613733906,664.667931688805 534.957081545064,664.667931688805 536.684549356223,664.667931688805 538.412017167382,664.667931688805 540.139484978541,664.667931688805 541.8669527897,664.667931688805 543.594420600858,663.358633776091 545.321888412017,663.358633776091 547.049356223176,663.358633776091 548.776824034335,663.358633776091 550.504291845494,662.92220113852 552.231759656652,662.92220113852 553.959227467811,662.92220113852 555.68669527897,662.92220113852 557.414163090129,662.92220113852 559.141630901287,662.485768500949 560.869098712446,662.485768500949 562.596566523605,662.485768500949 564.324034334764,662.485768500949 566.051502145923,662.485768500949 567.778969957081,662.485768500949 569.50643776824,662.92220113852 571.233905579399,662.92220113852 572.961373390558,662.92220113852 574.688841201717,662.92220113852 576.416309012876,662.92220113852 578.143776824034,662.92220113852 579.871244635193,662.92220113852 581.598712446352,662.92220113852 583.326180257511,662.92220113852 585.05364806867,662.92220113852 586.781115879828,662.92220113852 588.508583690987,662.92220113852 590.236051502146,663.795066413662 591.963519313305,663.795066413662 593.690987124464,663.795066413662 595.418454935622,663.795066413662 597.145922746781,661.176470588235 598.87339055794,661.176470588235 600.600858369099,660.303605313093 602.328326180258,660.303605313093 604.055793991416,660.303605313093 605.783261802575,660.303605313093 607.510729613734,659.867172675522 609.238197424893,659.867172675522 610.965665236052,659.867172675522 612.69313304721,653.757115749526 614.420600858369,652.011385199241 616.148068669528,652.011385199241 617.875536480687,652.011385199241 619.603004291846,651.138519924099 621.330472103004,651.138519924099 623.057939914163,651.138519924099 624.785407725322,651.138519924099 626.512875536481,651.138519924099 628.24034334764,651.138519924099 629.967811158798,649.829222011385 631.695278969957,649.829222011385 633.422746781116,649.829222011385 635.150214592275,649.829222011385 636.877682403433,649.829222011385 638.605150214592,649.829222011385 640.332618025751,649.829222011385 642.06008583691,649.829222011385 643.787553648069,649.829222011385 645.515021459227,649.829222011385 647.242489270386,648.956356736243 648.969957081545,647.647058823529 650.697424892704,647.647058823529 652.424892703863,647.647058823529 654.152360515021,647.647058823529 655.87982832618,647.210626185958 657.607296137339,647.210626185958 659.334763948498,647.210626185958 661.062231759657,646.337760910816 662.789699570815,646.337760910816 664.517167381974,646.337760910816 666.244635193133,643.282732447818 667.972103004292,643.282732447818 669.699570815451,643.282732447818 671.427038626609,643.282732447818 673.154506437768,644.592030360531 674.881974248927,644.592030360531 676.609442060086,644.592030360531 678.336909871245,644.592030360531 680.064377682403,644.592030360531 681.791845493562,644.592030360531 683.519313304721,644.592030360531 685.24678111588,644.592030360531 686.974248927039,644.15559772296 688.701716738197,644.15559772296 690.429184549356,644.15559772296 692.156652360515,644.592030360531 693.884120171674,644.592030360531 695.611587982833,644.592030360531 697.339055793991,644.592030360531 699.06652360515,644.592030360531 700.793991416309,644.592030360531 702.521459227468,640.664136622391 704.248927038627,629.753320683112 705.976394849785,629.753320683112 707.703862660944,629.753320683112 709.431330472103,629.753320683112 711.158798283262,628.007590132827 712.886266094421,628.007590132827 714.613733905579,627.134724857685 716.341201716738,627.134724857685 718.068669527897,627.134724857685 719.796137339056,627.134724857685 721.523605150215,627.134724857685 723.251072961373,627.134724857685 724.978540772532,627.134724857685 726.706008583691,627.134724857685 728.43347639485,627.134724857685 730.160944206009,627.134724857685 731.888412017167,627.134724857685 733.615879828326,627.134724857685 735.343347639485,627.134724857685 737.070815450644,627.134724857685 738.798283261803,627.134724857685 740.525751072961,627.134724857685 742.25321888412,627.134724857685 743.980686695279,627.134724857685 745.708154506438,627.134724857685 747.435622317597,627.134724857685 749.163090128755,627.134724857685 750.890557939914,627.134724857685 752.618025751073,626.261859582543 754.345493562232,625.825426944971 756.072961373391,625.825426944971 757.800429184549,623.206831119545 759.527896995708,623.206831119545 761.255364806867,619.715370018975 762.982832618026,619.715370018975 764.710300429185,615.351043643264 766.437768240343,614.04174573055 768.165236051502,614.04174573055 769.892703862661,614.04174573055 771.62017167382,613.605313092979 773.347639484979,613.605313092979 775.075107296137,613.605313092979 776.802575107296,614.04174573055 778.530042918455,614.04174573055 780.257510729614,614.04174573055 781.984978540773,614.04174573055 783.712446351931,614.04174573055 785.43991416309,613.605313092979 787.167381974249,613.605313092979 788.894849785408,613.605313092979 790.622317596567,613.605313092979 792.349785407725,613.605313092979 794.077253218884,612.732447817837 795.804721030043,612.732447817837 797.532188841202,612.732447817837 799.25965665236,611.859582542695 800.987124463519,611.859582542695 802.714592274678,610.986717267552 804.442060085837,610.550284629981 806.169527896996,610.986717267552 807.896995708154,610.986717267552 809.624463519313,610.11385199241 811.351931330472,610.11385199241 813.079399141631,610.11385199241 814.80686695279,610.11385199241 816.534334763949,610.11385199241 818.261802575107,610.11385199241 819.989270386266,602.258064516129 821.716738197425,602.258064516129 823.444206008584,602.258064516129 825.171673819743,602.258064516129 826.899141630901,602.258064516129 828.62660944206,602.258064516129 830.354077253219,602.258064516129 832.081545064378,602.258064516129 833.809012875536,602.258064516129 835.536480686695,602.258064516129 837.263948497854,602.258064516129 838.991416309013,602.258064516129 840.718884120172,601.385199240987 842.44635193133,601.385199240987 844.173819742489,601.385199240987 845.901287553648,597.893738140417 847.628755364807,597.893738140417 849.356223175966,597.893738140417 851.083690987124,597.893738140417 852.811158798283,597.893738140417 854.538626609442,597.893738140417 856.266094420601,597.893738140417 857.99356223176,597.893738140417 859.721030042918,597.893738140417 861.448497854077,597.893738140417 863.175965665236,597.893738140417 864.903433476395,597.893738140417 866.630901287554,597.893738140417 868.358369098713,597.893738140417 870.085836909871,597.020872865275 871.81330472103,597.020872865275 873.540772532189,598.76660341556 875.268240343348,598.76660341556 876.995708154506,598.76660341556 878.723175965665,598.76660341556 880.450643776824,598.76660341556 882.178111587983,598.76660341556 883.905579399142,598.76660341556 885.6330472103,598.76660341556 887.360515021459,598.76660341556 889.087982832618,598.76660341556 890.815450643777,598.76660341556 892.542918454936,598.76660341556 894.270386266094,598.76660341556 895.997854077253,598.76660341556 897.725321888412,598.76660341556 899.452789699571,598.76660341556 901.18025751073,598.76660341556 902.907725321888,598.76660341556 904.635193133047,598.76660341556 906.362660944206,598.76660341556 908.090128755365,598.76660341556 909.817596566524,598.76660341556 911.545064377682,598.76660341556 913.272532188841,598.76660341556 915,598.76660341556 916.727467811159,598.76660341556 918.454935622318,598.76660341556 920.182403433476,597.020872865275 921.909871244635,597.020872865275 923.637339055794,595.27514231499 925.364806866953,593.965844402277 927.092274678112,593.965844402277 928.81974248927,593.965844402277 930.547210300429,593.965844402277 932.274678111588,593.965844402277 934.002145922747,593.965844402277 935.729613733906,593.965844402277 937.457081545064,593.965844402277 939.184549356223,593.965844402277 940.912017167382,593.965844402277 942.639484978541,593.965844402277 944.3669527897,593.965844402277 946.094420600858,593.965844402277 947.821888412017,593.965844402277 949.549356223176,593.965844402277 951.276824034335,593.965844402277 953.004291845494,593.965844402277 954.731759656652,593.965844402277 956.459227467811,593.965844402277 958.18669527897,593.965844402277 959.914163090129,593.965844402277 961.641630901287,593.965844402277 963.369098712446,593.965844402277 965.096566523605,593.965844402277 966.824034334764,593.965844402277 968.551502145923,593.965844402277 970.278969957082,593.529411764706 972.00643776824,593.529411764706 973.733905579399,593.529411764706 975.461373390558,593.529411764706 977.188841201717,593.529411764706 978.916309012876,593.529411764706 980.643776824034,592.656546489564 982.371244635193,592.656546489564 984.098712446352,591.34724857685 985.826180257511,591.34724857685 987.55364806867,591.34724857685 989.281115879828,591.34724857685 991.008583690987,591.34724857685 992.736051502146,591.34724857685 994.463519313305,591.34724857685 996.190987124464,591.34724857685 997.918454935622,591.34724857685 999.645922746781,591.34724857685 1001.37339055794,591.34724857685 1003.1008583691,591.34724857685 1004.82832618026,591.34724857685 1006.55579399142,590.474383301708 1008.28326180258,590.037950664137 1010.01072961373,589.601518026565 1011.73819742489,589.601518026565 1013.46566523605,589.601518026565 1015.19313304721,589.601518026565 1016.92060085837,589.601518026565 1018.64806866953,589.601518026565 1020.37553648069,589.601518026565 1022.10300429185,589.601518026565 1023.830472103,589.601518026565 1025.55793991416,589.601518026565 1027.28540772532,589.601518026565 1029.01287553648,589.601518026565 1030.74034334764,589.601518026565 1032.4678111588,589.601518026565 1034.19527896996,589.601518026565 1035.92274678112,589.601518026565 1037.65021459227,589.601518026565 1039.37768240343,589.601518026565 1041.10515021459,589.601518026565 1042.83261802575,589.601518026565 1044.56008583691,589.601518026565 1046.28755364807,589.601518026565 1048.01502145923,589.601518026565 1049.74248927039,589.601518026565 1051.46995708155,589.601518026565 1053.1974248927,589.601518026565 1054.92489270386,589.601518026565 1056.65236051502,589.601518026565 1058.37982832618,589.601518026565 1060.10729613734,589.601518026565 1061.8347639485,589.601518026565 1063.56223175966,589.601518026565 1065.28969957082,589.601518026565 1067.01716738197,589.601518026565 1068.74463519313,589.601518026565 1070.47210300429,589.601518026565 1072.19957081545,589.601518026565 1073.92703862661,589.601518026565 1075.65450643777,589.601518026565 1077.38197424893,589.601518026565 1079.10944206009,589.601518026565 1080.83690987124,588.728652751423 1082.5643776824,589.601518026565 1084.29184549356,589.601518026565 1086.01931330472,589.601518026565 1087.74678111588,589.601518026565 1089.47424892704,589.601518026565 1091.2017167382,589.601518026565 1092.92918454936,589.601518026565 1094.65665236052,589.601518026565 1096.38412017167,589.601518026565 1098.11158798283,589.601518026565 1099.83905579399,589.601518026565 1101.56652360515,589.601518026565 1103.29399141631,589.601518026565 1105.02145922747,589.601518026565 1106.74892703863,589.601518026565 1108.47639484979,589.601518026565 1110.20386266094,589.601518026565 1111.9313304721,589.601518026565 1113.65879828326,589.601518026565 1115.38626609442,589.601518026565 1117.11373390558,589.601518026565 1118.84120171674,589.601518026565 1120.5686695279,589.601518026565 1122.29613733906,589.601518026565 1124.02360515021,589.601518026565 1125.75107296137,589.601518026565 1127.47854077253,589.601518026565 1129.20600858369,589.601518026565 1130.93347639485,589.601518026565 1132.66094420601,589.601518026565 1134.38841201717,589.601518026565 1136.11587982833,589.601518026565 1137.84334763949,589.601518026565 1139.57081545064,589.601518026565 1141.2982832618,589.601518026565 1143.02575107296,589.601518026565 1144.75321888412,589.601518026565 1146.48068669528,589.601518026565 1148.20815450644,588.728652751423 1149.9356223176,588.728652751423 1151.66309012876,587.855787476281 1153.39055793991,587.855787476281 1155.11802575107,586.982922201139 1156.84549356223,586.982922201139 1158.57296137339,586.982922201139 1160.30042918455,586.982922201139 1162.02789699571,586.982922201139 1163.75536480687,586.982922201139 1165.48283261803,586.982922201139 1167.21030042918,586.982922201139 1168.93776824034,586.982922201139 1170.6652360515,586.982922201139 1172.39270386266,586.982922201139 1174.12017167382,586.982922201139 1175.84763948498,586.982922201139 1177.57510729614,586.982922201139 1179.3025751073,586.982922201139 1181.03004291845,586.982922201139 1182.75751072961,586.982922201139 1184.48497854077,586.982922201139 1186.21244635193,586.982922201139 1187.93991416309,586.982922201139 1189.66738197425,586.982922201139 1191.39484978541,586.982922201139 1193.12231759657,586.982922201139 1194.84978540773,586.982922201139 1196.57725321888,586.982922201139 1198.30472103004,586.982922201139 1200.0321888412,586.982922201139 1201.75965665236,586.982922201139 1203.48712446352,586.982922201139 1205.21459227468,586.982922201139 1206.94206008584,586.982922201139 1208.669527897,586.546489563567 1210.39699570815,586.546489563567 1212.12446351931,586.110056925996 1213.85193133047,586.110056925996 1215.57939914163,586.110056925996 1217.30686695279,586.110056925996 1219.03433476395,586.110056925996 1220.76180257511,586.110056925996 1222.48927038627,586.110056925996 1224.21673819743,586.110056925996 1225.94420600858,586.110056925996 1227.67167381974,580.872865275142 1229.3991416309,580.872865275142 1231.12660944206,580.872865275142 1232.85407725322,580.872865275142 1234.58154506438,580.872865275142 1236.30901287554,580.872865275142 1238.0364806867,580.872865275142 1239.76394849785,580.872865275142 1241.49141630901,580.872865275142 1243.21888412017,580.872865275142 1244.94635193133,580.872865275142 1246.67381974249,580.872865275142 1248.40128755365,580.872865275142 1250.12875536481,580.872865275142 1251.85622317597,580.872865275142 1253.58369098712,580.872865275142 1255.31115879828,580.872865275142 1257.03862660944,580.872865275142 1258.7660944206,580.872865275142 1260.49356223176,580.872865275142 1262.22103004292,580.872865275142 1263.94849785408,580.872865275142 1265.67596566524,580.872865275142 1267.40343347639,580.872865275142 1269.13090128755,580.872865275142 1270.85836909871,580.872865275142 1272.58583690987,580.872865275142 1274.31330472103,580.872865275142 1276.04077253219,580.436432637571 1277.76824034335,580.436432637571 1279.49570815451,580.436432637571 1281.22317596567,580.436432637571 1282.95064377682,580.436432637571 1284.67811158798,580.436432637571 1286.40557939914,580.872865275142 1288.1330472103,580.872865275142 1289.86051502146,580.872865275142 1291.58798283262,580.872865275142 1293.31545064378,580.872865275142 1295.04291845494,580.872865275142 1296.77038626609,580.872865275142 1298.49785407725,580 1300.22532188841,580 1301.95278969957,580 1303.68025751073,580 1305.40772532189,580 1307.13519313305,580 1308.86266094421,580 1310.59012875536,580 1312.31759656652,580 1314.04506437768,580 1315.77253218884,580 1317.5,580 1319.22746781116,580 1320.95493562232,580 1322.68240343348,580 1324.40987124464,580 1326.13733905579,580 1327.86480686695,580 1329.59227467811,580 1331.31974248927,580 1333.04721030043,580 1334.77467811159,580 1336.50214592275,580 1338.22961373391,580 1339.95708154506,580 1341.68454935622,580 1343.41201716738,580 1345.13948497854,580 1346.8669527897,580 1348.59442060086,580 1350.32188841202,580 1352.04935622318,580 1353.77682403433,580 1355.50429184549,580 1357.23175965665,580 1358.95922746781,580 1360.68669527897,580 1362.41416309013,580 1364.14163090129,580 1365.86909871245,580 1367.59656652361,580 1369.32403433476,580 1371.05150214592,580 1372.77896995708,580 1374.50643776824,580 1376.2339055794,580 1377.96137339056,580 1379.68884120172,580 1381.41630901288,580 1383.14377682403,580 1384.87124463519,580 1386.59871244635,580 1388.32618025751,580 1390.05364806867,580 1391.78111587983,580 1393.50858369099,580 1395.23605150215,580 1396.9635193133,580 1398.69098712446,580 1400.41845493562,580.872865275142 1402.14592274678,580.872865275142 1403.87339055794,580.872865275142 1405.6008583691,580.872865275142 1407.32832618026,580.872865275142 1409.05579399142,580.872865275142 1410.78326180257,580.872865275142 1412.51072961373,580.872865275142 1414.23819742489,580.872865275142 1415.96566523605,580.872865275142 1417.69313304721,580.872865275142 1419.42060085837,580.872865275142 1421.14806866953,580.872865275142 1422.87553648069,580.872865275142 1424.60300429185,580.872865275142 1426.330472103,580.872865275142 1428.05793991416,580.872865275142 1429.78540772532,580.872865275142 1431.51287553648,580.872865275142 1433.24034334764,580.872865275142 1434.9678111588,580.872865275142 1436.69527896996,580.872865275142 1438.42274678112,580.872865275142 1440.15021459227,580.872865275142 1441.87768240343,580.872865275142 1443.60515021459,580.872865275142 1445.33261802575,580.872865275142 1447.06008583691,580.872865275142 1448.78755364807,580.872865275142 1450.51502145923,580.872865275142 1452.24248927039,580.872865275142 1453.96995708155,580.872865275142 1455.6974248927,580.872865275142 1457.42489270386,580.872865275142 1459.15236051502,580.872865275142 1460.87982832618,580.872865275142 1462.60729613734,580.872865275142 1464.3347639485,580.872865275142 1466.06223175966,580.872865275142 1467.78969957082,580.872865275142 1469.51716738197,580.872865275142 1471.24463519313,580.872865275142 1472.97210300429,580.872865275142 1474.69957081545,580.872865275142 1476.42703862661,580.872865275142 1478.15450643777,580.872865275142 1479.88197424893,580.872865275142 1481.60944206009,580.872865275142 1483.33690987124,580.872865275142 1485.0643776824,580.872865275142 1486.79184549356,580.872865275142 1488.51931330472,580.872865275142 1490.24678111588,580.872865275142 1491.97424892704,580.872865275142 1493.7017167382,580.872865275142 1495.42918454936,580.872865275142 1497.15665236051,580.872865275142 1498.88412017167,580.872865275142 1500.61158798283,580.872865275142 1502.33905579399,580.872865275142 1504.06652360515,580.872865275142 1505.79399141631,580.872865275142 1507.52145922747,580.872865275142 1509.24892703863,580.872865275142 1510.97639484979,580.872865275142 1512.70386266094,580.872865275142 1514.4313304721,580.872865275142 1516.15879828326,580.872865275142 1517.88626609442,580.872865275142 1519.61373390558,580.872865275142 1521.34120171674,580.872865275142 1523.0686695279,580.872865275142 1524.79613733906,580.872865275142 1526.52360515021,580.872865275142 1528.25107296137,580.872865275142 1529.97854077253,580.872865275142 1531.70600858369,580.872865275142 1533.43347639485,580.872865275142 1535.16094420601,580.872865275142 1536.88841201717,580.872865275142 1538.61587982833,580.872865275142 1540.34334763949,580.872865275142 1542.07081545064,580.872865275142 1543.7982832618,580.872865275142 1545.52575107296,580.872865275142 1547.25321888412,580.872865275142 1548.98068669528,580.872865275142 1550.70815450644,580.872865275142 1552.4356223176,580.872865275142 1554.16309012876,580.872865275142 1555.89055793991,580.872865275142 1557.61802575107,580.872865275142 1559.34549356223,580.872865275142 1561.07296137339,580.872865275142 1562.80042918455,580.872865275142 1564.52789699571,580.872865275142 1566.25536480687,580.872865275142 1567.98283261803,580.872865275142 1569.71030042918,580.872865275142 1571.43776824034,580.872865275142 1573.1652360515,580.872865275142 1574.89270386266,580.872865275142 1576.62017167382,580.872865275142 1578.34763948498,580.872865275142 1580.07510729614,580.872865275142 1581.8025751073,580.872865275142 1583.53004291845,580.872865275142 1585.25751072961,580.872865275142 1586.98497854077,580.872865275142 1588.71244635193,580.872865275142 1590.43991416309,580.872865275142 1592.16738197425,580.872865275142 1593.89484978541,580.872865275142 1595.62231759657,580.872865275142 1597.34978540773,580.872865275142 1599.07725321888,580.872865275142 1600.80472103004,580.872865275142 1602.5321888412,580.872865275142 1604.25965665236,580.872865275142 1605.98712446352,580.872865275142 1607.71459227468,580.872865275142 1609.44206008584,580.872865275142 1611.169527897,580.872865275142 1612.89699570815,580.872865275142 1614.62446351931,580.872865275142 1616.35193133047,580.872865275142 1618.07939914163,580.872865275142 1619.80686695279,580.872865275142 1621.53433476395,580.872865275142 1623.26180257511,580.872865275142 1624.98927038627,580.872865275142 1626.71673819743,580.872865275142 1628.44420600858,580.872865275142 1630.17167381974,580.872865275142 1631.8991416309,580.872865275142 1633.62660944206,580.872865275142 1635.35407725322,580.872865275142 1637.08154506438,580.872865275142 1638.80901287554,580.872865275142 1640.5364806867,580.872865275142 1642.26394849785,580.872865275142 1643.99141630901,580.872865275142 1645.71888412017,580.872865275142 1647.44635193133,580.872865275142 1649.17381974249,580.872865275142 1650.90128755365,580.872865275142 1652.62875536481,580.872865275142 1654.35622317597,580.872865275142 1656.08369098712,580.872865275142 1657.81115879828,580.872865275142 1659.53862660944,580.872865275142 1661.2660944206,580.872865275142 1662.99356223176,580.872865275142 1664.72103004292,580.872865275142 1666.44849785408,580.872865275142 1668.17596566524,580.872865275142 1669.90343347639,580.872865275142 1671.63090128755,580.872865275142 1673.35836909871,580.872865275142 1675.08583690987,580.872865275142 1676.81330472103,580.872865275142 1678.54077253219,580.872865275142 1680.26824034335,580.872865275142 1681.99570815451,580.872865275142 1683.72317596567,580.872865275142 1685.45064377682,580.872865275142 1687.17811158798,580.872865275142 1688.90557939914,580.872865275142 1690.6330472103,580.872865275142 1692.36051502146,580.872865275142 1694.08798283262,580.872865275142 1695.81545064378,580.872865275142 1697.54291845494,580.872865275142 1699.27038626609,580.872865275142 1700.99785407725,580.872865275142 1702.72532188841,580.872865275142 1704.45278969957,580.872865275142 1706.18025751073,580.872865275142 1707.90772532189,580.872865275142 1709.63519313305,580.872865275142 1711.36266094421,580.872865275142 1713.09012875536,580.872865275142 1714.81759656652,580.872865275142 1716.54506437768,580.872865275142 1718.27253218884,580.872865275142 1720,580.872865275142"/>
<g font-family="Segoe UI, sans-serif" font-size="18" fill="#d7e0ea">
<text x="110" y="80">Code-quality history</text>
<text x="110" y="115">verbosity</text><text x="110" y="345">structural erosion</text><text x="110" y="575">supported files</text>
<text x="110" y="850" text-anchor="middle">2024-10-02</text>
<text x="244.742489270386" y="850" text-anchor="middle">2025-11-28</text>
<text x="379.484978540773" y="850" text-anchor="middle">2026-02-15</text>
<text x="514.227467811159" y="850" text-anchor="middle">2026-03-16</text>
<text x="648.969957081545" y="850" text-anchor="middle">2026-04-15</text>
<text x="783.712446351931" y="850" text-anchor="middle">2026-06-16</text>
<text x="918.454935622318" y="850" text-anchor="middle">2026-07-12</text>
<text x="1053.1974248927" y="850" text-anchor="middle">2026-07-26</text>
<text x="1187.93991416309" y="850" text-anchor="middle">2026-08-09</text>
<text x="1322.68240343348" y="850" text-anchor="middle">2026-08-27</text>
<text x="1457.42489270386" y="850" text-anchor="middle">2026-09-02</text>
<text x="1592.16738197425" y="850" text-anchor="middle">2026-09-05</text>
<text x="1720" y="850" text-anchor="middle">2026-09-06</text>
</g>
</svg>
